<svg height="512pt" viewBox="0 0 512.00233 512" width="512pt" xmlns="http://www.w3.org/2000/svg"><path d="m307.199219 469.09375h-102.398438v-8.535156c0-28.277344 22.921875-51.199219 51.199219-51.199219s51.199219 22.925781 51.199219 51.199219zm0 0" fill="#b9b9b9"/><path d="m8.535156 119.226562h42.664063v-29.867187c0-11.78125-9.550781-21.332031-21.332031-21.332031s-21.332032 9.550781-21.332032 21.332031zm0 0" fill="#8aced8"/><path d="m503.46875 119.226562h-42.667969v-29.867187c0-11.78125 9.550781-21.332031 21.332031-21.332031s21.332032 9.550781 21.332032 21.332031v29.867187zm0 0" fill="#8aced8"/><path d="m153.601562 306.960938h204.796876v110.933593h-204.796876zm0 0" fill="#d9d9d9"/><path d="m204.800781 315.492188v-191.640626c0-25.269531 7.480469-49.976562 21.496094-71.003906l29.703125-44.554687 29.703125 44.554687c14.015625 21.027344 21.496094 45.734375 21.496094 71.003906v191.640626z" fill="#d9d9d9"/><path d="m418.132812 306.960938h-2.210937l.105469-62.347657 2.105468.105469 42.667969-65.757812v-68.269532h42.667969v196.269532zm0 0" fill="#cdcdcd"/><path d="m93.867188 306.960938h4.265624l.800782-62.667969-5.03125.320312-42.703125-65.652343v-68.269532h-42.664063v196.269532zm0 0" fill="#cdcdcd"/><path d="m256 153.359375-25.601562 59.734375v25.601562l17.070312 34.132813h17.066406l17.066406-34.132813v-25.601562zm0 0" fill="#8aced8"/><path d="m503.46875 341.09375h-34.136719v-76.800781l34.136719-42.667969zm0 0" fill="#ea6b65"/><path d="m469.332031 306.960938h-162.132812v110.933593h51.199219l35.277343-49.382812c4.855469-6.800781 11.300781-12.304688 18.773438-16.035157l56.882812-28.449218zm0 0" fill="#b9b9b9"/><path d="m486.398438 366.691406c9.425781 0 17.066406 7.644532 17.066406 17.066406v17.066407h-34.132813v-17.066407c0-9.421874 7.644531-17.066406 17.066407-17.066406zm0 0" fill="#b9b9b9"/><g fill="#ea6b65"><path d="m93.867188 306.960938h68.265624v-85.335938h-8.53125l-59.734374 22.972656zm0 0"/><path d="m418.132812 306.960938h-68.265624v-85.335938h8.53125l59.734374 22.972656zm0 0"/><path d="m8.535156 341.09375h34.132813v-76.800781l-34.132813-42.667969zm0 0"/></g><path d="m42.667969 306.960938h162.132812v110.933593h-51.199219l-35.277343-49.382812c-4.855469-6.800781-11.300781-12.304688-18.773438-16.035157l-56.882812-28.449218zm0 0" fill="#b9b9b9"/><path d="m42.667969 400.828125h-34.132813v-17.066406c0-9.425781 7.640625-17.066407 17.066406-17.066407 9.425782 0 17.066407 7.640626 17.066407 17.066407zm0 0" fill="#b9b9b9"/><path d="m285.703125 52.847656-29.703125-44.554687-29.703125 44.554687c-14.015625 21.027344-21.496094 45.734375-21.496094 71.003906v12.441407l34.132813-42.667969 17.066406 25.601562 17.066406-25.601562 34.132813 42.667969v-12.441407c0-25.269531-7.480469-49.976562-21.496094-71.003906zm0 0" fill="#69b0bb"/><path d="m256 272.828125-51.199219 42.664063v12.058593l18.0625 12.039063c20.066407 13.378906 46.207031 13.378906 66.273438 0l18.0625-12.039063v-12.058593zm0 0" fill="#b9b9b9"/><path d="m153.601562 383.761719h51.199219v34.132812h-51.199219zm0 0" fill="#69b0bb"/><path d="m307.199219 383.761719h51.199219v34.132812h-51.199219zm0 0" fill="#69b0bb"/><path d="m204.800781 383.761719h-51.199219v-162.136719l51.199219-17.066406zm0 0" fill="#cdcdcd"/><path d="m307.199219 383.761719h51.199219v-162.136719l-51.199219-17.066406zm0 0" fill="#cdcdcd"/><path d="m482.132812 59.492188c-16.496093 0-29.867187 13.371093-29.867187 29.867187v84.480469l-37.65625 60.261718-98.875-35.683593v-74.566407c.023437-26.960937-7.957031-53.320312-22.929687-75.742187l-29.703126-44.550781c-2.933593-3.921875-8.492187-4.722656-12.410156-1.789063-.679687.507813-1.28125 1.109375-1.789062 1.789063l-29.707032 44.550781c-14.972656 22.421875-22.953124 48.78125-22.929687 75.742187v74.5625l-98.984375 35.738282-37.546875-57.753906v-87.039063c0-16.496094-13.371094-29.867187-29.867187-29.867187-16.496094 0-29.867188 13.371093-29.867188 29.867187v251.734375c0 4.710938 3.820312 8.53125 8.535156 8.53125h8.53125v10.105469c-10.191406 3.601562-17.0234372 13.21875-17.066406 24.03125v17.066406c0 4.710937 3.820312 8.53125 8.535156 8.53125h34.132813c4.710937 0 8.53125-3.820313 8.53125-8.53125v-17.066406c-.042969-10.8125-6.875-20.429688-17.066407-24.03125v-10.105469h8.535157c4.710937 0 8.53125-3.820312 8.53125-8.53125v-3.261719l44.546875 22.28125c6.21875 3.113281 11.585937 7.695313 15.632812 13.355469l35.285156 49.382812c.210938.269532.441407.523438.691407.757813.136719.15625.253906.308594.410156.453125.679687.644531 1.464844 1.171875 2.320313 1.5625.171874.078125.347656.136719.535156.203125.949218.378906 1.957031.578125 2.980468.597656h53.390626c-6.988282 10.011719-10.730469 21.925781-10.726563 34.132813v8.535156c0 4.710938 3.820313 8.535156 8.535156 8.535156h102.402344c4.710937 0 8.53125-3.824218 8.53125-8.535156v-8.535156c.007813-12.203125-3.734375-24.117188-10.71875-34.132813h53.386719c1.019531-.019531 2.027344-.21875 2.976562-.597656.1875-.066406.367188-.125.539063-.203125.851562-.390625 1.636719-.917969 2.320312-1.5625.152344-.144531.273438-.296875.410157-.453125.246093-.234375.476562-.488281.691406-.757813l35.285156-49.382812c4.042969-5.660156 9.410156-10.242188 15.632812-13.355469l44.542969-22.28125v3.261719c0 4.710938 3.820313 8.53125 8.535157 8.53125h8.53125v10.105469c-10.191407 3.601562-17.019532 13.21875-17.066407 24.03125v17.066406c0 4.710937 3.820313 8.53125 8.535157 8.53125h34.132812c4.710938 0 8.53125-3.820313 8.53125-8.53125v-17.066406c-.042969-10.8125-6.871094-20.429688-17.066406-24.03125v-10.105469h8.535156c4.710938 0 8.535156-3.820312 8.535156-8.53125v-251.734375c-.003906-16.496094-13.375-29.867187-29.871094-29.867187zm-448 332.800781h-17.066406v-8.535157c0-4.710937 3.820313-8.53125 8.535156-8.53125 4.710938 0 8.53125 3.820313 8.53125 8.53125zm460.800782 0h-17.066406v-8.535157c0-4.710937 3.820312-8.53125 8.535156-8.53125 4.710937 0 8.53125 3.820313 8.53125 8.53125zm-12.800782-315.734375c7.070313 0 12.800782 5.730468 12.800782 12.800781v10.136719h-25.601563v-10.136719c0-7.070313 5.730469-12.800781 12.800781-12.800781zm-14.097656 104.261718c.847656-1.355468 1.296875-2.921874 1.296875-4.523437v-57.070313h25.601563v99.40625l-32.265625 40.328126c-1.210938 1.511718-1.867188 3.394531-1.867188 5.332031v34.132812h-34.132812v-51.414062zm-58.433594 117.605469h-42.667968v-64.375l42.667968 16.410157zm-59.734374-70.648437v147.449218h-34.132813v-158.824218zm-136.535157-88.488282 24.980469-31.222656 10.589844 15.894532c2.929687 3.921874 8.488281 4.722656 12.410156 1.789062.675781-.507812 1.28125-1.109375 1.785156-1.789062l10.589844-15.894532 24.980469 31.222656v157.984376l-25.984375-21.65625 16.554687-33.109376c.589844-1.183593.894531-2.492187.894531-3.816406v-25.597656c.003907-1.15625-.230468-2.300781-.691406-3.363281l-25.597656-59.734375c-1.859375-4.328125-6.878906-6.335938-11.207031-4.476563-2.011719.863281-3.617188 2.464844-4.480469 4.476563l-25.597656 59.734375c-.460938 1.0625-.695313 2.207031-.691406 3.363281v25.597656c-.003907 1.324219.304687 2.632813.894531 3.816406l16.554687 33.109376-25.984375 21.65625zm45.929688 125.003907h-6.523438l-13.804687-27.613281v-21.835938l17.066406-39.816406 17.066406 39.816406v21.835938zm-3.261719 19.625 42.667969 35.558593v3.492188l-14.269531 9.507812c-17.183594 11.5-39.613282 11.5-56.796876 0l-14.269531-9.492187v-3.488281zm-42.667969 125.441406v-65.867187l4.796875 3.199218c22.914063 15.335938 52.820313 15.335938 75.734375 0l4.804688-3.199218v65.867187zm42.667969-385.707031 22.605469 33.894531c2.378906 3.625 4.566406 7.371094 6.542969 11.230469.386718.734375.777343 1.46875 1.144531 2.21875 1.851562 3.730468 3.503906 7.554687 4.949219 11.460937.257812.707031.488281 1.425781.734374 2.132813 1.335938 3.8125 2.472657 7.6875 3.414063 11.613281.074219.332031.1875.65625.253906.980469.925781 4.140625 1.628907 8.324218 2.109375 12.539062.050782.417969.09375.851563.136719 1.261719l-18.167969-22.714844c-1.675781-2.148437-4.300781-3.335937-7.023437-3.175781-2.71875.117188-5.222657 1.523438-6.730469 3.789062l-9.96875 14.984376-9.96875-14.949219c-1.5-2.277344-4.003906-3.699219-6.730469-3.824219-2.722656-.136719-5.34375 1.050781-7.03125 3.191406l-18.167969 22.722656c0-.417968.085938-.851562.136719-1.261718.476563-4.214844 1.183594-8.398438 2.105469-12.535156.070312-.324219.179688-.648438.257812-.980469.941407-3.929688 2.078126-7.804688 3.414063-11.613281.246094-.710938.476563-1.425782.734375-2.136719 1.445312-3.902344 3.097656-7.730469 4.949219-11.457031.367187-.753907.757812-1.488282 1.140625-2.21875 1.980468-3.859376 4.164062-7.609376 6.546875-11.230469zm-59.734375 351.574218h-34.132813v-147.449218l34.132813-11.375zm-51.199219-76.800781h-42.667968v-47.964843l42.667968-16.410157zm-59.734375-51.292969v51.292969h-34.132812v-34.132812c0-1.9375-.65625-3.820313-1.867188-5.332031l-32.265625-40.328126v-99.40625h25.601563v59.734376c0 1.652343.480469 3.265624 1.378906 4.648437zm-68.265625-157.773437c0-7.070313 5.730469-12.800781 12.800782-12.800781 7.070312 0 12.800781 5.730468 12.800781 12.800781v12.800781h-25.601563zm17.066406 243.199219h-17.066406v-86.605469l17.066406 21.335937zm69.238282 12.28125-52.171875-26.085938v-3.261718h93.867187v75.777343l-19.796875-27.71875c-5.667969-7.925781-13.183593-14.347656-21.898437-18.710937zm58.761718 47.453125h34.132813v17.066406h-34.132813zm136.535157 68.265625h-85.335938c.011719-13.457032 6.394531-26.117188 17.203125-34.132813h50.929688c10.808594 8.015625 17.191406 20.675781 17.203125 34.132813zm17.066406-51.199219v-17.066406h34.132813v17.066406zm92.894531-64.519531c-8.714844 4.363281-16.230468 10.785156-21.898437 18.714844l-19.796875 27.714843v-75.777343h93.867187v3.261718zm86.304688-12.28125h-17.066406v-65.269532l17.066406-21.335937zm0 0"/><path d="m0 426.425781h17.066406v17.066407h-17.066406zm0 0"/><path d="m34.132812 426.425781h17.066407v17.066407h-17.066407zm0 0"/><path d="m196.265625 494.695312h17.066406v17.066407h-17.066406zm0 0"/><path d="m230.398438 494.695312h17.066406v17.066407h-17.066406zm0 0"/><path d="m264.535156 494.695312h17.066406v17.066407h-17.066406zm0 0"/><path d="m298.667969 494.695312h17.066406v17.066407h-17.066406zm0 0"/><path d="m460.800781 426.425781h17.066407v17.066407h-17.066407zm0 0"/><path d="m494.933594 426.425781h17.066406v17.066407h-17.066406zm0 0"/><path d="m128 178.960938h17.066406v17.066406h-17.066406zm0 0"/><path d="m162.132812 170.425781h17.066407v17.066407h-17.066407zm0 0"/><path d="m366.933594 178.960938h17.066406v17.066406h-17.066406zm0 0"/><path d="m332.800781 170.425781h17.066407v17.066407h-17.066407zm0 0"/></svg>