<svg id="Filledoutline" height="512" viewBox="0 0 512 512" width="512" xmlns="http://www.w3.org/2000/svg"><path d="m296 112 16 240h24v72h-24l-32 32h-48l-32-32h-24v-72h24l16-240 40-64z" fill="#e4e4e3"/><circle cx="256" cy="368" fill="#b3b1b3" r="16"/><path d="m232 456 8-40h32l8 40z" fill="#ed5749"/><path d="m227.039 56.807-11.039 55.193h24l8-24h16l8 24h24l-11.039-55.193a43.593 43.593 0 0 0 -28.961-32.807 43.593 43.593 0 0 0 -28.961 32.807z" fill="#b3b1b3"/><path d="m208 256h80a16 16 0 0 1 16 16 16 16 0 0 1 -16 16h-80a0 0 0 0 1 0 0v-32a0 0 0 0 1 0 0z" fill="#0093b9" transform="matrix(0 -1 1 0 -16 528)"/><path d="m328 352h144l-16 56-80 48-24-8z" fill="#e4e4e3"/><path d="m432 368h72a8 8 0 0 1 8 8v16a8 8 0 0 1 -8 8h-72a0 0 0 0 1 0 0v-32a0 0 0 0 1 0 0z" fill="#cacac9" transform="matrix(0 -1 1 0 88 856)"/><path d="m320 399.999h32v72h-32z" fill="#cacac9"/><path d="m296 360h72a8 8 0 0 1 8 8v32a8 8 0 0 1 -8 8h-72a0 0 0 0 1 0 0v-48a0 0 0 0 1 0 0z" fill="#b3b1b3" transform="matrix(0 -1 1 0 -48 720)"/><path d="m184 352h-144l16 56 80 48 24-8z" fill="#e4e4e3"/><path d="m0 368h72a8 8 0 0 1 8 8v16a8 8 0 0 1 -8 8h-72a0 0 0 0 1 0 0v-32a0 0 0 0 1 0 0z" fill="#cacac9" transform="matrix(0 -1 1 0 -344 424)"/><path d="m160 399.999h32v72h-32z" fill="#cacac9"/><path d="m136 360h72a8 8 0 0 1 8 8v32a8 8 0 0 1 -8 8h-72a0 0 0 0 1 0 0v-48a0 0 0 0 1 0 0z" fill="#b3b1b3" transform="matrix(0 -1 1 0 -208 560)"/><path d="m496 320v-16h-16v-120h-16v120h-16v16h16v16a16 16 0 0 0 -13.835 8h-84.33a16 16 0 0 0 -13.835-8h-32c-.353 0-.7.03-1.045.053l-14.973-224.585h-.007a7.964 7.964 0 0 0 -.13-1.037l-11.039-55.192a51.7 51.7 0 0 0 -34.277-38.828 7.986 7.986 0 0 0 -5.058 0 51.7 51.7 0 0 0 -34.277 38.828l-11.039 55.193a7.964 7.964 0 0 0 -.13 1.037l-14.98 224.585c-.347-.023-.692-.053-1.045-.053h-32a16 16 0 0 0 -13.835 8h-84.33a16 16 0 0 0 -13.835-8.001v-16h16v-16h-16v-120h-16v120h-16v16h16v16a16.019 16.019 0 0 0 -16 16v72a8 8 0 0 0 8 8h8v16h16v-16h8a8 8 0 0 0 8-8v-1.87l67.884 40.73a8 8 0 0 0 6.646.729l13.47-4.489v12.9a8 8 0 0 0 8 8h8v16h16v-16h8a8 8 0 0 0 8-8v-36.686l26.343 26.343a8 8 0 0 0 5.657 2.343h48a8 8 0 0 0 5.657-2.343l26.343-26.343v36.686a8 8 0 0 0 8 8h8v16h16v-16h8a8 8 0 0 0 8-8v-12.9l13.47 4.49a8 8 0 0 0 6.646-.729l67.884-40.731v1.87a8 8 0 0 0 8 8h8v16h16v-16h8a8 8 0 0 0 8-8v-72a16.019 16.019 0 0 0 -16-16v-16zm-16 31.99v16.01h-16v-16zm-128 64.01h-32v-32h32zm-72.155-1.569a8 8 0 0 0 -7.845-6.431h-32a8 8 0 0 0 -7.845 6.431l-5.068 25.342-19.087-19.087v-68.417l15.485-232.269h16.515a8 8 0 0 0 7.59-5.47l6.176-18.53h4.468l6.176 18.53a8 8 0 0 0 7.59 5.47h16.515l15.485 232.269v68.417l-19.087 19.087zm-9.604 33.569h-28.482l4.8-24h18.882zm-110.241-32v-32h32v32zm192-64.01v16.01h-32v-16zm-117.116-293.614a35.675 35.675 0 0 1 21.116-25.834 35.675 35.675 0 0 1 21.116 25.834l9.125 45.624h-8.475l-6.176-18.53a8 8 0 0 0 -7.59-5.47h-16a8 8 0 0 0 -7.59 5.47l-6.176 18.53h-8.475zm-42.884 293.624v16h-32v-16zm-144 0v16h-16v-16zm-16 64v-32h16v32zm104.961 31.247-72.961-43.777v-43.47h40v20.687l-13.657 13.656 11.314 11.314 16-16a8 8 0 0 0 2.343-5.657v-24h24v64a8 8 0 0 0 8 8v10.234zm31.039 16.753v-32h16v32zm160 0v-32h16v32zm47.039-16.753-15.039-5.013v-10.234a8 8 0 0 0 8-8v-64h24v24a8 8 0 0 0 2.343 5.657l16 16 11.314-11.314-13.657-13.656v-20.687h40v43.47zm88.961-31.247v-32h16v32z"/><path d="m256 216a24.028 24.028 0 0 0 -24 24v80a8 8 0 0 0 8 8h32a8 8 0 0 0 8-8v-80a24.028 24.028 0 0 0 -24-24zm-8 24a8 8 0 0 1 16 0v40h-16zm0 72v-16h16v16z"/><path d="m256 344a24 24 0 1 0 24 24 24.027 24.027 0 0 0 -24-24zm0 32a8 8 0 1 1 8-8 8.009 8.009 0 0 1 -8 8z"/><path d="m248 136h16v64h-16z"/><path d="m248 48h16v16h-16z"/></svg>