<?xml version="1.0" encoding="utf-8"?>
<!-- Generator: Adobe Illustrator 16.0.0, SVG Export Plug-In . SVG Version: 6.00 Build 0)  -->
<!DOCTYPE svg PUBLIC "-//W3C//DTD SVG 1.1//EN" "http://www.w3.org/Graphics/SVG/1.1/DTD/svg11.dtd">
<svg version="1.1" id="Layer_1" xmlns="http://www.w3.org/2000/svg" xmlns:xlink="http://www.w3.org/1999/xlink" x="0px" y="0px"
	 width="130px" height="130px" viewBox="0 0 130 130" enable-background="new 0 0 130 130" xml:space="preserve">
<g>
	<polygon fill="#B2D2D3" points="65.001,50.132 1,87.088 65.001,124.037 129,87.088 	"/>
	<polygon fill="#8DB1B2" points="31.354,78.682 31.354,104.612 65.001,124.037 120.363,92.074 120.363,82.101 114.441,78.682 	"/>
	<g>
		<path fill="#374851" d="M97.671,61.013c-9.393-15.071-9.722-48.246-9.722-48.246l-11.735,2.777l-11.736-2.777
			c0,0-0.335,34.02-10.08,48.808l0.001,0.002c-2.903,4.724-1.098,10.216,5.424,13.98c9.016,5.211,23.776,5.211,32.8,0
			C99.398,71.643,101.08,65.856,97.671,61.013z"/>
		<path fill="#25343A" d="M97.671,61.013c-7.207-11.564-9.078-33.785-9.559-43.5l-7.293,1.725l-12.615-2.984
			c0,0-0.362,36.564-10.836,52.463h0.002c-0.776,1.264-1.24,2.578-1.39,3.902c1.017,1.055,2.295,2.045,3.842,2.938
			c9.016,5.211,23.776,5.211,32.8,0C99.398,71.643,101.08,65.856,97.671,61.013z"/>
		<path fill="#FF7F00" d="M87.949,12.767l-11.735,2.777l-11.736-2.777c0,0-0.06,5.93-0.836,13.912
			c0.444,1.434,1.614,2.805,3.525,3.908c4.98,2.877,13.125,2.877,18.106,0c1.896-1.095,3.064-2.456,3.516-3.88
			C88.008,18.71,87.949,12.767,87.949,12.767z"/>
		<path fill="#FF5B00" d="M88.779,26.601c-0.031-0.311-0.061-0.618-0.088-0.922c-0.012-0.131-0.023-0.262-0.035-0.391
			c-0.029-0.316-0.057-0.63-0.082-0.939c-0.013-0.136-0.024-0.27-0.035-0.404c-0.024-0.301-0.049-0.598-0.071-0.891
			c-0.011-0.135-0.021-0.266-0.03-0.397c-0.023-0.283-0.043-0.563-0.062-0.84c-0.009-0.122-0.018-0.242-0.026-0.362
			c-0.017-0.229-0.03-0.455-0.046-0.676c-0.01-0.149-0.02-0.295-0.029-0.441c-0.014-0.221-0.028-0.437-0.041-0.648
			c-0.006-0.111-0.012-0.223-0.02-0.33c-0.015-0.246-0.028-0.484-0.041-0.719c-0.007-0.113-0.012-0.224-0.019-0.334
			c-0.012-0.223-0.023-0.441-0.034-0.653c-0.002-0.046-0.005-0.097-0.007-0.14l-7.293,1.725l-12.615-2.984
			c0,0-0.061,6.115-0.849,14.432c4.993,2.773,12.997,2.744,17.918-0.098c1.896-1.095,3.064-2.456,3.516-3.88
			C88.785,26.671,88.782,26.636,88.779,26.601z"/>
		<path fill="#F4B13B" d="M84.561,7.951C79.972,5.3,72.468,5.3,67.88,7.951c-4.592,2.647-4.592,6.982,0,9.631
			c4.588,2.651,12.092,2.651,16.681,0C89.15,14.934,89.15,10.599,84.561,7.951z"/>
		<path fill="#F4B13B" d="M85.167,32.771c-4.922,2.845-12.973,2.845-17.894,0c-2.348-1.354-3.572-3.119-3.683-4.901
			c-0.12,1.957,1.104,3.94,3.683,5.427c4.921,2.843,12.972,2.843,17.894,0c2.576-1.486,3.801-3.47,3.681-5.427
			C88.739,29.652,87.514,31.418,85.167,32.771z"/>
		<path fill="#F4B13B" d="M87.246,51.821c-6.064,3.503-15.986,3.503-22.052,0c-2.894-1.67-4.403-3.846-4.538-6.045
			c-0.148,2.414,1.361,4.859,4.538,6.691c6.065,3.504,15.987,3.504,22.052,0c3.176-1.832,4.686-4.277,4.536-6.691
			C91.647,47.976,90.139,50.151,87.246,51.821z"/>
		<path fill="#EDA411" d="M67.88,17.582c4.588,2.651,12.092,2.651,16.681,0c4.59-2.648,4.59-6.983,0-9.631"/>
		<path fill="#25343A" d="M83.057,8.728c-3.762-2.174-9.912-2.174-13.674,0c-3.764,2.17-3.764,5.723,0,7.895
			c3.762,2.172,9.912,2.172,13.674,0C86.819,14.45,86.819,10.897,83.057,8.728z"/>
		<path fill="#1C2B30" d="M81.397,11.04c-2.849-1.646-7.508-1.646-10.355,0c-2.848,1.643-2.848,4.334,0,5.978
			c2.848,1.645,7.507,1.645,10.355,0C84.245,15.374,84.245,12.683,81.397,11.04z"/>
		<path fill="#081316" d="M79.641,13.485c-1.883-1.086-4.96-1.086-6.842,0c-1.882,1.088-1.882,2.863,0,3.951
			c1.882,1.086,4.959,1.086,6.842,0C81.522,16.349,81.522,14.573,79.641,13.485z"/>
	</g>
	<g>
		<path fill="#374851" d="M75.969,73.427c-9.393-15.072-9.722-48.246-9.722-48.246l-11.734,2.777l-11.737-2.777
			c0,0-0.335,34.019-10.08,48.807l0.001,0.002c-2.903,4.724-1.097,10.217,5.424,13.98c9.016,5.211,23.776,5.211,32.8,0
			C77.697,84.056,79.379,78.271,75.969,73.427z"/>
		<path fill="#25343A" d="M75.969,73.427c-7.207-11.564-9.078-33.785-9.559-43.502l-7.293,1.727l-12.615-2.985
			c0,0-0.362,36.565-10.836,52.463h0.002c-0.776,1.265-1.24,2.579-1.389,3.903c1.016,1.054,2.294,2.045,3.841,2.938
			c9.016,5.211,23.776,5.211,32.8,0C77.697,84.056,79.379,78.271,75.969,73.427z"/>
		<path fill="#FF7F00" d="M66.247,25.181l-11.734,2.777l-11.737-2.777c0,0-0.059,5.93-0.836,13.911
			c0.444,1.435,1.615,2.806,3.525,3.909c4.98,2.877,13.126,2.877,18.106,0c1.897-1.096,3.064-2.457,3.516-3.881
			C66.307,31.124,66.247,25.181,66.247,25.181z"/>
		<path fill="#FF5B00" d="M67.077,39.015c-0.031-0.312-0.061-0.619-0.087-0.923c-0.013-0.13-0.024-0.261-0.036-0.391
			c-0.029-0.315-0.057-0.63-0.082-0.938c-0.013-0.137-0.024-0.271-0.035-0.404c-0.024-0.301-0.048-0.598-0.071-0.891
			c-0.011-0.135-0.02-0.266-0.03-0.398c-0.022-0.283-0.043-0.562-0.062-0.84c-0.008-0.121-0.018-0.242-0.026-0.361
			c-0.016-0.23-0.03-0.455-0.046-0.676c-0.01-0.15-0.019-0.296-0.029-0.441c-0.014-0.221-0.027-0.438-0.041-0.649
			c-0.006-0.11-0.012-0.222-0.019-0.33c-0.016-0.247-0.029-0.484-0.041-0.718c-0.007-0.113-0.012-0.225-0.02-0.334
			c-0.012-0.224-0.022-0.441-0.034-0.654c-0.002-0.046-0.005-0.096-0.007-0.141l-7.293,1.727l-12.615-2.985
			c0,0-0.061,6.116-0.849,14.433c4.993,2.773,12.997,2.744,17.918-0.098c1.897-1.096,3.064-2.457,3.516-3.881
			C67.083,39.085,67.08,39.049,67.077,39.015z"/>
		<path fill="#F4B13B" d="M62.858,20.364c-4.588-2.65-12.093-2.65-16.681,0c-4.592,2.648-4.592,6.982,0,9.631
			c4.588,2.651,12.093,2.651,16.681,0C67.448,27.347,67.448,23.013,62.858,20.364z"/>
		<path fill="#F4B13B" d="M63.466,45.185c-4.923,2.846-12.974,2.846-17.895,0c-2.348-1.354-3.572-3.119-3.683-4.902
			c-0.12,1.959,1.105,3.941,3.683,5.428c4.921,2.844,12.972,2.844,17.895,0c2.575-1.486,3.801-3.469,3.681-5.428
			C67.037,42.065,65.812,43.831,63.466,45.185z"/>
		<path fill="#F4B13B" d="M65.545,64.233c-6.065,3.504-15.987,3.504-22.053,0c-2.893-1.669-4.403-3.844-4.537-6.043
			c-0.149,2.414,1.361,4.858,4.537,6.69c6.065,3.503,15.987,3.503,22.053,0c3.175-1.832,4.685-4.276,4.535-6.69
			C69.946,60.39,68.437,62.564,65.545,64.233z"/>
		<path fill="#EDA411" d="M46.178,29.995c4.588,2.651,12.093,2.651,16.681,0c4.59-2.648,4.59-6.982,0-9.631"/>
		<path fill="#25343A" d="M61.355,21.141c-3.762-2.173-9.913-2.173-13.675,0c-3.763,2.171-3.763,5.724,0,7.896
			c3.762,2.172,9.913,2.172,13.675,0S65.117,23.312,61.355,21.141z"/>
		<path fill="#1C2B30" d="M59.695,23.453c-2.849-1.646-7.507-1.646-10.355,0c-2.848,1.644-2.848,4.334,0,5.978
			c2.849,1.645,7.507,1.645,10.355,0C62.543,27.787,62.543,25.097,59.695,23.453z"/>
		<path fill="#081316" d="M57.938,25.899c-1.883-1.087-4.96-1.087-6.842,0s-1.882,2.863,0,3.95s4.959,1.087,6.842,0
			C59.82,28.763,59.82,26.986,57.938,25.899z"/>
	</g>
	<g>
		<g>
			<g>
				<g>
					<g>
						<g>
							<g>
								<g>
									<polygon fill="#BF3600" points="120.363,87.761 101.464,98.674 101.464,81.013 112.298,68.903 120.363,70.439 									"/>
									<polygon fill="#EF990F" points="101.464,74.749 82.561,70.439 82.561,87.761 101.464,98.674 									"/>
									<polygon fill="#DB5A03" points="120.363,86.123 101.464,97.036 101.464,85.981 112.298,67.265 120.363,68.802 									"/>
									<polyline fill="#C14E00" points="101.464,97.036 101.464,79.717 112.298,67.265 120.363,68.802 									"/>
									<polyline fill="#BF3600" points="101.464,79.717 112.298,71.021 120.363,68.802 									"/>
									<polygon fill="#EDA411" points="101.464,85.981 82.561,68.802 82.561,86.123 101.464,97.036 									"/>
									<polyline fill="#EF990F" points="101.464,97.036 101.464,79.717 82.561,68.802 									"/>
									<polygon fill="#2A3D42" points="112.298,67.265 93.362,60.09 82.561,68.802 101.464,79.717 									"/>
									<polyline fill="#25343A" points="101.464,79.717 112.298,71.021 93.362,60.09 									"/>
									<polygon fill="#1C2B30" points="93.362,60.09 101.464,57.889 120.363,68.802 112.298,71.021 									"/>
									<polygon fill="#0D1619" points="99.678,58.374 99.678,63.735 105.258,66.958 105.258,60.08 101.464,57.889 									"/>
									<polyline fill="#0D1619" points="120.363,68.802 112.298,71.021 93.362,60.09 									"/>
								</g>
							</g>
						</g>
						<g opacity="0.4">
							<g>
								<g>
									<line fill="#847D6F" x1="120.363" y1="81.026" x2="101.464" y2="91.94"/>
									<path fill="#847D6F" d="M101.464,92.002c-0.022,0-0.044-0.011-0.054-0.03c-0.019-0.029-0.009-0.068,0.021-0.084
										l18.903-10.914c0.029-0.016,0.068-0.009,0.086,0.024c0.016,0.028,0.005,0.067-0.024,0.084l-18.9,10.913
										C101.484,92,101.474,92.002,101.464,92.002z"/>
								</g>
								<g>
									<line fill="#847D6F" x1="82.561" y1="81.026" x2="101.464" y2="91.94"/>
									<path fill="#847D6F" d="M101.464,92.002c-0.011,0-0.022-0.002-0.033-0.007L82.528,81.082
										c-0.028-0.017-0.038-0.056-0.021-0.084c0.018-0.033,0.056-0.04,0.086-0.024l18.902,10.914
										c0.028,0.016,0.04,0.055,0.021,0.084C101.506,91.991,101.484,92.002,101.464,92.002z"/>
								</g>
							</g>
							<g>
								<g>
									<g>
										<line fill="#847D6F" x1="120.363" y1="87.761" x2="101.464" y2="98.674"/>
										<path fill="#847D6F" d="M101.464,98.733c-0.022,0-0.044-0.008-0.054-0.029c-0.019-0.028-0.009-0.066,0.021-0.084
											l18.903-10.912c0.029-0.018,0.068-0.008,0.086,0.021c0.016,0.029,0.005,0.07-0.024,0.088l-18.9,10.912
											C101.484,98.731,101.474,98.733,101.464,98.733z"/>
									</g>
									<g>
										<line fill="#847D6F" x1="82.561" y1="87.761" x2="101.464" y2="98.674"/>
										<path fill="#847D6F" d="M101.464,98.733c-0.011,0-0.022-0.002-0.033-0.004L82.528,87.817
											c-0.028-0.018-0.038-0.059-0.021-0.088c0.018-0.029,0.056-0.039,0.086-0.021l18.902,10.912
											c0.028,0.018,0.04,0.056,0.021,0.084C101.506,98.726,101.484,98.733,101.464,98.733z"/>
									</g>
								</g>
								<g>
									<g>
										<line fill="#847D6F" x1="120.363" y1="86.92" x2="101.464" y2="97.833"/>
										<path fill="#847D6F" d="M101.464,97.896c-0.022,0-0.044-0.011-0.054-0.033c-0.019-0.028-0.009-0.067,0.021-0.086
											l18.903-10.91c0.029-0.016,0.068-0.008,0.086,0.022c0.016,0.027,0.005,0.07-0.024,0.085l-18.9,10.914
											C101.484,97.892,101.474,97.896,101.464,97.896z"/>
									</g>
									<g>
										<line fill="#847D6F" x1="82.561" y1="86.92" x2="101.464" y2="97.833"/>
										<path fill="#847D6F" d="M101.464,97.896c-0.011,0-0.022-0.004-0.033-0.008L82.528,86.974
											c-0.028-0.015-0.038-0.058-0.021-0.085c0.018-0.03,0.056-0.038,0.086-0.022l18.902,10.91
											c0.028,0.019,0.04,0.058,0.021,0.086C101.506,97.885,101.484,97.896,101.464,97.896z"/>
									</g>
								</g>
								<g>
									<g>
										<line fill="#847D6F" x1="120.363" y1="86.078" x2="101.464" y2="96.991"/>
										<path fill="#847D6F" d="M101.464,97.052c-0.022,0-0.044-0.011-0.054-0.029c-0.019-0.031-0.009-0.068,0.021-0.086
											l18.903-10.912c0.029-0.018,0.068-0.01,0.086,0.021c0.016,0.031,0.005,0.069-0.024,0.088l-18.9,10.909
											C101.484,97.05,101.474,97.052,101.464,97.052z"/>
									</g>
									<g>
										<line fill="#847D6F" x1="82.561" y1="86.078" x2="101.464" y2="96.991"/>
										<path fill="#847D6F" d="M101.464,97.052c-0.011,0-0.022-0.002-0.033-0.009L82.528,86.134
											c-0.028-0.019-0.038-0.057-0.021-0.088c0.018-0.031,0.056-0.039,0.086-0.021l18.902,10.912
											c0.028,0.018,0.04,0.055,0.021,0.086C101.506,97.041,101.484,97.052,101.464,97.052z"/>
									</g>
								</g>
								<g>
									<g>
										<line fill="#847D6F" x1="120.363" y1="85.235" x2="101.464" y2="96.147"/>
										<path fill="#847D6F" d="M101.464,96.212c-0.022,0-0.044-0.01-0.054-0.031c-0.019-0.03-0.009-0.068,0.021-0.088
											l18.903-10.91c0.029-0.016,0.068-0.008,0.086,0.021c0.016,0.029,0.005,0.07-0.024,0.088l-18.9,10.911
											C101.484,96.21,101.474,96.212,101.464,96.212z"/>
									</g>
									<g>
										<line fill="#847D6F" x1="82.561" y1="85.235" x2="101.464" y2="96.147"/>
										<path fill="#847D6F" d="M101.464,96.212c-0.011,0-0.022-0.002-0.033-0.009L82.528,85.292
											c-0.028-0.018-0.038-0.059-0.021-0.088c0.018-0.029,0.056-0.037,0.086-0.021l18.902,10.91
											c0.028,0.02,0.04,0.058,0.021,0.088C101.506,96.202,101.484,96.212,101.464,96.212z"/>
									</g>
								</g>
								<g>
									<g>
										<line fill="#847D6F" x1="120.363" y1="84.395" x2="101.464" y2="95.306"/>
										<path fill="#847D6F" d="M101.464,95.37c-0.022,0-0.044-0.012-0.054-0.031c-0.019-0.033-0.009-0.067,0.021-0.088
											l18.903-10.908c0.029-0.021,0.068-0.01,0.086,0.021c0.016,0.031,0.005,0.068-0.024,0.087l-18.9,10.91
											C101.484,95.368,101.474,95.37,101.464,95.37z"/>
									</g>
									<g>
										<line fill="#847D6F" x1="82.561" y1="84.395" x2="101.464" y2="95.306"/>
										<path fill="#847D6F" d="M101.464,95.37c-0.011,0-0.022-0.002-0.033-0.01L82.528,84.45
											c-0.028-0.019-0.038-0.056-0.021-0.087c0.018-0.03,0.056-0.041,0.086-0.021l18.902,10.908
											c0.028,0.021,0.04,0.055,0.021,0.088C101.506,95.358,101.484,95.37,101.464,95.37z"/>
									</g>
								</g>
								<g>
									<g>
										<line fill="#847D6F" x1="120.363" y1="83.554" x2="101.464" y2="94.466"/>
										<path fill="#847D6F" d="M101.464,94.53c-0.022,0-0.044-0.013-0.054-0.033c-0.019-0.029-0.009-0.068,0.021-0.086
											l18.903-10.912c0.029-0.018,0.068-0.008,0.086,0.023c0.016,0.028,0.005,0.066-0.024,0.084l-18.9,10.913
											C101.484,94.523,101.474,94.53,101.464,94.53z"/>
									</g>
									<g>
										<line fill="#847D6F" x1="82.561" y1="83.554" x2="101.464" y2="94.466"/>
										<path fill="#847D6F" d="M101.464,94.53c-0.011,0-0.022-0.007-0.033-0.011L82.528,83.606
											c-0.028-0.018-0.038-0.056-0.021-0.084c0.018-0.031,0.056-0.041,0.086-0.023l18.902,10.912
											c0.028,0.018,0.04,0.057,0.021,0.086C101.506,94.518,101.484,94.53,101.464,94.53z"/>
									</g>
								</g>
								<g>
									<g>
										<line fill="#847D6F" x1="120.363" y1="82.712" x2="101.464" y2="93.624"/>
										<path fill="#847D6F" d="M101.464,93.687c-0.022,0-0.044-0.012-0.054-0.031c-0.019-0.031-0.009-0.066,0.021-0.086
											l18.903-10.914c0.029-0.016,0.068-0.006,0.086,0.026c0.016,0.03,0.005,0.065-0.024,0.086l-18.9,10.911
											C101.484,93.683,101.474,93.687,101.464,93.687z"/>
									</g>
									<g>
										<line fill="#847D6F" x1="82.561" y1="82.712" x2="101.464" y2="93.624"/>
										<path fill="#847D6F" d="M101.464,93.687c-0.011,0-0.022-0.004-0.033-0.008L82.528,82.768
											c-0.028-0.021-0.038-0.056-0.021-0.086c0.018-0.032,0.056-0.042,0.086-0.026l18.902,10.914
											c0.028,0.02,0.04,0.055,0.021,0.086C101.506,93.675,101.484,93.687,101.464,93.687z"/>
									</g>
								</g>
								<g>
									<g>
										<line fill="#847D6F" x1="120.363" y1="81.87" x2="101.464" y2="92.782"/>
										<path fill="#847D6F" d="M101.464,92.845c-0.022,0-0.044-0.011-0.054-0.031c-0.019-0.029-0.009-0.07,0.021-0.086
											l18.903-10.912c0.029-0.017,0.068-0.007,0.086,0.023c0.016,0.029,0.005,0.066-0.024,0.086l-18.9,10.909
											C101.484,92.842,101.474,92.845,101.464,92.845z"/>
									</g>
									<g>
										<line fill="#847D6F" x1="82.561" y1="81.87" x2="101.464" y2="92.782"/>
										<path fill="#847D6F" d="M101.464,92.845c-0.011,0-0.022-0.003-0.033-0.011L82.528,81.925
											c-0.028-0.02-0.038-0.057-0.021-0.086c0.018-0.03,0.056-0.04,0.086-0.023l18.902,10.912
											c0.028,0.016,0.04,0.057,0.021,0.086C101.506,92.834,101.484,92.845,101.464,92.845z"/>
									</g>
								</g>
								<g>
									<g>
										<line fill="#847D6F" x1="120.363" y1="80.187" x2="101.464" y2="91.097"/>
										<path fill="#847D6F" d="M101.464,91.162c-0.022,0-0.044-0.01-0.054-0.032c-0.019-0.029-0.009-0.07,0.021-0.085
											l18.903-10.914c0.029-0.014,0.068-0.006,0.086,0.025c0.016,0.028,0.005,0.067-0.024,0.085l-18.9,10.911
											C101.484,91.158,101.474,91.162,101.464,91.162z"/>
									</g>
									<g>
										<line fill="#847D6F" x1="82.561" y1="80.187" x2="101.464" y2="91.097"/>
										<path fill="#847D6F" d="M101.464,91.162c-0.011,0-0.022-0.004-0.033-0.01L82.528,80.241
											c-0.028-0.018-0.038-0.057-0.021-0.085c0.018-0.031,0.056-0.039,0.086-0.025l18.902,10.914
											c0.028,0.015,0.04,0.056,0.021,0.085C101.506,91.152,101.484,91.162,101.464,91.162z"/>
									</g>
								</g>
								<g>
									<g>
										<line fill="#847D6F" x1="120.363" y1="79.345" x2="101.464" y2="90.257"/>
										<path fill="#847D6F" d="M101.464,90.319c-0.022,0-0.044-0.01-0.054-0.029c-0.019-0.031-0.009-0.07,0.021-0.085
											l18.903-10.913c0.029-0.018,0.068-0.01,0.086,0.021c0.016,0.031,0.005,0.068-0.024,0.085l-18.9,10.914
											C101.484,90.317,101.474,90.319,101.464,90.319z"/>
									</g>
									<g>
										<line fill="#847D6F" x1="82.561" y1="79.345" x2="101.464" y2="90.257"/>
										<path fill="#847D6F" d="M101.464,90.319c-0.011,0-0.022-0.002-0.033-0.007L82.528,79.398
											c-0.028-0.017-0.038-0.054-0.021-0.085c0.018-0.031,0.056-0.039,0.086-0.021l18.902,10.913
											c0.028,0.015,0.04,0.054,0.021,0.085C101.506,90.31,101.484,90.319,101.464,90.319z"/>
									</g>
								</g>
								<g>
									<g>
										<line fill="#847D6F" x1="120.363" y1="78.503" x2="101.464" y2="89.415"/>
										<path fill="#847D6F" d="M101.464,89.479c-0.022,0-0.044-0.015-0.054-0.03c-0.019-0.031-0.009-0.07,0.021-0.088
											l18.903-10.911c0.029-0.019,0.068-0.006,0.086,0.024c0.016,0.027,0.005,0.066-0.024,0.085l-18.9,10.911
											C101.484,89.475,101.474,89.479,101.464,89.479z"/>
									</g>
									<g>
										<line fill="#847D6F" x1="82.561" y1="78.503" x2="101.464" y2="89.415"/>
										<path fill="#847D6F" d="M101.464,89.479c-0.011,0-0.022-0.004-0.033-0.009L82.528,78.559
											c-0.028-0.019-0.038-0.058-0.021-0.085c0.018-0.03,0.056-0.043,0.086-0.024l18.902,10.911
											c0.028,0.018,0.04,0.057,0.021,0.088C101.506,89.464,101.484,89.479,101.464,89.479z"/>
									</g>
								</g>
								<g>
									<g>
										<line fill="#847D6F" x1="120.363" y1="77.659" x2="101.464" y2="88.573"/>
										<path fill="#847D6F" d="M101.464,88.636c-0.022,0-0.044-0.012-0.054-0.032c-0.019-0.03-0.009-0.065,0.021-0.082
											l18.903-10.915c0.029-0.016,0.068-0.007,0.086,0.023c0.016,0.029,0.005,0.068-0.024,0.086l-18.9,10.913
											C101.484,88.634,101.474,88.636,101.464,88.636z"/>
									</g>
									<g>
										<line fill="#847D6F" x1="82.561" y1="77.659" x2="101.464" y2="88.573"/>
										<path fill="#847D6F" d="M101.464,88.636c-0.011,0-0.022-0.002-0.033-0.007L82.528,77.716
											c-0.028-0.018-0.038-0.057-0.021-0.086c0.018-0.03,0.056-0.039,0.086-0.023l18.902,10.915
											c0.028,0.017,0.04,0.052,0.021,0.082C101.506,88.624,101.484,88.636,101.464,88.636z"/>
									</g>
								</g>
								<g>
									<g>
										<line fill="#847D6F" x1="120.363" y1="76.819" x2="101.464" y2="87.731"/>
										<path fill="#847D6F" d="M101.464,87.795c-0.022,0-0.044-0.011-0.054-0.032c-0.019-0.029-0.009-0.068,0.021-0.084
											l18.903-10.912c0.029-0.02,0.068-0.008,0.086,0.02c0.016,0.031,0.005,0.072-0.024,0.086l-18.9,10.912
											C101.484,87.791,101.474,87.795,101.464,87.795z"/>
									</g>
									<g>
										<line fill="#847D6F" x1="82.561" y1="76.819" x2="101.464" y2="87.731"/>
										<path fill="#847D6F" d="M101.464,87.795c-0.011,0-0.022-0.004-0.033-0.011L82.528,76.872
											c-0.028-0.014-0.038-0.055-0.021-0.086c0.018-0.027,0.056-0.039,0.086-0.02l18.902,10.912
											c0.028,0.016,0.04,0.055,0.021,0.084C101.506,87.784,101.484,87.795,101.464,87.795z"/>
									</g>
								</g>
								<g>
									<g>
										<line fill="#847D6F" x1="120.363" y1="75.978" x2="101.464" y2="86.89"/>
										<path fill="#847D6F" d="M101.464,86.954c-0.022,0-0.044-0.014-0.054-0.031c-0.019-0.033-0.009-0.068,0.021-0.085
											l18.903-10.913c0.029-0.018,0.068-0.009,0.086,0.021c0.016,0.029,0.005,0.068-0.024,0.087l-18.9,10.911
											C101.484,86.952,101.474,86.954,101.464,86.954z"/>
									</g>
									<g>
										<line fill="#847D6F" x1="82.561" y1="75.978" x2="101.464" y2="86.89"/>
										<path fill="#847D6F" d="M101.464,86.954c-0.011,0-0.022-0.002-0.033-0.01L82.528,76.033
											c-0.028-0.019-0.038-0.058-0.021-0.087c0.018-0.03,0.056-0.039,0.086-0.021l18.902,10.913
											c0.028,0.017,0.04,0.052,0.021,0.085C101.506,86.94,101.484,86.954,101.464,86.954z"/>
									</g>
								</g>
								<g>
									<g>
										<line fill="#847D6F" x1="120.363" y1="75.136" x2="101.464" y2="86.047"/>
										<path fill="#847D6F" d="M101.464,86.112c-0.022,0-0.044-0.014-0.054-0.032c-0.019-0.031-0.009-0.067,0.021-0.085
											l18.903-10.914c0.029-0.016,0.068-0.005,0.086,0.023c0.016,0.029,0.005,0.07-0.024,0.086l-18.9,10.912
											C101.484,86.108,101.474,86.112,101.464,86.112z"/>
									</g>
									<g>
										<line fill="#847D6F" x1="82.561" y1="75.136" x2="101.464" y2="86.047"/>
										<path fill="#847D6F" d="M101.464,86.112c-0.011,0-0.022-0.004-0.033-0.01L82.528,75.19
											c-0.028-0.016-0.038-0.057-0.021-0.086c0.018-0.028,0.056-0.039,0.086-0.023l18.902,10.914
											c0.028,0.018,0.04,0.054,0.021,0.085C101.506,86.099,101.484,86.112,101.464,86.112z"/>
									</g>
								</g>
							</g>
						</g>
						<g>
							<g>
								<polygon fill="#3AA3D8" points="95.177,79.806 96.995,80.86 96.995,79.341 95.177,78.283 								"/>
								<polygon fill="#2585CC" points="95.36,79.704 96.995,80.649 96.995,79.341 95.36,78.393 								"/>
								<polyline fill="#1676BF" points="96.995,80.649 96.995,79.341 95.36,78.393 								"/>
								<polygon fill="#4DBBFF" points="95.36,79.17 96.995,80.113 96.995,80.011 95.36,79.072 								"/>
								<polygon fill="#4DBBFF" points="95.36,78.825 96.995,79.767 96.995,79.669 95.36,78.728 								"/>
								<polygon fill="#4DBBFF" points="95.36,78.483 96.995,79.431 96.995,79.326 95.36,78.384 								"/>
							</g>
							<g>
								<polygon fill="#3AA3D8" points="97.754,81.29 99.575,82.343 99.575,80.823 97.754,79.767 								"/>
								<polygon fill="#2585CC" points="97.942,81.191 99.575,82.134 99.575,80.823 97.942,79.875 								"/>
								<polyline fill="#1676BF" points="99.575,82.134 99.575,80.823 97.942,79.875 								"/>
								<polygon fill="#4DBBFF" points="97.942,80.653 99.575,81.597 99.575,81.495 97.942,80.554 								"/>
								<polygon fill="#4DBBFF" points="97.942,80.31 99.575,81.253 99.575,81.152 97.942,80.21 								"/>
								<polygon fill="#4DBBFF" points="97.942,79.968 99.575,80.912 99.575,80.81 97.942,79.868 								"/>
							</g>
						</g>
						<g>
							<g>
								<polygon fill="#3AA3D8" points="89.67,76.618 91.487,77.673 91.487,76.153 89.67,75.097 								"/>
								<polygon fill="#2585CC" points="89.852,76.52 91.487,77.464 91.487,76.153 89.852,75.206 								"/>
								<polyline fill="#1676BF" points="91.487,77.464 91.487,76.153 89.852,75.206 								"/>
								<polygon fill="#4DBBFF" points="89.852,75.983 91.487,76.924 91.487,76.825 89.852,75.885 								"/>
								<polygon fill="#4DBBFF" points="89.852,75.64 91.487,76.579 91.487,76.481 89.852,75.536 								"/>
								<polygon fill="#4DBBFF" points="89.852,75.298 91.487,76.241 91.487,76.14 89.852,75.196 								"/>
							</g>
							<g>
								<polygon fill="#3AA3D8" points="92.246,78.101 94.067,79.156 94.067,77.635 92.246,76.579 								"/>
								<polygon fill="#2585CC" points="92.435,78.004 94.067,78.946 94.067,77.635 92.435,76.689 								"/>
								<polyline fill="#1676BF" points="94.067,78.946 94.067,77.635 92.435,76.689 								"/>
								<polygon fill="#4DBBFF" points="92.435,77.466 94.067,78.407 94.067,78.308 92.435,77.364 								"/>
								<polygon fill="#4DBBFF" points="92.435,77.122 94.067,78.065 94.067,77.965 92.435,77.022 								"/>
								<polygon fill="#4DBBFF" points="92.435,76.782 94.067,77.725 94.067,77.622 92.435,76.682 								"/>
							</g>
						</g>
						<g>
							<g>
								<polygon fill="#3AA3D8" points="84.162,73.431 85.98,74.484 85.98,72.965 84.162,71.911 								"/>
								<polygon fill="#2585CC" points="84.345,73.335 85.98,74.277 85.98,72.965 84.345,72.019 								"/>
								<polyline fill="#1676BF" points="85.98,74.277 85.98,72.965 84.345,72.019 								"/>
								<polygon fill="#4DBBFF" points="84.345,72.796 85.98,73.737 85.98,73.641 84.345,72.696 								"/>
								<polygon fill="#4DBBFF" points="84.345,72.449 85.98,73.392 85.98,73.294 84.345,72.351 								"/>
								<polygon fill="#4DBBFF" points="84.345,72.11 85.98,73.052 85.98,72.954 84.345,72.007 								"/>
							</g>
							<g>
								<polygon fill="#3AA3D8" points="86.739,74.915 88.56,75.967 88.56,74.447 86.739,73.392 								"/>
								<polygon fill="#2585CC" points="86.927,74.817 88.56,75.761 88.56,74.447 86.927,73.503 								"/>
								<polyline fill="#1676BF" points="88.56,75.761 88.56,74.447 86.927,73.503 								"/>
								<polygon fill="#4DBBFF" points="86.927,74.279 88.56,75.22 88.56,75.12 86.927,74.179 								"/>
								<polygon fill="#4DBBFF" points="86.927,73.937 88.56,74.878 88.56,74.778 86.927,73.837 								"/>
								<polygon fill="#4DBBFF" points="86.927,73.597 88.56,74.538 88.56,74.436 86.927,73.495 								"/>
							</g>
						</g>
						<g>
							<g>
								<polygon fill="#3AA3D8" points="95.177,83.753 96.995,84.807 96.995,83.288 95.177,82.231 								"/>
								<polygon fill="#2585CC" points="95.36,83.651 96.995,84.597 96.995,83.288 95.36,82.339 								"/>
								<polyline fill="#1676BF" points="96.995,84.597 96.995,83.288 95.36,82.339 								"/>
								<polygon fill="#4DBBFF" points="95.36,83.117 96.995,84.062 96.995,83.959 95.36,83.019 								"/>
								<polygon fill="#4DBBFF" points="95.36,82.772 96.995,83.715 96.995,83.616 95.36,82.674 								"/>
								<polygon fill="#4DBBFF" points="95.36,82.432 96.995,83.378 96.995,83.273 95.36,82.329 								"/>
							</g>
							<g>
								<polygon fill="#3AA3D8" points="97.754,85.237 99.575,86.289 99.575,84.771 97.754,83.715 								"/>
								<polygon fill="#2585CC" points="97.942,85.138 99.575,86.08 99.575,84.771 97.942,83.821 								"/>
								<polyline fill="#1676BF" points="99.575,86.08 99.575,84.771 97.942,83.821 								"/>
								<polygon fill="#4DBBFF" points="97.942,84.601 99.575,85.542 99.575,85.441 97.942,84.499 								"/>
								<polygon fill="#4DBBFF" points="97.942,84.257 99.575,85.199 99.575,85.101 97.942,84.157 								"/>
								<polygon fill="#4DBBFF" points="97.942,83.915 99.575,84.858 99.575,84.758 97.942,83.817 								"/>
							</g>
						</g>
						<g>
							<g>
								<polygon fill="#3AA3D8" points="89.67,80.564 91.487,81.62 91.487,80.101 89.67,79.044 								"/>
								<polygon fill="#2585CC" points="89.852,80.466 91.487,81.41 91.487,80.101 89.852,79.153 								"/>
								<polyline fill="#1676BF" points="91.487,81.41 91.487,80.101 89.852,79.153 								"/>
								<polygon fill="#4DBBFF" points="89.852,79.931 91.487,80.872 91.487,80.772 89.852,79.832 								"/>
								<polygon fill="#4DBBFF" points="89.852,79.587 91.487,80.527 91.487,80.429 89.852,79.484 								"/>
								<polygon fill="#4DBBFF" points="89.852,79.245 91.487,80.188 91.487,80.087 89.852,79.144 								"/>
							</g>
							<g>
								<polygon fill="#3AA3D8" points="92.246,82.049 94.067,83.103 94.067,81.583 92.246,80.527 								"/>
								<polygon fill="#2585CC" points="92.435,81.951 94.067,82.894 94.067,81.583 92.435,80.638 								"/>
								<polyline fill="#1676BF" points="94.067,82.894 94.067,81.583 92.435,80.638 								"/>
								<polygon fill="#4DBBFF" points="92.435,81.415 94.067,82.355 94.067,82.255 92.435,81.312 								"/>
								<polygon fill="#4DBBFF" points="92.435,81.069 94.067,82.013 94.067,81.912 92.435,80.97 								"/>
								<polygon fill="#4DBBFF" points="92.435,80.728 94.067,81.672 94.067,81.57 92.435,80.63 								"/>
							</g>
						</g>
						<g>
							<g>
								<polygon fill="#3AA3D8" points="84.162,77.378 85.98,78.431 85.98,76.911 84.162,75.856 								"/>
								<polygon fill="#2585CC" points="84.345,77.281 85.98,78.224 85.98,76.911 84.345,75.967 								"/>
								<polyline fill="#1676BF" points="85.98,78.224 85.98,76.911 84.345,75.967 								"/>
								<polygon fill="#4DBBFF" points="84.345,76.743 85.98,77.685 85.98,77.587 84.345,76.644 								"/>
								<polygon fill="#4DBBFF" points="84.345,76.397 85.98,77.339 85.98,77.242 84.345,76.298 								"/>
								<polygon fill="#4DBBFF" points="84.345,76.06 85.98,76.999 85.98,76.901 84.345,75.955 								"/>
							</g>
							<g>
								<polygon fill="#3AA3D8" points="86.739,78.862 88.56,79.915 88.56,78.396 86.739,77.339 								"/>
								<polygon fill="#2585CC" points="86.927,78.765 88.56,79.708 88.56,78.396 86.927,77.45 								"/>
								<polyline fill="#1676BF" points="88.56,79.708 88.56,78.396 86.927,77.45 								"/>
								<polygon fill="#4DBBFF" points="86.927,78.228 88.56,79.166 88.56,79.067 86.927,78.126 								"/>
								<polygon fill="#4DBBFF" points="86.927,77.883 88.56,78.825 88.56,78.726 86.927,77.784 								"/>
								<polygon fill="#4DBBFF" points="86.927,77.544 88.56,78.485 88.56,78.384 86.927,77.442 								"/>
							</g>
						</g>
					</g>
					<g>
						<polygon fill="#EDA411" points="99.678,42.483 102.469,44.095 102.469,63.62 99.678,62.009 						"/>
						<polygon fill="#DB5A03" points="105.258,42.483 102.469,44.095 102.469,63.62 105.258,62.009 						"/>
						<polyline fill="#C14E00" points="105.258,42.483 102.469,44.095 102.469,63.62 						"/>
						<g>
							<polygon fill="#D16822" points="102.469,40.874 105.257,42.485 102.469,44.093 99.683,42.485 							"/>
						</g>
						<g>
							<polygon fill="#25343A" points="102.469,41.396 104.354,42.485 102.469,43.572 100.585,42.485 							"/>
						</g>
						<g>
							<polyline fill="#0D1619" points="102.469,41.396 104.354,42.485 102.469,43.572 							"/>
						</g>
					</g>
				</g>
				<g>
					<polygon fill="#6FAEDD" points="85.008,82.653 85.008,89.088 98.803,97.048 98.803,90.62 					"/>
					<polygon fill="#3AA3D8" points="85.266,88.968 98.803,96.782 98.803,90.62 85.266,82.804 					"/>
					<polyline fill="#1D96CC" points="98.803,96.782 98.803,90.62 85.266,82.804 					"/>
					<polygon opacity="0.6" fill="#3AA3D8" points="88.921,91.294 94.888,94.737 94.888,88.437 88.921,84.99 					"/>
					<polygon opacity="0.6" fill="#3AA3D8" points="91.906,86.702 91.693,86.583 91.693,92.885 91.906,93.009 					"/>
				</g>
			</g>
			<g>
				<polygon fill="#EF990F" points="118.833,78.449 110.321,83.408 110.321,93.581 118.833,88.665 				"/>
				<polygon fill="#0D1619" points="118.436,88.896 110.321,93.581 110.321,83.408 118.436,78.682 				"/>
				<polyline fill="#25343A" points="118.436,88.896 110.321,93.581 110.321,84.419 				"/>
				<polygon fill="#566860" points="118.436,85.11 110.321,89.796 110.321,83.408 118.436,78.682 				"/>
				<polyline fill="#323F38" points="110.321,89.796 110.321,83.408 118.436,78.682 				"/>
				<polygon fill="#6A7F75" points="118.436,84.598 110.321,89.284 110.321,88.966 118.436,84.281 				"/>
				<polygon fill="#6A7F75" points="118.436,83.948 110.321,88.634 110.321,88.316 118.436,83.631 				"/>
				<polygon fill="#6A7F75" points="118.436,83.298 110.321,87.983 110.321,87.667 118.436,82.981 				"/>
				<polygon fill="#6A7F75" points="118.436,82.651 110.321,87.335 110.321,87.017 118.436,82.333 				"/>
				<polygon fill="#6A7F75" points="118.436,82.002 110.321,86.686 110.321,86.367 118.436,81.683 				"/>
				<polygon fill="#6A7F75" points="118.436,81.351 110.321,86.035 110.321,85.718 118.436,81.032 				"/>
				<polygon fill="#6A7F75" points="118.436,80.702 110.321,85.388 110.321,85.067 118.436,80.382 				"/>
				<polygon fill="#6A7F75" points="118.436,80.051 110.321,84.739 110.321,84.419 118.436,79.735 				"/>
				<polygon fill="#6A7F75" points="118.436,79.401 110.321,84.089 110.321,83.771 118.436,79.086 				"/>
			</g>
		</g>
		<g>
			<g>
				<g>
					<g>
						<g>
							<g>
								<g>
									<polygon fill="#BF3600" points="101.073,98.796 82.172,109.709 82.172,92.047 93.006,79.937 101.073,81.475 									"/>
									<polygon fill="#EF990F" points="82.172,85.784 63.27,81.475 63.27,98.796 82.172,109.709 									"/>
									<polygon fill="#DB5A03" points="101.073,97.158 82.172,108.071 82.172,97.017 93.006,78.298 101.073,79.837 									"/>
									<polyline fill="#C14E00" points="82.172,108.071 82.172,90.752 93.006,78.298 101.073,79.837 									"/>
									<polyline fill="#BF3600" points="82.172,90.752 93.006,82.056 101.073,79.837 									"/>
									<polygon fill="#EDA411" points="82.172,97.017 63.27,79.837 63.27,97.158 82.172,108.071 									"/>
									<polyline fill="#EF990F" points="82.172,108.071 82.172,90.752 63.27,79.837 									"/>
									<polygon fill="#2A3D42" points="93.006,78.298 74.071,71.124 63.27,79.837 82.172,90.752 									"/>
									<polyline fill="#25343A" points="82.172,90.752 93.006,82.056 74.071,71.124 									"/>
									<polygon fill="#1C2B30" points="74.071,71.124 82.172,68.924 101.073,79.837 93.006,82.056 									"/>
									<polygon fill="#0D1619" points="80.387,69.409 80.387,74.771 85.967,77.993 85.967,71.114 82.172,68.924 									"/>
									<polyline fill="#0D1619" points="101.073,79.837 93.006,82.056 74.071,71.124 									"/>
								</g>
							</g>
						</g>
						<g opacity="0.4">
							<g>
								<g>
									<line fill="#847D6F" x1="101.073" y1="92.062" x2="82.172" y2="102.976"/>
									<path fill="#847D6F" d="M82.172,103.036c-0.021,0-0.043-0.01-0.054-0.029c-0.018-0.029-0.008-0.068,0.022-0.085
										l18.901-10.913c0.029-0.016,0.068-0.009,0.087,0.024c0.017,0.028,0.006,0.067-0.024,0.084L82.203,103.03
										C82.194,103.035,82.184,103.036,82.172,103.036z"/>
								</g>
								<g>
									<line fill="#847D6F" x1="63.27" y1="92.062" x2="82.172" y2="102.976"/>
									<path fill="#847D6F" d="M82.172,103.036c-0.011,0-0.021-0.001-0.031-0.006L63.238,92.117
										c-0.03-0.017-0.039-0.056-0.022-0.084c0.018-0.033,0.056-0.04,0.087-0.024l18.9,10.913c0.03,0.017,0.041,0.056,0.023,0.085
										C82.215,103.026,82.194,103.036,82.172,103.036z"/>
								</g>
							</g>
							<g>
								<g>
									<g>
										<line fill="#847D6F" x1="101.073" y1="98.796" x2="82.172" y2="109.709"/>
										<path fill="#847D6F" d="M82.172,109.769c-0.021,0-0.043-0.008-0.054-0.029c-0.018-0.029-0.008-0.066,0.022-0.084
											l18.901-10.914c0.029-0.016,0.068-0.006,0.087,0.023c0.017,0.029,0.006,0.07-0.024,0.088l-18.901,10.912
											C82.194,109.767,82.184,109.769,82.172,109.769z"/>
									</g>
									<g>
										<line fill="#847D6F" x1="63.27" y1="98.796" x2="82.172" y2="109.709"/>
										<path fill="#847D6F" d="M82.172,109.769c-0.011,0-0.021-0.002-0.031-0.004L63.238,98.853
											c-0.03-0.018-0.039-0.059-0.022-0.088c0.018-0.029,0.056-0.039,0.087-0.023l18.9,10.914
											c0.03,0.018,0.041,0.055,0.023,0.084C82.215,109.761,82.194,109.769,82.172,109.769z"/>
									</g>
								</g>
								<g>
									<g>
										<line fill="#847D6F" x1="101.073" y1="97.955" x2="82.172" y2="108.867"/>
										<path fill="#847D6F" d="M82.172,108.931c-0.021,0-0.043-0.012-0.054-0.033c-0.018-0.028-0.008-0.067,0.022-0.086
											l18.901-10.91c0.029-0.017,0.068-0.008,0.087,0.021c0.017,0.028,0.006,0.07-0.024,0.086l-18.901,10.913
											C82.194,108.927,82.184,108.931,82.172,108.931z"/>
									</g>
									<g>
										<line fill="#847D6F" x1="63.27" y1="97.955" x2="82.172" y2="108.867"/>
										<path fill="#847D6F" d="M82.172,108.931c-0.011,0-0.021-0.004-0.031-0.009L63.238,98.009
											c-0.03-0.016-0.039-0.058-0.022-0.086c0.018-0.029,0.056-0.038,0.087-0.021l18.9,10.91
											c0.03,0.019,0.041,0.058,0.023,0.086C82.215,108.919,82.194,108.931,82.172,108.931z"/>
									</g>
								</g>
								<g>
									<g>
										<line fill="#847D6F" x1="101.073" y1="97.113" x2="82.172" y2="108.026"/>
										<path fill="#847D6F" d="M82.172,108.087c-0.021,0-0.043-0.011-0.054-0.029c-0.018-0.031-0.008-0.068,0.022-0.086
											l18.901-10.912c0.029-0.018,0.068-0.01,0.087,0.021c0.017,0.031,0.006,0.07-0.024,0.089l-18.901,10.909
											C82.194,108.085,82.184,108.087,82.172,108.087z"/>
									</g>
									<g>
										<line fill="#847D6F" x1="63.27" y1="97.113" x2="82.172" y2="108.026"/>
										<path fill="#847D6F" d="M82.172,108.087c-0.011,0-0.021-0.002-0.031-0.009L63.238,97.169
											c-0.03-0.019-0.039-0.058-0.022-0.089c0.018-0.03,0.056-0.038,0.087-0.021l18.9,10.912
											c0.03,0.018,0.041,0.055,0.023,0.086C82.215,108.076,82.194,108.087,82.172,108.087z"/>
									</g>
								</g>
								<g>
									<g>
										<line fill="#847D6F" x1="101.073" y1="96.271" x2="82.172" y2="107.183"/>
										<path fill="#847D6F" d="M82.172,107.247c-0.021,0-0.043-0.011-0.054-0.031c-0.018-0.031-0.008-0.068,0.022-0.088
											l18.901-10.912c0.029-0.014,0.068-0.006,0.087,0.023c0.017,0.029,0.006,0.07-0.024,0.088l-18.901,10.911
											C82.194,107.245,82.184,107.247,82.172,107.247z"/>
									</g>
									<g>
										<line fill="#847D6F" x1="63.27" y1="96.271" x2="82.172" y2="107.183"/>
										<path fill="#847D6F" d="M82.172,107.247c-0.011,0-0.021-0.002-0.031-0.009L63.238,96.327
											c-0.03-0.018-0.039-0.059-0.022-0.088c0.018-0.029,0.056-0.037,0.087-0.023l18.9,10.912
											c0.03,0.02,0.041,0.057,0.023,0.088C82.215,107.236,82.194,107.247,82.172,107.247z"/>
									</g>
								</g>
								<g>
									<g>
										<line fill="#847D6F" x1="101.073" y1="95.429" x2="82.172" y2="106.341"/>
										<path fill="#847D6F" d="M82.172,106.405c-0.021,0-0.043-0.012-0.054-0.031c-0.018-0.033-0.008-0.068,0.022-0.088
											l18.901-10.91c0.029-0.019,0.068-0.008,0.087,0.022c0.017,0.03,0.006,0.068-0.024,0.087l-18.901,10.91
											C82.194,106.401,82.184,106.405,82.172,106.405z"/>
									</g>
									<g>
										<line fill="#847D6F" x1="63.27" y1="95.429" x2="82.172" y2="106.341"/>
										<path fill="#847D6F" d="M82.172,106.405c-0.011,0-0.021-0.004-0.031-0.01l-18.902-10.91
											c-0.03-0.019-0.039-0.057-0.022-0.087c0.018-0.03,0.056-0.041,0.087-0.022l18.9,10.91c0.03,0.02,0.041,0.055,0.023,0.088
											C82.215,106.394,82.194,106.405,82.172,106.405z"/>
									</g>
								</g>
								<g>
									<g>
										<line fill="#847D6F" x1="101.073" y1="94.588" x2="82.172" y2="105.501"/>
										<path fill="#847D6F" d="M82.172,105.565c-0.021,0-0.043-0.012-0.054-0.033c-0.018-0.031-0.008-0.07,0.022-0.086
											l18.901-10.912c0.029-0.019,0.068-0.009,0.087,0.023c0.017,0.027,0.006,0.066-0.024,0.084l-18.901,10.912
											C82.194,105.559,82.184,105.565,82.172,105.565z"/>
									</g>
									<g>
										<line fill="#847D6F" x1="63.27" y1="94.588" x2="82.172" y2="105.501"/>
										<path fill="#847D6F" d="M82.172,105.565c-0.011,0-0.021-0.007-0.031-0.012L63.238,94.642
											c-0.03-0.018-0.039-0.057-0.022-0.084c0.018-0.032,0.056-0.042,0.087-0.023l18.9,10.912
											c0.03,0.016,0.041,0.055,0.023,0.086C82.215,105.554,82.194,105.565,82.172,105.565z"/>
									</g>
								</g>
								<g>
									<g>
										<line fill="#847D6F" x1="101.073" y1="93.747" x2="82.172" y2="104.659"/>
										<path fill="#847D6F" d="M82.172,104.722c-0.021,0-0.043-0.012-0.054-0.031c-0.018-0.031-0.008-0.066,0.022-0.086
											l18.901-10.914c0.029-0.016,0.068-0.006,0.087,0.026c0.017,0.03,0.006,0.065-0.024,0.087l-18.901,10.91
											C82.194,104.718,82.184,104.722,82.172,104.722z"/>
									</g>
									<g>
										<line fill="#847D6F" x1="63.27" y1="93.747" x2="82.172" y2="104.659"/>
										<path fill="#847D6F" d="M82.172,104.722c-0.011,0-0.021-0.004-0.031-0.008l-18.902-10.91
											c-0.03-0.021-0.039-0.057-0.022-0.087c0.018-0.032,0.056-0.042,0.087-0.026l18.9,10.914
											c0.03,0.02,0.041,0.055,0.023,0.086C82.215,104.71,82.194,104.722,82.172,104.722z"/>
									</g>
								</g>
								<g>
									<g>
										<line fill="#847D6F" x1="101.073" y1="92.905" x2="82.172" y2="103.817"/>
										<path fill="#847D6F" d="M82.172,103.879c-0.021,0-0.043-0.01-0.054-0.03c-0.018-0.029-0.008-0.07,0.022-0.086
											l18.901-10.912c0.029-0.017,0.068-0.008,0.087,0.023c0.017,0.029,0.006,0.066-0.024,0.086l-18.901,10.909
											C82.194,103.876,82.184,103.879,82.172,103.879z"/>
									</g>
									<g>
										<line fill="#847D6F" x1="63.27" y1="92.905" x2="82.172" y2="103.817"/>
										<path fill="#847D6F" d="M82.172,103.879c-0.011,0-0.021-0.003-0.031-0.01L63.238,92.96
											c-0.03-0.02-0.039-0.057-0.022-0.086c0.018-0.031,0.056-0.04,0.087-0.023l18.9,10.912c0.03,0.016,0.041,0.057,0.023,0.086
											C82.215,103.869,82.194,103.879,82.172,103.879z"/>
									</g>
								</g>
								<g>
									<g>
										<line fill="#847D6F" x1="101.073" y1="91.222" x2="82.172" y2="102.132"/>
										<path fill="#847D6F" d="M82.172,102.197c-0.021,0-0.043-0.01-0.054-0.032c-0.018-0.029-0.008-0.07,0.022-0.085
											l18.901-10.914c0.029-0.014,0.068-0.006,0.087,0.025c0.017,0.028,0.006,0.067-0.024,0.084l-18.901,10.912
											C82.194,102.193,82.184,102.197,82.172,102.197z"/>
									</g>
									<g>
										<line fill="#847D6F" x1="63.27" y1="91.222" x2="82.172" y2="102.132"/>
										<path fill="#847D6F" d="M82.172,102.197c-0.011,0-0.021-0.004-0.031-0.01L63.238,91.275
											c-0.03-0.017-0.039-0.056-0.022-0.084c0.018-0.031,0.056-0.039,0.087-0.025l18.9,10.914
											c0.03,0.015,0.041,0.056,0.023,0.085C82.215,102.188,82.194,102.197,82.172,102.197z"/>
									</g>
								</g>
								<g>
									<g>
										<line fill="#847D6F" x1="101.073" y1="90.38" x2="82.172" y2="101.292"/>
										<path fill="#847D6F" d="M82.172,101.354c-0.021,0-0.043-0.01-0.054-0.03c-0.018-0.03-0.008-0.069,0.022-0.084
											l18.901-10.913c0.029-0.018,0.068-0.01,0.087,0.021c0.017,0.031,0.006,0.068-0.024,0.085l-18.901,10.914
											C82.194,101.353,82.184,101.354,82.172,101.354z"/>
									</g>
									<g>
										<line fill="#847D6F" x1="63.27" y1="90.38" x2="82.172" y2="101.292"/>
										<path fill="#847D6F" d="M82.172,101.354c-0.011,0-0.021-0.002-0.031-0.007L63.238,90.434
											c-0.03-0.017-0.039-0.054-0.022-0.085c0.018-0.031,0.056-0.039,0.087-0.021l18.9,10.913
											c0.03,0.015,0.041,0.054,0.023,0.084C82.215,101.345,82.194,101.354,82.172,101.354z"/>
									</g>
								</g>
								<g>
									<g>
										<line fill="#847D6F" x1="101.073" y1="89.538" x2="82.172" y2="100.45"/>
										<path fill="#847D6F" d="M82.172,100.515c-0.021,0-0.043-0.016-0.054-0.031c-0.018-0.031-0.008-0.07,0.022-0.088
											l18.901-10.911c0.029-0.019,0.068-0.006,0.087,0.024c0.017,0.027,0.006,0.066-0.024,0.084l-18.901,10.912
											C82.194,100.51,82.184,100.515,82.172,100.515z"/>
									</g>
									<g>
										<line fill="#847D6F" x1="63.27" y1="89.538" x2="82.172" y2="100.45"/>
										<path fill="#847D6F" d="M82.172,100.515c-0.011,0-0.021-0.005-0.031-0.01L63.238,89.593
											c-0.03-0.018-0.039-0.057-0.022-0.084c0.018-0.03,0.056-0.043,0.087-0.024l18.9,10.911
											c0.03,0.018,0.041,0.057,0.023,0.088C82.215,100.499,82.194,100.515,82.172,100.515z"/>
									</g>
								</g>
								<g>
									<g>
										<line fill="#847D6F" x1="101.073" y1="88.694" x2="82.172" y2="99.608"/>
										<path fill="#847D6F" d="M82.172,99.671c-0.021,0-0.043-0.014-0.054-0.032c-0.018-0.03-0.008-0.067,0.022-0.083
											l18.901-10.914c0.029-0.016,0.068-0.007,0.087,0.023c0.017,0.029,0.006,0.068-0.024,0.085L82.203,99.663
											C82.194,99.669,82.184,99.671,82.172,99.671z"/>
									</g>
									<g>
										<line fill="#847D6F" x1="63.27" y1="88.694" x2="82.172" y2="99.608"/>
										<path fill="#847D6F" d="M82.172,99.671c-0.011,0-0.021-0.002-0.031-0.008L63.238,88.75
											c-0.03-0.017-0.039-0.056-0.022-0.085c0.018-0.03,0.056-0.039,0.087-0.023l18.9,10.914
											c0.03,0.016,0.041,0.053,0.023,0.083C82.215,99.657,82.194,99.671,82.172,99.671z"/>
									</g>
								</g>
								<g>
									<g>
										<line fill="#847D6F" x1="101.073" y1="87.854" x2="82.172" y2="98.767"/>
										<path fill="#847D6F" d="M82.172,98.83c-0.021,0-0.043-0.013-0.054-0.032c-0.018-0.029-0.008-0.068,0.022-0.085
											l18.901-10.911c0.029-0.02,0.068-0.008,0.087,0.02c0.017,0.031,0.006,0.072-0.024,0.086L82.203,98.819
											C82.194,98.826,82.184,98.83,82.172,98.83z"/>
									</g>
									<g>
										<line fill="#847D6F" x1="63.27" y1="87.854" x2="82.172" y2="98.767"/>
										<path fill="#847D6F" d="M82.172,98.83c-0.011,0-0.021-0.004-0.031-0.011L63.238,87.907
											c-0.03-0.014-0.039-0.055-0.022-0.086c0.018-0.027,0.056-0.039,0.087-0.02l18.9,10.911
											c0.03,0.017,0.041,0.056,0.023,0.085C82.215,98.817,82.194,98.83,82.172,98.83z"/>
									</g>
								</g>
								<g>
									<g>
										<line fill="#847D6F" x1="101.073" y1="87.013" x2="82.172" y2="97.925"/>
										<path fill="#847D6F" d="M82.172,97.988c-0.021,0-0.043-0.013-0.054-0.03c-0.018-0.033-0.008-0.068,0.022-0.085
											l18.901-10.913c0.029-0.018,0.068-0.01,0.087,0.021c0.017,0.029,0.006,0.068-0.024,0.086L82.203,97.979
											C82.194,97.987,82.184,97.988,82.172,97.988z"/>
									</g>
									<g>
										<line fill="#847D6F" x1="63.27" y1="87.013" x2="82.172" y2="97.925"/>
										<path fill="#847D6F" d="M82.172,97.988c-0.011,0-0.021-0.001-0.031-0.009L63.238,87.067
											c-0.03-0.018-0.039-0.057-0.022-0.086c0.018-0.031,0.056-0.039,0.087-0.021l18.9,10.913
											c0.03,0.017,0.041,0.052,0.023,0.085C82.215,97.976,82.194,97.988,82.172,97.988z"/>
									</g>
								</g>
								<g>
									<g>
										<line fill="#847D6F" x1="101.073" y1="86.171" x2="82.172" y2="97.082"/>
										<path fill="#847D6F" d="M82.172,97.147c-0.021,0-0.043-0.014-0.054-0.033c-0.018-0.03-0.008-0.066,0.022-0.084
											l18.901-10.915c0.029-0.015,0.068-0.004,0.087,0.024c0.017,0.029,0.006,0.069-0.024,0.086L82.203,97.138
											C82.194,97.144,82.184,97.147,82.172,97.147z"/>
									</g>
									<g>
										<line fill="#847D6F" x1="63.27" y1="86.171" x2="82.172" y2="97.082"/>
										<path fill="#847D6F" d="M82.172,97.147c-0.011,0-0.021-0.004-0.031-0.01L63.238,86.226
											c-0.03-0.017-0.039-0.057-0.022-0.086c0.018-0.028,0.056-0.039,0.087-0.024l18.9,10.915
											c0.03,0.018,0.041,0.054,0.023,0.084C82.215,97.134,82.194,97.147,82.172,97.147z"/>
									</g>
								</g>
							</g>
						</g>
						<g>
							<g>
								<polygon fill="#3AA3D8" points="75.885,90.84 77.705,91.896 77.705,90.376 75.885,89.318 								"/>
								<polygon fill="#2585CC" points="76.069,90.739 77.705,91.685 77.705,90.376 76.069,89.427 								"/>
								<polyline fill="#1676BF" points="77.705,91.685 77.705,90.376 76.069,89.427 								"/>
								<polygon fill="#4DBBFF" points="76.069,90.205 77.705,91.148 77.705,91.046 76.069,90.106 								"/>
								<polygon fill="#4DBBFF" points="76.069,89.86 77.705,90.802 77.705,90.704 76.069,89.763 								"/>
								<polygon fill="#4DBBFF" points="76.069,89.519 77.705,90.466 77.705,90.361 76.069,89.417 								"/>
							</g>
							<g>
								<polygon fill="#3AA3D8" points="78.464,92.325 80.283,93.378 80.283,91.858 78.464,90.802 								"/>
								<polygon fill="#2585CC" points="78.65,92.226 80.283,93.169 80.283,91.858 78.65,90.91 								"/>
								<polyline fill="#1676BF" points="80.283,93.169 80.283,91.858 78.65,90.91 								"/>
								<polygon fill="#4DBBFF" points="78.65,91.688 80.283,92.631 80.283,92.53 78.65,91.587 								"/>
								<polygon fill="#4DBBFF" points="78.65,91.345 80.283,92.287 80.283,92.187 78.65,91.244 								"/>
								<polygon fill="#4DBBFF" points="78.65,91.003 80.283,91.946 80.283,91.845 78.65,90.903 								"/>
							</g>
						</g>
						<g>
							<g>
								<polygon fill="#3AA3D8" points="70.379,87.651 72.197,88.708 72.197,87.188 70.379,86.132 								"/>
								<polygon fill="#2585CC" points="70.562,87.556 72.197,88.499 72.197,87.188 70.562,86.24 								"/>
								<polyline fill="#1676BF" points="72.197,88.499 72.197,87.188 70.562,86.24 								"/>
								<polygon fill="#4DBBFF" points="70.562,87.019 72.197,87.959 72.197,87.86 70.562,86.92 								"/>
								<polygon fill="#4DBBFF" points="70.562,86.675 72.197,87.614 72.197,87.517 70.562,86.571 								"/>
								<polygon fill="#4DBBFF" points="70.562,86.333 72.197,87.276 72.197,87.175 70.562,86.231 								"/>
							</g>
							<g>
								<polygon fill="#3AA3D8" points="72.956,89.136 74.775,90.191 74.775,88.67 72.956,87.614 								"/>
								<polygon fill="#2585CC" points="73.145,89.039 74.775,89.981 74.775,88.67 73.145,87.725 								"/>
								<polyline fill="#1676BF" points="74.775,89.981 74.775,88.67 73.145,87.725 								"/>
								<polygon fill="#4DBBFF" points="73.145,88.501 74.775,89.442 74.775,89.343 73.145,88.399 								"/>
								<polygon fill="#4DBBFF" points="73.145,88.157 74.775,89.101 74.775,89 73.145,88.058 								"/>
								<polygon fill="#4DBBFF" points="73.145,87.815 74.775,88.76 74.775,88.657 73.145,87.717 								"/>
							</g>
						</g>
						<g>
							<g>
								<polygon fill="#3AA3D8" points="64.871,84.466 66.689,85.52 66.689,83.999 64.871,82.944 								"/>
								<polygon fill="#2585CC" points="65.054,84.369 66.689,85.312 66.689,83.999 65.054,83.054 								"/>
								<polyline fill="#1676BF" points="66.689,85.312 66.689,83.999 65.054,83.054 								"/>
								<polygon fill="#4DBBFF" points="65.054,83.831 66.689,84.772 66.689,84.675 65.054,83.731 								"/>
								<polygon fill="#4DBBFF" points="65.054,83.484 66.689,84.427 66.689,84.329 65.054,83.386 								"/>
								<polygon fill="#4DBBFF" points="65.054,83.146 66.689,84.087 66.689,83.989 65.054,83.042 								"/>
							</g>
							<g>
								<polygon fill="#3AA3D8" points="67.448,85.95 69.269,87.002 69.269,85.482 67.448,84.427 								"/>
								<polygon fill="#2585CC" points="67.636,85.853 69.269,86.796 69.269,85.482 67.636,84.538 								"/>
								<polyline fill="#1676BF" points="69.269,86.796 69.269,85.482 67.636,84.538 								"/>
								<polygon fill="#4DBBFF" points="67.636,85.314 69.269,86.253 69.269,86.155 67.636,85.214 								"/>
								<polygon fill="#4DBBFF" points="67.636,84.972 69.269,85.913 69.269,85.813 67.636,84.872 								"/>
								<polygon fill="#4DBBFF" points="67.636,84.632 69.269,85.573 69.269,85.472 67.636,84.529 								"/>
							</g>
						</g>
						<g>
							<g>
								<polygon fill="#3AA3D8" points="75.885,94.787 77.705,95.841 77.705,94.322 75.885,93.267 								"/>
								<polygon fill="#2585CC" points="76.069,94.687 77.705,95.632 77.705,94.322 76.069,93.374 								"/>
								<polyline fill="#1676BF" points="77.705,95.632 77.705,94.322 76.069,93.374 								"/>
								<polygon fill="#4DBBFF" points="76.069,94.152 77.705,95.097 77.705,94.993 76.069,94.054 								"/>
								<polygon fill="#4DBBFF" points="76.069,93.808 77.705,94.75 77.705,94.651 76.069,93.709 								"/>
								<polygon fill="#4DBBFF" points="76.069,93.466 77.705,94.411 77.705,94.309 76.069,93.364 								"/>
							</g>
							<g>
								<polygon fill="#3AA3D8" points="78.464,96.271 80.283,97.324 80.283,95.806 78.464,94.75 								"/>
								<polygon fill="#2585CC" points="78.65,96.173 80.283,97.114 80.283,95.806 78.65,94.856 								"/>
								<polyline fill="#1676BF" points="80.283,97.114 80.283,95.806 78.65,94.856 								"/>
								<polygon fill="#4DBBFF" points="78.65,95.635 80.283,96.577 80.283,96.477 78.65,95.534 								"/>
								<polygon fill="#4DBBFF" points="78.65,95.292 80.283,96.234 80.283,96.136 78.65,95.192 								"/>
								<polygon fill="#4DBBFF" points="78.65,94.95 80.283,95.894 80.283,95.793 78.65,94.853 								"/>
							</g>
						</g>
						<g>
							<g>
								<polygon fill="#3AA3D8" points="70.379,91.599 72.197,92.655 72.197,91.136 70.379,90.079 								"/>
								<polygon fill="#2585CC" points="70.562,91.501 72.197,92.445 72.197,91.136 70.562,90.187 								"/>
								<polyline fill="#1676BF" points="72.197,92.445 72.197,91.136 70.562,90.187 								"/>
								<polygon fill="#4DBBFF" points="70.562,90.965 72.197,91.907 72.197,91.807 70.562,90.866 								"/>
								<polygon fill="#4DBBFF" points="70.562,90.622 72.197,91.562 72.197,91.464 70.562,90.519 								"/>
								<polygon fill="#4DBBFF" points="70.562,90.28 72.197,91.224 72.197,91.121 70.562,90.177 								"/>
							</g>
							<g>
								<polygon fill="#3AA3D8" points="72.956,93.083 74.775,94.138 74.775,92.618 72.956,91.562 								"/>
								<polygon fill="#2585CC" points="73.145,92.985 74.775,93.929 74.775,92.618 73.145,91.672 								"/>
								<polyline fill="#1676BF" points="74.775,93.929 74.775,92.618 73.145,91.672 								"/>
								<polygon fill="#4DBBFF" points="73.145,92.45 74.775,93.391 74.775,93.29 73.145,92.347 								"/>
								<polygon fill="#4DBBFF" points="73.145,92.104 74.775,93.048 74.775,92.946 73.145,92.005 								"/>
								<polygon fill="#4DBBFF" points="73.145,91.763 74.775,92.706 74.775,92.605 73.145,91.663 								"/>
							</g>
						</g>
						<g>
							<g>
								<polygon fill="#3AA3D8" points="64.871,88.413 66.689,89.466 66.689,87.946 64.871,86.892 								"/>
								<polygon fill="#2585CC" points="65.054,88.316 66.689,89.259 66.689,87.946 65.054,87.002 								"/>
								<polyline fill="#1676BF" points="66.689,89.259 66.689,87.946 65.054,87.002 								"/>
								<polygon fill="#4DBBFF" points="65.054,87.776 66.689,88.72 66.689,88.622 65.054,87.679 								"/>
								<polygon fill="#4DBBFF" points="65.054,87.433 66.689,88.374 66.689,88.277 65.054,87.333 								"/>
								<polygon fill="#4DBBFF" points="65.054,87.093 66.689,88.034 66.689,87.937 65.054,86.989 								"/>
							</g>
							<g>
								<polygon fill="#3AA3D8" points="67.448,89.897 69.269,90.949 69.269,89.431 67.448,88.374 								"/>
								<polygon fill="#2585CC" points="67.636,89.799 69.269,90.743 69.269,89.431 67.636,88.485 								"/>
								<polyline fill="#1676BF" points="69.269,90.743 69.269,89.431 67.636,88.485 								"/>
								<polygon fill="#4DBBFF" points="67.636,89.261 69.269,90.201 69.269,90.103 67.636,89.161 								"/>
								<polygon fill="#4DBBFF" points="67.636,88.918 69.269,89.86 69.269,89.761 67.636,88.817 								"/>
								<polygon fill="#4DBBFF" points="67.636,88.577 69.269,89.52 69.269,89.417 67.636,88.478 								"/>
							</g>
						</g>
					</g>
					<g>
						<polygon fill="#EDA411" points="80.387,53.519 83.178,55.13 83.178,74.655 80.387,73.044 						"/>
						<polygon fill="#DB5A03" points="85.967,53.519 83.178,55.13 83.178,74.655 85.967,73.044 						"/>
						<polyline fill="#C14E00" points="85.967,53.519 83.178,55.13 83.178,74.655 						"/>
						<g>
							<polygon fill="#D16822" points="83.178,51.909 85.965,53.519 83.178,55.128 80.393,53.519 							"/>
						</g>
						<g>
							<polygon fill="#25343A" points="83.178,52.431 85.062,53.519 83.178,54.607 81.295,53.519 							"/>
						</g>
						<g>
							<polyline fill="#0D1619" points="83.178,52.431 85.062,53.519 83.178,54.607 							"/>
						</g>
					</g>
				</g>
				<g>
					<polygon fill="#6FAEDD" points="65.718,93.688 65.718,100.123 79.512,108.083 79.512,101.655 					"/>
					<polygon fill="#3AA3D8" points="65.975,100.003 79.512,107.817 79.512,101.655 65.975,93.839 					"/>
					<polyline fill="#1D96CC" points="79.512,107.817 79.512,101.655 65.975,93.839 					"/>
					<polygon opacity="0.6" fill="#3AA3D8" points="69.63,102.329 75.598,105.772 75.598,99.472 69.63,96.024 					"/>
					<polygon opacity="0.6" fill="#3AA3D8" points="72.614,97.737 72.403,97.618 72.403,103.92 72.614,104.043 					"/>
				</g>
			</g>
			<g>
				<polygon fill="#EF990F" points="99.543,89.484 91.031,94.442 91.031,104.616 99.543,99.7 				"/>
				<polygon fill="#0D1619" points="99.146,99.931 91.031,104.616 91.031,94.442 99.146,89.717 				"/>
				<polyline fill="#25343A" points="99.146,99.931 91.031,104.616 91.031,95.454 				"/>
				<polygon fill="#566860" points="99.146,96.146 91.031,100.831 91.031,94.442 99.146,89.717 				"/>
				<polyline fill="#323F38" points="91.031,100.831 91.031,94.442 99.146,89.717 				"/>
				<polygon fill="#6A7F75" points="99.146,95.633 91.031,100.319 91.031,100.001 99.146,95.316 				"/>
				<polygon fill="#6A7F75" points="99.146,94.983 91.031,99.669 91.031,99.352 99.146,94.665 				"/>
				<polygon fill="#6A7F75" points="99.146,94.333 91.031,99.019 91.031,98.702 99.146,94.017 				"/>
				<polygon fill="#6A7F75" points="99.146,93.686 91.031,98.37 91.031,98.052 99.146,93.368 				"/>
				<polygon fill="#6A7F75" points="99.146,93.036 91.031,97.722 91.031,97.402 99.146,92.718 				"/>
				<polygon fill="#6A7F75" points="99.146,92.386 91.031,97.07 91.031,96.753 99.146,92.067 				"/>
				<polygon fill="#6A7F75" points="99.146,91.737 91.031,96.423 91.031,96.103 99.146,91.417 				"/>
				<polygon fill="#6A7F75" points="99.146,91.086 91.031,95.772 91.031,95.454 99.146,90.771 				"/>
				<polygon fill="#6A7F75" points="99.146,90.436 91.031,95.123 91.031,94.806 99.146,90.121 				"/>
			</g>
		</g>
		<g>
			<g>
				<g>
					<g>
						<g>
							<g>
								<g>
									<polygon fill="#BF3600" points="81.782,109.83 62.881,120.743 62.881,103.082 73.716,90.972 81.782,92.51 									"/>
									<polygon fill="#EF990F" points="62.881,96.819 43.979,92.51 43.979,109.83 62.881,120.743 									"/>
									<polygon fill="#DB5A03" points="81.782,108.193 62.881,119.106 62.881,108.052 73.716,89.333 81.782,90.871 									"/>
									<polyline fill="#C14E00" points="62.881,119.106 62.881,101.787 73.716,89.333 81.782,90.871 									"/>
									<polyline fill="#BF3600" points="62.881,101.787 73.716,93.091 81.782,90.871 									"/>
									<polygon fill="#EDA411" points="62.881,108.052 43.979,90.871 43.979,108.193 62.881,119.106 									"/>
									<polyline fill="#EF990F" points="62.881,119.106 62.881,101.787 43.979,90.871 									"/>
									<polygon fill="#2A3D42" points="73.716,89.333 54.78,82.159 43.979,90.871 62.881,101.787 									"/>
									<polyline fill="#25343A" points="62.881,101.787 73.716,93.091 54.78,82.159 									"/>
									<polygon fill="#1C2B30" points="54.78,82.159 62.881,79.959 81.782,90.871 73.716,93.091 									"/>
									<polygon fill="#0D1619" points="61.096,80.443 61.096,85.806 66.677,89.028 66.677,82.149 62.881,79.959 									"/>
									<polyline fill="#0D1619" points="81.782,90.871 73.716,93.091 54.78,82.159 									"/>
								</g>
							</g>
						</g>
						<g opacity="0.4">
							<g>
								<g>
									<line fill="#847D6F" x1="81.782" y1="103.097" x2="62.881" y2="114.011"/>
									<path fill="#847D6F" d="M62.881,114.071c-0.021,0-0.043-0.01-0.053-0.029c-0.019-0.029-0.008-0.068,0.021-0.085
										l18.903-10.913c0.028-0.016,0.068-0.009,0.086,0.023c0.016,0.029,0.005,0.068-0.023,0.085l-18.901,10.912
										C62.902,114.069,62.892,114.071,62.881,114.071z"/>
								</g>
								<g>
									<line fill="#847D6F" x1="43.979" y1="103.097" x2="62.881" y2="114.011"/>
									<path fill="#847D6F" d="M62.881,114.071c-0.01,0-0.021-0.002-0.032-0.007l-18.901-10.912
										c-0.029-0.017-0.039-0.056-0.022-0.085c0.018-0.032,0.056-0.039,0.086-0.023l18.902,10.913
										c0.028,0.017,0.04,0.056,0.021,0.085C62.923,114.062,62.902,114.071,62.881,114.071z"/>
								</g>
							</g>
							<g>
								<g>
									<g>
										<line fill="#847D6F" x1="81.782" y1="109.83" x2="62.881" y2="120.743"/>
										<path fill="#847D6F" d="M62.881,120.804c-0.021,0-0.043-0.009-0.053-0.029c-0.019-0.029-0.008-0.066,0.021-0.084
											l18.903-10.914c0.028-0.016,0.068-0.006,0.086,0.023c0.016,0.029,0.005,0.069-0.023,0.088L62.913,120.8
											C62.902,120.802,62.892,120.804,62.881,120.804z"/>
									</g>
									<g>
										<line fill="#847D6F" x1="43.979" y1="109.83" x2="62.881" y2="120.743"/>
										<path fill="#847D6F" d="M62.881,120.804c-0.01,0-0.021-0.002-0.032-0.004l-18.901-10.912
											c-0.029-0.019-0.039-0.059-0.022-0.088c0.018-0.029,0.056-0.039,0.086-0.023l18.902,10.914
											c0.028,0.018,0.04,0.055,0.021,0.084C62.923,120.795,62.902,120.804,62.881,120.804z"/>
									</g>
								</g>
								<g>
									<g>
										<line fill="#847D6F" x1="81.782" y1="108.99" x2="62.881" y2="119.902"/>
										<path fill="#847D6F" d="M62.881,119.966c-0.021,0-0.043-0.012-0.053-0.033c-0.019-0.029-0.008-0.067,0.021-0.086
											l18.903-10.91c0.028-0.017,0.068-0.008,0.086,0.021c0.016,0.028,0.005,0.07-0.023,0.086l-18.901,10.913
											C62.902,119.962,62.892,119.966,62.881,119.966z"/>
									</g>
									<g>
										<line fill="#847D6F" x1="43.979" y1="108.99" x2="62.881" y2="119.902"/>
										<path fill="#847D6F" d="M62.881,119.966c-0.01,0-0.021-0.004-0.032-0.009l-18.901-10.913
											c-0.029-0.016-0.039-0.058-0.022-0.086c0.018-0.029,0.056-0.038,0.086-0.021l18.902,10.91
											c0.028,0.019,0.04,0.057,0.021,0.086C62.923,119.954,62.902,119.966,62.881,119.966z"/>
									</g>
								</g>
								<g>
									<g>
										<line fill="#847D6F" x1="81.782" y1="108.147" x2="62.881" y2="119.061"/>
										<path fill="#847D6F" d="M62.881,119.122c-0.021,0-0.043-0.011-0.053-0.031c-0.019-0.03-0.008-0.067,0.021-0.084
											l18.903-10.912c0.028-0.018,0.068-0.01,0.086,0.021c0.016,0.031,0.005,0.07-0.023,0.089l-18.901,10.908
											C62.902,119.12,62.892,119.122,62.881,119.122z"/>
									</g>
									<g>
										<line fill="#847D6F" x1="43.979" y1="108.147" x2="62.881" y2="119.061"/>
										<path fill="#847D6F" d="M62.881,119.122c-0.01,0-0.021-0.002-0.032-0.01l-18.901-10.908
											c-0.029-0.019-0.039-0.058-0.022-0.089c0.018-0.03,0.056-0.038,0.086-0.021l18.902,10.912
											c0.028,0.017,0.04,0.054,0.021,0.084C62.923,119.111,62.902,119.122,62.881,119.122z"/>
									</g>
								</g>
								<g>
									<g>
										<line fill="#847D6F" x1="81.782" y1="107.306" x2="62.881" y2="118.218"/>
										<path fill="#847D6F" d="M62.881,118.282c-0.021,0-0.043-0.011-0.053-0.031c-0.019-0.031-0.008-0.068,0.021-0.088
											l18.903-10.912c0.028-0.015,0.068-0.006,0.086,0.023c0.016,0.029,0.005,0.069-0.023,0.087l-18.901,10.912
											C62.902,118.28,62.892,118.282,62.881,118.282z"/>
									</g>
									<g>
										<line fill="#847D6F" x1="43.979" y1="107.306" x2="62.881" y2="118.218"/>
										<path fill="#847D6F" d="M62.881,118.282c-0.01,0-0.021-0.002-0.032-0.009l-18.901-10.912
											c-0.029-0.018-0.039-0.058-0.022-0.087c0.018-0.029,0.056-0.038,0.086-0.023l18.902,10.912
											c0.028,0.02,0.04,0.057,0.021,0.088C62.923,118.271,62.902,118.282,62.881,118.282z"/>
									</g>
								</g>
								<g>
									<g>
										<line fill="#847D6F" x1="81.782" y1="106.464" x2="62.881" y2="117.376"/>
										<path fill="#847D6F" d="M62.881,117.44c-0.021,0-0.043-0.012-0.053-0.031c-0.019-0.033-0.008-0.068,0.021-0.088
											l18.903-10.91c0.028-0.02,0.068-0.008,0.086,0.022c0.016,0.03,0.005,0.067-0.023,0.087l-18.901,10.91
											C62.902,117.437,62.892,117.44,62.881,117.44z"/>
									</g>
									<g>
										<line fill="#847D6F" x1="43.979" y1="106.464" x2="62.881" y2="117.376"/>
										<path fill="#847D6F" d="M62.881,117.44c-0.01,0-0.021-0.004-0.032-0.01l-18.901-10.91
											c-0.029-0.02-0.039-0.057-0.022-0.087c0.018-0.03,0.056-0.042,0.086-0.022l18.902,10.91
											c0.028,0.02,0.04,0.055,0.021,0.088C62.923,117.429,62.902,117.44,62.881,117.44z"/>
									</g>
								</g>
								<g>
									<g>
										<line fill="#847D6F" x1="81.782" y1="105.622" x2="62.881" y2="116.534"/>
										<path fill="#847D6F" d="M62.881,116.6c-0.021,0-0.043-0.013-0.053-0.032c-0.019-0.031-0.008-0.07,0.021-0.086
											l18.903-10.912c0.028-0.019,0.068-0.009,0.086,0.023c0.016,0.027,0.005,0.066-0.023,0.084l-18.901,10.912
											C62.902,116.594,62.892,116.6,62.881,116.6z"/>
									</g>
									<g>
										<line fill="#847D6F" x1="43.979" y1="105.622" x2="62.881" y2="116.534"/>
										<path fill="#847D6F" d="M62.881,116.6c-0.01,0-0.021-0.006-0.032-0.011l-18.901-10.912
											c-0.029-0.018-0.039-0.057-0.022-0.084c0.018-0.032,0.056-0.042,0.086-0.023l18.902,10.912
											c0.028,0.016,0.04,0.055,0.021,0.086C62.923,116.587,62.902,116.6,62.881,116.6z"/>
									</g>
								</g>
								<g>
									<g>
										<line fill="#847D6F" x1="81.782" y1="104.782" x2="62.881" y2="115.694"/>
										<path fill="#847D6F" d="M62.881,115.757c-0.021,0-0.043-0.012-0.053-0.031c-0.019-0.031-0.008-0.068,0.021-0.087
											l18.903-10.913c0.028-0.016,0.068-0.006,0.086,0.026c0.016,0.03,0.005,0.065-0.023,0.086l-18.901,10.911
											C62.902,115.753,62.892,115.757,62.881,115.757z"/>
									</g>
									<g>
										<line fill="#847D6F" x1="43.979" y1="104.782" x2="62.881" y2="115.694"/>
										<path fill="#847D6F" d="M62.881,115.757c-0.01,0-0.021-0.004-0.032-0.008l-18.901-10.911
											c-0.029-0.021-0.039-0.056-0.022-0.086c0.018-0.032,0.056-0.042,0.086-0.026l18.902,10.913
											c0.028,0.019,0.04,0.056,0.021,0.087C62.923,115.745,62.902,115.757,62.881,115.757z"/>
									</g>
								</g>
								<g>
									<g>
										<line fill="#847D6F" x1="81.782" y1="103.938" x2="62.881" y2="114.853"/>
										<path fill="#847D6F" d="M62.881,114.914c-0.021,0-0.043-0.01-0.053-0.03c-0.019-0.029-0.008-0.07,0.021-0.086
											l18.903-10.912c0.028-0.017,0.068-0.008,0.086,0.023c0.016,0.029,0.005,0.066-0.023,0.086l-18.901,10.909
											C62.902,114.911,62.892,114.914,62.881,114.914z"/>
									</g>
									<g>
										<line fill="#847D6F" x1="43.979" y1="103.938" x2="62.881" y2="114.853"/>
										<path fill="#847D6F" d="M62.881,114.914c-0.01,0-0.021-0.003-0.032-0.01l-18.901-10.909
											c-0.029-0.02-0.039-0.057-0.022-0.086c0.018-0.031,0.056-0.04,0.086-0.023l18.902,10.912
											c0.028,0.016,0.04,0.057,0.021,0.086C62.923,114.904,62.902,114.914,62.881,114.914z"/>
									</g>
								</g>
								<g>
									<g>
										<line fill="#847D6F" x1="81.782" y1="102.257" x2="62.881" y2="113.167"/>
										<path fill="#847D6F" d="M62.881,113.232c-0.021,0-0.043-0.011-0.053-0.032c-0.019-0.029-0.008-0.07,0.021-0.086
											l18.903-10.913c0.028-0.014,0.068-0.006,0.086,0.025c0.016,0.028,0.005,0.065-0.023,0.084l-18.901,10.911
											C62.902,113.229,62.892,113.232,62.881,113.232z"/>
									</g>
									<g>
										<line fill="#847D6F" x1="43.979" y1="102.257" x2="62.881" y2="113.167"/>
										<path fill="#847D6F" d="M62.881,113.232c-0.01,0-0.021-0.004-0.032-0.011l-18.901-10.911
											c-0.029-0.019-0.039-0.056-0.022-0.084c0.018-0.031,0.056-0.039,0.086-0.025l18.902,10.913
											c0.028,0.016,0.04,0.057,0.021,0.086C62.923,113.222,62.902,113.232,62.881,113.232z"/>
									</g>
								</g>
								<g>
									<g>
										<line fill="#847D6F" x1="81.782" y1="101.413" x2="62.881" y2="112.327"/>
										<path fill="#847D6F" d="M62.881,112.39c-0.021,0-0.043-0.012-0.053-0.03c-0.019-0.03-0.008-0.069,0.021-0.085
											l18.903-10.913c0.028-0.017,0.068-0.009,0.086,0.021c0.016,0.031,0.005,0.07-0.023,0.087l-18.901,10.913
											C62.902,112.388,62.892,112.39,62.881,112.39z"/>
									</g>
									<g>
										<line fill="#847D6F" x1="43.979" y1="101.413" x2="62.881" y2="112.327"/>
										<path fill="#847D6F" d="M62.881,112.39c-0.01,0-0.021-0.002-0.032-0.008l-18.901-10.913
											c-0.029-0.017-0.039-0.056-0.022-0.087c0.018-0.029,0.056-0.037,0.086-0.021l18.902,10.913
											c0.028,0.016,0.04,0.055,0.021,0.085C62.923,112.378,62.902,112.39,62.881,112.39z"/>
									</g>
								</g>
								<g>
									<g>
										<line fill="#847D6F" x1="81.782" y1="100.573" x2="62.881" y2="111.485"/>
										<path fill="#847D6F" d="M62.881,111.549c-0.021,0-0.043-0.015-0.053-0.031c-0.019-0.03-0.008-0.069,0.021-0.087
											l18.903-10.912c0.028-0.018,0.068-0.004,0.086,0.025c0.016,0.027,0.005,0.066-0.023,0.084l-18.901,10.91
											C62.902,111.545,62.892,111.549,62.881,111.549z"/>
									</g>
									<g>
										<line fill="#847D6F" x1="43.979" y1="100.573" x2="62.881" y2="111.485"/>
										<path fill="#847D6F" d="M62.881,111.549c-0.01,0-0.021-0.004-0.032-0.011l-18.901-10.91
											c-0.029-0.018-0.039-0.057-0.022-0.084c0.018-0.029,0.056-0.043,0.086-0.025l18.902,10.912
											c0.028,0.018,0.04,0.057,0.021,0.087C62.923,111.534,62.902,111.549,62.881,111.549z"/>
									</g>
								</g>
								<g>
									<g>
										<line fill="#847D6F" x1="81.782" y1="99.729" x2="62.881" y2="110.644"/>
										<path fill="#847D6F" d="M62.881,110.706c-0.021,0-0.043-0.014-0.053-0.032c-0.019-0.03-0.008-0.067,0.021-0.083
											l18.903-10.914c0.028-0.016,0.068-0.007,0.086,0.023c0.016,0.029,0.005,0.068-0.023,0.084l-18.901,10.914
											C62.902,110.704,62.892,110.706,62.881,110.706z"/>
									</g>
									<g>
										<line fill="#847D6F" x1="43.979" y1="99.729" x2="62.881" y2="110.644"/>
										<path fill="#847D6F" d="M62.881,110.706c-0.01,0-0.021-0.002-0.032-0.008L43.947,99.784
											c-0.029-0.016-0.039-0.055-0.022-0.084c0.018-0.03,0.056-0.039,0.086-0.023l18.902,10.914
											c0.028,0.016,0.04,0.053,0.021,0.083C62.923,110.692,62.902,110.706,62.881,110.706z"/>
									</g>
								</g>
								<g>
									<g>
										<line fill="#847D6F" x1="81.782" y1="98.89" x2="62.881" y2="109.801"/>
										<path fill="#847D6F" d="M62.881,109.865c-0.021,0-0.043-0.013-0.053-0.032c-0.019-0.029-0.008-0.068,0.021-0.085
											l18.903-10.912c0.028-0.019,0.068-0.008,0.086,0.021c0.016,0.031,0.005,0.072-0.023,0.086l-18.901,10.912
											C62.902,109.86,62.892,109.865,62.881,109.865z"/>
									</g>
									<g>
										<line fill="#847D6F" x1="43.979" y1="98.89" x2="62.881" y2="109.801"/>
										<path fill="#847D6F" d="M62.881,109.865c-0.01,0-0.021-0.005-0.032-0.011L43.947,98.942
											c-0.029-0.014-0.039-0.055-0.022-0.086c0.018-0.028,0.056-0.039,0.086-0.021l18.902,10.912
											c0.028,0.017,0.04,0.056,0.021,0.085C62.923,109.853,62.902,109.865,62.881,109.865z"/>
									</g>
								</g>
								<g>
									<g>
										<line fill="#847D6F" x1="81.782" y1="98.048" x2="62.881" y2="108.96"/>
										<path fill="#847D6F" d="M62.881,109.023c-0.021,0-0.043-0.013-0.053-0.031c-0.019-0.032-0.008-0.067,0.021-0.084
											l18.903-10.913c0.028-0.018,0.068-0.01,0.086,0.021c0.016,0.028,0.005,0.068-0.023,0.086l-18.901,10.912
											C62.902,109.021,62.892,109.023,62.881,109.023z"/>
									</g>
									<g>
										<line fill="#847D6F" x1="43.979" y1="98.048" x2="62.881" y2="108.96"/>
										<path fill="#847D6F" d="M62.881,109.023c-0.01,0-0.021-0.003-0.032-0.009L43.947,98.103
											c-0.029-0.018-0.039-0.058-0.022-0.086c0.018-0.031,0.056-0.039,0.086-0.021l18.902,10.913
											c0.028,0.017,0.04,0.052,0.021,0.084C62.923,109.011,62.902,109.023,62.881,109.023z"/>
									</g>
								</g>
								<g>
									<g>
										<line fill="#847D6F" x1="81.782" y1="97.206" x2="62.881" y2="108.117"/>
										<path fill="#847D6F" d="M62.881,108.183c-0.021,0-0.043-0.014-0.053-0.033c-0.019-0.03-0.008-0.066,0.021-0.084
											L81.752,97.15c0.028-0.015,0.068-0.005,0.086,0.024c0.016,0.029,0.005,0.069-0.023,0.086l-18.901,10.912
											C62.902,108.179,62.892,108.183,62.881,108.183z"/>
									</g>
									<g>
										<line fill="#847D6F" x1="43.979" y1="97.206" x2="62.881" y2="108.117"/>
										<path fill="#847D6F" d="M62.881,108.183c-0.01,0-0.021-0.004-0.032-0.01L43.947,97.261
											c-0.029-0.017-0.039-0.057-0.022-0.086c0.018-0.029,0.056-0.039,0.086-0.024l18.902,10.915
											c0.028,0.018,0.04,0.054,0.021,0.084C62.923,108.169,62.902,108.183,62.881,108.183z"/>
									</g>
								</g>
							</g>
						</g>
						<g>
							<g>
								<polygon fill="#3AA3D8" points="56.595,101.875 58.414,102.929 58.414,101.411 56.595,100.354 								"/>
								<polygon fill="#2585CC" points="56.778,101.774 58.414,102.72 58.414,101.411 56.778,100.462 								"/>
								<polyline fill="#1676BF" points="58.414,102.72 58.414,101.411 56.778,100.462 								"/>
								<polygon fill="#4DBBFF" points="56.778,101.24 58.414,102.183 58.414,102.081 56.778,101.142 								"/>
								<polygon fill="#4DBBFF" points="56.778,100.896 58.414,101.837 58.414,101.739 56.778,100.797 								"/>
								<polygon fill="#4DBBFF" points="56.778,100.554 58.414,101.499 58.414,101.396 56.778,100.452 								"/>
							</g>
							<g>
								<polygon fill="#3AA3D8" points="59.172,103.359 60.993,104.413 60.993,102.894 59.172,101.837 								"/>
								<polygon fill="#2585CC" points="59.36,103.261 60.993,104.202 60.993,102.894 59.36,101.945 								"/>
								<polyline fill="#1676BF" points="60.993,104.202 60.993,102.894 59.36,101.945 								"/>
								<polygon fill="#4DBBFF" points="59.36,102.723 60.993,103.665 60.993,103.565 59.36,102.622 								"/>
								<polygon fill="#4DBBFF" points="59.36,102.38 60.993,103.322 60.993,103.222 59.36,102.279 								"/>
								<polygon fill="#4DBBFF" points="59.36,102.037 60.993,102.981 60.993,102.88 59.36,101.938 								"/>
							</g>
						</g>
						<g>
							<g>
								<polygon fill="#3AA3D8" points="51.088,98.687 52.906,99.743 52.906,98.224 51.088,97.167 								"/>
								<polygon fill="#2585CC" points="51.271,98.59 52.906,99.532 52.906,98.224 51.271,97.275 								"/>
								<polyline fill="#1676BF" points="52.906,99.532 52.906,98.224 51.271,97.275 								"/>
								<polygon fill="#4DBBFF" points="51.271,98.054 52.906,98.994 52.906,98.896 51.271,97.954 								"/>
								<polygon fill="#4DBBFF" points="51.271,97.709 52.906,98.649 52.906,98.552 51.271,97.606 								"/>
								<polygon fill="#4DBBFF" points="51.271,97.368 52.906,98.312 52.906,98.21 51.271,97.265 								"/>
							</g>
							<g>
								<polygon fill="#3AA3D8" points="53.664,100.171 55.485,101.226 55.485,99.704 53.664,98.649 								"/>
								<polygon fill="#2585CC" points="53.854,100.074 55.485,101.017 55.485,99.704 53.854,98.76 								"/>
								<polyline fill="#1676BF" points="55.485,101.017 55.485,99.704 53.854,98.76 								"/>
								<polygon fill="#4DBBFF" points="53.854,99.536 55.485,100.478 55.485,100.378 53.854,99.435 								"/>
								<polygon fill="#4DBBFF" points="53.854,99.192 55.485,100.136 55.485,100.035 53.854,99.093 								"/>
								<polygon fill="#4DBBFF" points="53.854,98.851 55.485,99.795 55.485,99.692 53.854,98.752 								"/>
							</g>
						</g>
						<g>
							<g>
								<polygon fill="#3AA3D8" points="45.58,95.501 47.398,96.556 47.398,95.034 45.58,93.979 								"/>
								<polygon fill="#2585CC" points="45.764,95.404 47.398,96.347 47.398,95.034 45.764,94.089 								"/>
								<polyline fill="#1676BF" points="47.398,96.347 47.398,95.034 45.764,94.089 								"/>
								<polygon fill="#4DBBFF" points="45.764,94.864 47.398,95.808 47.398,95.71 45.764,94.766 								"/>
								<polygon fill="#4DBBFF" points="45.764,94.52 47.398,95.462 47.398,95.364 45.764,94.421 								"/>
								<polygon fill="#4DBBFF" points="45.764,94.181 47.398,95.122 47.398,95.024 45.764,94.077 								"/>
							</g>
							<g>
								<polygon fill="#3AA3D8" points="48.157,96.985 49.978,98.037 49.978,96.518 48.157,95.462 								"/>
								<polygon fill="#2585CC" points="48.344,96.888 49.978,97.831 49.978,96.518 48.344,95.573 								"/>
								<polyline fill="#1676BF" points="49.978,97.831 49.978,96.518 48.344,95.573 								"/>
								<polygon fill="#4DBBFF" points="48.344,96.35 49.978,97.288 49.978,97.19 48.344,96.249 								"/>
								<polygon fill="#4DBBFF" points="48.344,96.005 49.978,96.948 49.978,96.849 48.344,95.905 								"/>
								<polygon fill="#4DBBFF" points="48.344,95.665 49.978,96.608 49.978,96.505 48.344,95.564 								"/>
							</g>
						</g>
						<g>
							<g>
								<polygon fill="#3AA3D8" points="56.595,105.821 58.414,106.876 58.414,105.357 56.595,104.302 								"/>
								<polygon fill="#2585CC" points="56.778,105.722 58.414,106.667 58.414,105.357 56.778,104.409 								"/>
								<polyline fill="#1676BF" points="58.414,106.667 58.414,105.357 56.778,104.409 								"/>
								<polygon fill="#4DBBFF" points="56.778,105.188 58.414,106.13 58.414,106.028 56.778,105.089 								"/>
								<polygon fill="#4DBBFF" points="56.778,104.843 58.414,105.785 58.414,105.687 56.778,104.744 								"/>
								<polygon fill="#4DBBFF" points="56.778,104.501 58.414,105.446 58.414,105.343 56.778,104.399 								"/>
							</g>
							<g>
								<polygon fill="#3AA3D8" points="59.172,107.307 60.993,108.359 60.993,106.84 59.172,105.785 								"/>
								<polygon fill="#2585CC" points="59.36,107.208 60.993,108.149 60.993,106.84 59.36,105.892 								"/>
								<polyline fill="#1676BF" points="60.993,108.149 60.993,106.84 59.36,105.892 								"/>
								<polygon fill="#4DBBFF" points="59.36,106.67 60.993,107.612 60.993,107.511 59.36,106.569 								"/>
								<polygon fill="#4DBBFF" points="59.36,106.327 60.993,107.27 60.993,107.171 59.36,106.228 								"/>
								<polygon fill="#4DBBFF" points="59.36,105.985 60.993,106.929 60.993,106.827 59.36,105.888 								"/>
							</g>
						</g>
						<g>
							<g>
								<polygon fill="#3AA3D8" points="51.088,102.634 52.906,103.69 52.906,102.171 51.088,101.114 								"/>
								<polygon fill="#2585CC" points="51.271,102.536 52.906,103.48 52.906,102.171 51.271,101.222 								"/>
								<polyline fill="#1676BF" points="52.906,103.48 52.906,102.171 51.271,101.222 								"/>
								<polygon fill="#4DBBFF" points="51.271,102 52.906,102.942 52.906,102.842 51.271,101.901 								"/>
								<polygon fill="#4DBBFF" points="51.271,101.657 52.906,102.598 52.906,102.499 51.271,101.554 								"/>
								<polygon fill="#4DBBFF" points="51.271,101.314 52.906,102.259 52.906,102.156 51.271,101.212 								"/>
							</g>
							<g>
								<polygon fill="#3AA3D8" points="53.664,104.118 55.485,105.173 55.485,103.651 53.664,102.598 								"/>
								<polygon fill="#2585CC" points="53.854,104.021 55.485,104.964 55.485,103.651 53.854,102.707 								"/>
								<polyline fill="#1676BF" points="55.485,104.964 55.485,103.651 53.854,102.707 								"/>
								<polygon fill="#4DBBFF" points="53.854,103.485 55.485,104.426 55.485,104.325 53.854,103.38 								"/>
								<polygon fill="#4DBBFF" points="53.854,103.138 55.485,104.082 55.485,103.981 53.854,103.04 								"/>
								<polygon fill="#4DBBFF" points="53.854,102.798 55.485,103.741 55.485,103.641 53.854,102.698 								"/>
							</g>
						</g>
						<g>
							<g>
								<polygon fill="#3AA3D8" points="45.58,99.448 47.398,100.501 47.398,98.981 45.58,97.927 								"/>
								<polygon fill="#2585CC" points="45.764,99.352 47.398,100.294 47.398,98.981 45.764,98.037 								"/>
								<polyline fill="#1676BF" points="47.398,100.294 47.398,98.981 45.764,98.037 								"/>
								<polygon fill="#4DBBFF" points="45.764,98.812 47.398,99.755 47.398,99.657 45.764,98.714 								"/>
								<polygon fill="#4DBBFF" points="45.764,98.468 47.398,99.409 47.398,99.312 45.764,98.368 								"/>
								<polygon fill="#4DBBFF" points="45.764,98.128 47.398,99.068 47.398,98.972 45.764,98.024 								"/>
							</g>
							<g>
								<polygon fill="#3AA3D8" points="48.157,100.933 49.978,101.983 49.978,100.466 48.157,99.409 								"/>
								<polygon fill="#2585CC" points="48.344,100.834 49.978,101.778 49.978,100.466 48.344,99.52 								"/>
								<polyline fill="#1676BF" points="49.978,101.778 49.978,100.466 48.344,99.52 								"/>
								<polygon fill="#4DBBFF" points="48.344,100.296 49.978,101.236 49.978,101.138 48.344,100.195 								"/>
								<polygon fill="#4DBBFF" points="48.344,99.953 49.978,100.896 49.978,100.796 48.344,99.853 								"/>
								<polygon fill="#4DBBFF" points="48.344,99.612 49.978,100.556 49.978,100.452 48.344,99.513 								"/>
							</g>
						</g>
					</g>
					<g>
						<polygon fill="#EDA411" points="61.096,64.554 63.887,66.165 63.887,85.69 61.096,84.079 						"/>
						<polygon fill="#DB5A03" points="66.677,64.554 63.887,66.165 63.887,85.69 66.677,84.079 						"/>
						<polyline fill="#C14E00" points="66.677,64.554 63.887,66.165 63.887,85.69 						"/>
						<g>
							<polygon fill="#D16822" points="63.887,62.944 66.675,64.554 63.887,66.163 61.102,64.554 							"/>
						</g>
						<g>
							<polygon fill="#25343A" points="63.887,63.464 65.771,64.554 63.887,65.643 62.003,64.554 							"/>
						</g>
						<g>
							<polyline fill="#0D1619" points="63.887,63.464 65.771,64.554 63.887,65.643 							"/>
						</g>
					</g>
				</g>
				<g>
					<polygon fill="#6FAEDD" points="46.426,104.724 46.426,111.158 60.221,119.118 60.221,112.688 					"/>
					<polygon fill="#3AA3D8" points="46.685,111.038 60.221,118.853 60.221,112.688 46.685,104.874 					"/>
					<polyline fill="#1D96CC" points="60.221,118.853 60.221,112.688 46.685,104.874 					"/>
					<polygon opacity="0.6" fill="#3AA3D8" points="50.339,113.364 56.307,116.808 56.307,110.506 50.339,107.06 					"/>
					<polygon opacity="0.6" fill="#3AA3D8" points="53.324,108.772 53.113,108.653 53.113,114.955 53.324,115.078 					"/>
				</g>
			</g>
			<g>
				<polygon fill="#EF990F" points="80.251,100.519 71.74,105.478 71.74,115.651 80.251,110.735 				"/>
				<polygon fill="#0D1619" points="79.854,110.966 71.74,115.651 71.74,105.478 79.854,100.752 				"/>
				<polyline fill="#25343A" points="79.854,110.966 71.74,115.651 71.74,106.489 				"/>
				<polygon fill="#566860" points="79.854,107.179 71.74,111.865 71.74,105.478 79.854,100.752 				"/>
				<polyline fill="#323F38" points="71.74,111.865 71.74,105.478 79.854,100.752 				"/>
				<polygon fill="#6A7F75" points="79.854,106.668 71.74,111.354 71.74,111.035 79.854,106.352 				"/>
				<polygon fill="#6A7F75" points="79.854,106.019 71.74,110.704 71.74,110.386 79.854,105.7 				"/>
				<polygon fill="#6A7F75" points="79.854,105.368 71.74,110.054 71.74,109.737 79.854,105.05 				"/>
				<polygon fill="#6A7F75" points="79.854,104.722 71.74,109.405 71.74,109.087 79.854,104.402 				"/>
				<polygon fill="#6A7F75" points="79.854,104.071 71.74,108.756 71.74,108.437 79.854,103.753 				"/>
				<polygon fill="#6A7F75" points="79.854,103.421 71.74,108.105 71.74,107.787 79.854,103.103 				"/>
				<polygon fill="#6A7F75" points="79.854,102.772 71.74,107.458 71.74,107.138 79.854,102.452 				"/>
				<polygon fill="#6A7F75" points="79.854,102.121 71.74,106.808 71.74,106.489 79.854,101.806 				"/>
				<polygon fill="#6A7F75" points="79.854,101.472 71.74,106.158 71.74,105.84 79.854,101.155 				"/>
			</g>
		</g>
	</g>
</g>
</svg>
