<?xml version="1.0" encoding="iso-8859-1"?>
<!-- Generator: Adobe Illustrator 19.0.0, SVG Export Plug-In . SVG Version: 6.00 Build 0)  -->
<svg version="1.1" id="Layer_1" xmlns="http://www.w3.org/2000/svg" xmlns:xlink="http://www.w3.org/1999/xlink" x="0px" y="0px"
	 viewBox="0 0 512 512" style="enable-background:new 0 0 512 512;" xml:space="preserve">
<polygon style="fill:#E0E0E2;" points="20.918,355.377 255.971,491.119 491.082,355.377 256.18,219.757 "/>
<polygon style="fill:#C6C5CB;" points="491.082,355.377 491.082,376.258 255.971,512 255.971,491.119 "/>
<polygon style="fill:#D8D8DA;" points="20.918,355.377 20.918,376.258 255.971,512 255.971,491.119 "/>
<polygon style="fill:#ACABB1;" points="255.971,470.238 454.916,355.377 454.916,209.212 255.971,324.057 "/>
<polygon style="fill:#C6C5CB;" points="57.084,209.212 57.084,355.377 255.971,470.238 255.971,324.057 "/>
<polygon style="fill:#D8D8DA;" points="39,198.771 39,219.652 255.971,344.953 473,219.652 473,198.771 255.999,73.487 "/>
<polygon style="fill:#E0E0E2;" points="39,198.771 255.971,324.057 473,198.771 255.999,73.487 "/>
<polygon style="fill:#898890;" points="75.167,198.772 255.971,303.193 436.833,198.772 255.999,94.368 "/>
<polygon style="fill:#C6C5CB;" points="93.236,209.22 255.971,115.232 255.999,94.368 75.167,198.772 "/>
<polyline style="fill:#D8D8DA;" points="436.833,198.772 418.735,209.22 255.971,115.232 255.999,94.368 "/>
<polygon style="fill:#00AB95;" points="201.729,459.764 201.718,313.605 93.251,250.575 93.251,396.73 111.333,407.17 
	111.322,282.286 183.647,324.044 183.647,449.324 "/>
<g>
	<polygon style="fill:#008778;" points="201.722,313.627 201.75,459.776 219.813,449.348 219.813,324.039 	"/>
	<polygon style="fill:#008778;" points="111.333,407.17 129.417,396.745 129.417,292.735 111.322,282.286 	"/>
</g>
<path style="fill:#00AB95;" d="M169.33,369.993c0.005-20.873-5.914-41.232-13.155-45.242c-7.24-4.01-13.164,9.785-13.164,30.658
	v49.075l26.329,15.226L169.33,369.993z"/>
<path style="fill:#01CDB4;" d="M166.709,378.206c0.004-16.715-4.736-33.019-10.535-36.231s-10.542,7.837-10.542,24.553v39.301
	l21.085,12.194L166.709,378.206z"/>
<g>
	<path style="fill:#2487FF;" d="M246.964,369.949v32.196l-18.439-10.445l0.018-30.039c0.003-5.16,5.544-8.421,10.056-5.917l0,0
		C243.762,358.607,246.964,364.046,246.964,369.949z"/>
	<path style="fill:#2487FF;" d="M84.215,275.986v32.196l-18.439-10.445l0.018-30.039c0.003-5.16,5.544-8.421,10.056-5.917l0,0
		C81.013,264.644,84.215,270.082,84.215,275.986z"/>
	<path style="fill:#2487FF;" d="M274.083,364.943v32.196l18.439-10.644l-0.018-29.841c-0.003-5.16-5.544-8.421-10.056-5.917l0,0
		C277.286,353.601,274.083,359.04,274.083,364.943z"/>
	<path style="fill:#2487FF;" d="M310.25,344.063v32.196l18.439-10.643l-0.018-29.841c-0.003-5.16-5.544-8.421-10.056-5.917l0,0
		C313.452,332.72,310.25,338.16,310.25,344.063z"/>
	<path style="fill:#2487FF;" d="M346.416,323.182v32.196l18.439-10.64l-0.018-29.845c-0.003-5.16-5.544-8.421-10.056-5.917l0,0
		C349.619,311.839,346.416,317.279,346.416,323.182z"/>
	<path style="fill:#2487FF;" d="M382.583,302.301v32.196l18.439-10.642l-0.018-29.843c-0.003-5.16-5.544-8.421-10.056-5.917l0,0
		C385.785,290.958,382.583,296.398,382.583,302.301z"/>
	<path style="fill:#2487FF;" d="M418.749,281.42v32.196l18.439-10.639l-0.018-29.846c-0.003-5.16-5.544-8.421-10.056-5.917l0,0
		C421.952,270.078,418.749,275.517,418.749,281.42z"/>
</g>
<polygon style="fill:#E0E0E2;" points="116.788,410.772 107.702,415.773 161.868,447.199 170.849,441.986 "/>
<polygon style="fill:#C6C5CB;" points="107.702,415.773 107.702,426.259 161.853,457.523 161.868,447.199 "/>
<polygon style="fill:#E0E0E2;" points="107.782,426.373 98.686,431.372 152.852,462.799 161.843,457.587 "/>
<polygon style="fill:#C6C5CB;" points="98.686,431.372 98.686,441.943 152.837,473.207 152.852,462.799 "/>
<polygon style="fill:#ACABB1;" points="161.868,447.199 161.861,457.592 152.852,462.799 152.837,473.207 161.843,467.995 
	161.853,467.911 161.853,468.01 170.849,462.795 170.849,441.986 "/>
<path style="fill:#C6C5CB;" d="M369.053,152.867v-0.068h-0.002c0.139-16.621-10.68-33.232-32.505-45.834
	c-43.725-25.245-115.759-25.245-160.076,0c-22.174,12.632-33.361,29.292-33.522,45.954v51.568
	c-0.166,16.641,10.669,33.285,32.549,45.917c43.781,25.277,115.815,25.277,160.076,0c22.12-12.633,33.294-29.276,33.48-45.917h0.001
	v-0.015C369.053,204.466,369.053,152.876,369.053,152.867z"/>
<path style="fill:#E0E0E2;" d="M175.496,198.825c-43.781-25.277-43.343-66.612,0.974-91.858s116.35-25.245,160.076,0
	s43.287,66.581-0.974,91.858S219.276,224.101,175.496,198.825z"/>
<path style="fill:#00AB95;" d="M354.878,150.948c-0.054,14.647-9.838,29.313-29.295,40.416c-38.716,22.116-101.737,22.116-140.037,0
	c-18.825-10.868-28.301-25.118-28.463-39.44c-0.018-0.253-0.018-0.507-0.018-0.742c0-54.612,44.286-98.897,98.916-98.897
	c54.358,0,98.481,43.87,98.879,98.12C354.878,150.586,354.878,150.767,354.878,150.948z"/>
<path style="fill:#01CDB4;" d="M324.643,134.759c-0.042,11.291-7.583,22.595-22.581,31.153c-29.843,17.047-78.421,17.047-107.943,0
	c-14.51-8.377-21.814-19.362-21.939-30.401c-0.014-0.195-0.014-0.391-0.014-0.572c0-42.095,34.136-76.232,76.246-76.232
	c41.901,0,75.912,33.816,76.218,75.633C324.643,134.481,324.643,134.62,324.643,134.759z"/>
<path style="fill:#02665A;" d="M255.999,28.031l-4.649,35.71c-0.007,0.684,0.439,1.369,1.339,1.888c1.8,1.04,4.763,1.04,6.583,0
	c0.91-0.519,1.369-1.204,1.377-1.888l0,0V63.74L255.999,28.031z"/>
<g>
	<path style="fill:#FED322;" d="M248.026,14.015c0-7.084,5.338-12.916,12.21-13.708C259.297,0.109,258.323,0,257.323,0
		c-7.74,0-14.015,6.275-14.015,14.015s6.275,14.015,14.015,14.015c1,0,1.973-0.109,2.913-0.307
		C253.364,26.931,248.026,21.1,248.026,14.015z"/>
	<polygon style="fill:#FED322;" points="257.556,1.523 263.118,9.278 272.213,6.384 266.556,14.07 272.118,21.826 263.06,18.821 
		257.404,26.508 257.461,16.965 248.404,13.96 257.498,11.066 	"/>
</g>
<polygon style="fill:#C6C5CB;" points="255.971,324.057 255.971,344.953 473,219.652 473,198.771 "/>
<g>
</g>
<g>
</g>
<g>
</g>
<g>
</g>
<g>
</g>
<g>
</g>
<g>
</g>
<g>
</g>
<g>
</g>
<g>
</g>
<g>
</g>
<g>
</g>
<g>
</g>
<g>
</g>
<g>
</g>
</svg>
