<?xml version="1.0" encoding="iso-8859-1"?>
<!-- Generator: Adobe Illustrator 19.0.0, SVG Export Plug-In . SVG Version: 6.00 Build 0)  -->
<svg version="1.1" id="Layer_1" xmlns="http://www.w3.org/2000/svg" xmlns:xlink="http://www.w3.org/1999/xlink" x="0px" y="0px"
	 viewBox="0 0 512.001 512.001" style="enable-background:new 0 0 512.001 512.001;" xml:space="preserve">
<polygon style="fill:#BFAB92;" points="158.083,297.063 158.083,455.468 256,512.001 353.918,455.468 353.918,297.063 256,240.53 
	"/>
<polygon style="fill:#EDE6DE;" points="158.083,297.063 256,240.53 353.918,297.063 256,353.595 "/>
<polygon style="fill:#D9CCBC;" points="256,353.595 256,512.001 158.083,455.468 158.083,297.063 "/>
<polygon style="fill:#BFAB92;" points="177.361,105.026 177.361,296.918 256,342.321 334.638,296.918 334.638,105.026 256,59.624 
	"/>
<polygon style="fill:#EDE6DE;" points="177.361,105.026 256,59.624 334.638,105.026 256,150.429 "/>
<polygon style="fill:#D9CCBC;" points="256,150.429 256,342.321 177.361,296.918 177.361,105.026 "/>
<polygon style="fill:#BFAB92;" points="314.751,104.851 314.751,82.267 256,48.378 197.301,82.267 197.25,104.851 256,138.771 "/>
<polygon style="fill:#EDE6DE;" points="197.301,82.267 256,116.158 314.699,82.267 256,48.378 "/>
<polygon style="fill:#BFAB92;" points="295.17,71.036 295.17,82.326 256.002,104.85 216.833,82.326 216.833,71.036 256,48.378 "/>
<polygon style="fill:#EDE6DE;" points="216.833,71.036 256,93.649 295.167,71.036 256,48.423 "/>
<polygon style="fill:#D9CCBC;" points="197.25,104.851 197.25,82.267 256,116.158 256,138.771 "/>
<path style="fill:#C6C5CB;" d="M259.897,2.256V2.252h-0.001c-0.002-0.576-0.379-1.151-1.134-1.59
	c-1.515-0.879-3.997-0.881-5.516-0.004c-0.76,0.439-1.14,1.017-1.14,1.595l0,0v69.476c-0.001,0.578,0.378,1.155,1.137,1.592
	c1.517,0.876,3.999,0.878,5.516,0.004c0.761-0.438,1.14-1.018,1.138-1.597l0,0V2.259C259.897,2.258,259.897,2.257,259.897,2.256z"/>
<polygon style="fill:#D9CCBC;" points="216.833,71.036 216.833,82.326 256.002,104.85 256.002,93.649 "/>
<g>
	<polygon style="fill:#2487FF;" points="265.792,155.731 265.792,325.328 275.583,319.675 275.583,150.077 	"/>
	<polygon style="fill:#2487FF;" points="282.111,146.309 282.111,315.906 291.903,310.253 291.903,140.655 	"/>
	<polygon style="fill:#2487FF;" points="298.431,136.886 298.431,306.484 308.223,300.831 308.223,131.233 	"/>
	<polygon style="fill:#2487FF;" points="314.751,127.464 314.751,297.063 324.543,291.408 324.543,121.811 	"/>
</g>
<g>
	<polygon style="fill:#59A4FF;" points="246.208,155.731 246.208,325.328 236.416,319.675 236.416,150.077 	"/>
	<polygon style="fill:#59A4FF;" points="229.889,146.309 229.889,315.906 220.097,310.253 220.097,140.655 	"/>
	<polygon style="fill:#59A4FF;" points="213.569,136.886 213.569,306.484 203.778,300.831 203.778,131.233 	"/>
	<polygon style="fill:#59A4FF;" points="197.25,127.464 197.25,297.063 187.458,291.408 187.458,121.811 	"/>
</g>
<g>
	<polygon style="fill:#2487FF;" points="265.792,359.248 265.792,494.927 275.583,489.273 275.583,353.595 	"/>
	<polygon style="fill:#2487FF;" points="282.927,349.355 282.927,485.034 292.719,479.38 292.719,343.702 	"/>
	<polygon style="fill:#2487FF;" points="300.063,339.462 300.063,475.141 309.854,469.487 309.854,333.809 	"/>
	<polygon style="fill:#2487FF;" points="317.199,329.568 317.199,465.247 326.991,459.594 326.991,323.916 	"/>
	<polygon style="fill:#2487FF;" points="334.334,319.675 334.334,455.354 344.126,449.7 344.126,314.022 	"/>
</g>
<g>
	<polygon style="fill:#59A4FF;" points="246.208,359.248 246.208,494.927 236.416,489.273 236.416,353.595 	"/>
	<polygon style="fill:#59A4FF;" points="229.073,349.355 229.073,485.034 219.281,479.38 219.281,343.702 	"/>
	<polygon style="fill:#59A4FF;" points="211.937,339.462 211.937,475.141 202.145,469.487 202.145,333.809 	"/>
	<polygon style="fill:#59A4FF;" points="194.802,329.568 194.802,465.247 185.01,459.594 185.01,323.916 	"/>
	<polygon style="fill:#59A4FF;" points="177.666,319.675 177.666,455.354 167.875,449.7 167.875,314.022 	"/>
</g>
<path style="fill:#E0E0E2;" d="M253.359,3.681c-1.452-0.839-1.451-2.212,0.003-3.052s3.832-0.838,5.283,0.004
	s1.449,2.215-0.003,3.052S254.813,4.52,253.359,3.681z"/>
<g>
</g>
<g>
</g>
<g>
</g>
<g>
</g>
<g>
</g>
<g>
</g>
<g>
</g>
<g>
</g>
<g>
</g>
<g>
</g>
<g>
</g>
<g>
</g>
<g>
</g>
<g>
</g>
<g>
</g>
</svg>
