<?xml version="1.0" encoding="iso-8859-1"?>
<!-- Generator: Adobe Illustrator 19.0.0, SVG Export Plug-In . SVG Version: 6.00 Build 0)  -->
<svg version="1.1" id="Layer_1" xmlns="http://www.w3.org/2000/svg" xmlns:xlink="http://www.w3.org/1999/xlink" x="0px" y="0px"
	 viewBox="0 0 512 512" style="enable-background:new 0 0 512 512;" xml:space="preserve">
<polygon style="fill:#898890;" points="22.822,374.085 229.811,493.915 489.179,344.703 281.75,224.501 "/>
<polygon style="fill:#ACABB1;" points="230.092,413.975 401.973,314.739 401.973,199.53 230.092,298.669 "/>
<polygon style="fill:#E0E0E2;" points="22.822,374.085 22.822,392.196 229.811,512 229.811,493.915 "/>
<g>
	<polygon style="fill:#D8D8DA;" points="229.811,512 489.179,364.275 489.179,344.703 229.811,493.915 	"/>
	<path style="fill:#D8D8DA;" d="M302.513,427.179v-13.293c0-0.014,0-0.027,0-0.041v-0.009h-0.001
		c-0.009-3.069-2.024-6.139-6.048-8.475c-8.075-4.686-21.305-4.697-29.401-0.023c-4.049,2.337-6.075,5.419-6.078,8.498v13.337
		c-0.005,3.079,2.015,6.159,6.058,8.493c8.085,4.669,21.316,4.678,29.401,0.023C300.5,433.355,302.521,430.268,302.513,427.179
		L302.513,427.179z"/>
</g>
<path style="fill:#E0E0E2;" d="M267.044,422.326c-8.085-4.669-8.077-12.312,0.02-16.986c8.096-4.674,21.326-4.664,29.401,0.023
	c8.075,4.686,8.065,12.331-0.02,16.986C288.36,427.003,275.129,426.993,267.044,422.326z"/>
<g>
	<path style="fill:#D8D8DA;" d="M294.043,413.837L294.043,413.837V297.601h-24.587v116.236l0,0
		c-0.002,1.822,1.193,3.645,3.587,5.026c4.787,2.764,12.62,2.77,17.407,0.014C292.852,417.493,294.048,415.665,294.043,413.837z"/>
	<path style="fill:#D8D8DA;" d="M354.451,396.856v-13.292c0-0.014,0-0.027,0-0.041v-0.009h-0.001
		c-0.009-3.069-2.024-6.139-6.048-8.475c-8.075-4.686-21.305-4.697-29.401-0.023c-4.049,2.337-6.075,5.419-6.078,8.498v13.337
		c-0.005,3.079,2.015,6.159,6.058,8.493c8.085,4.668,21.316,4.678,29.401,0.023C352.438,403.033,354.46,399.945,354.451,396.856
		L354.451,396.856z"/>
</g>
<path style="fill:#E0E0E2;" d="M318.982,392.003c-8.085-4.669-8.077-12.312,0.02-16.986c8.097-4.674,21.326-4.664,29.401,0.023
	c8.075,4.687,8.065,12.331-0.02,16.986C340.298,396.681,327.067,396.671,318.982,392.003z"/>
<g>
	<path style="fill:#D8D8DA;" d="M345.981,383.514L345.981,383.514l0.001-116.236h-24.587v116.236l0,0
		c-0.002,1.822,1.193,3.645,3.587,5.026c4.787,2.764,12.62,2.77,17.407,0.014C344.79,387.17,345.986,385.343,345.981,383.514z"/>
	<path style="fill:#D8D8DA;" d="M406.389,366.534v-13.293c0-0.014,0-0.027,0-0.041v-0.009h-0.001
		c-0.009-3.069-2.024-6.139-6.048-8.475c-8.075-4.686-21.305-4.697-29.401-0.023c-4.049,2.337-6.075,5.419-6.078,8.498v13.337
		c-0.005,3.079,2.015,6.159,6.058,8.493c8.085,4.669,21.316,4.678,29.401,0.023C404.376,372.709,406.398,369.623,406.389,366.534
		L406.389,366.534z"/>
</g>
<path style="fill:#E0E0E2;" d="M370.92,361.681c-8.085-4.669-8.077-12.312,0.02-16.986c8.097-4.674,21.326-4.664,29.401,0.023
	c8.075,4.686,8.065,12.331-0.02,16.986C392.236,366.358,379.005,366.348,370.92,361.681z"/>
<g>
	<path style="fill:#D8D8DA;" d="M397.919,353.191L397.919,353.191l0.001-116.236h-24.587v116.236l0,0
		c-0.002,1.822,1.193,3.645,3.587,5.026c4.787,2.764,12.62,2.77,17.407,0.014C396.728,356.848,397.924,355.02,397.919,353.191z"/>
	<path style="fill:#D8D8DA;" d="M458.327,336.211v-13.293c0-0.014,0-0.027,0-0.041v-0.009h-0.001
		c-0.009-3.069-2.024-6.139-6.048-8.475c-8.075-4.686-21.305-4.697-29.401-0.023c-4.049,2.337-6.075,5.419-6.078,8.498v13.337
		c-0.005,3.079,2.015,6.159,6.058,8.493c8.085,4.667,21.316,4.678,29.401,0.023C456.314,342.387,458.336,339.3,458.327,336.211
		L458.327,336.211z"/>
</g>
<path style="fill:#E0E0E2;" d="M422.858,331.357c-8.085-4.669-8.077-12.312,0.02-16.986c8.097-4.674,21.326-4.664,29.401,0.023
	c8.075,4.686,8.065,12.331-0.02,16.986C444.174,336.036,430.943,336.026,422.858,331.357z"/>
<g>
	<path style="fill:#D8D8DA;" d="M449.857,322.868L449.857,322.868V206.632H425.27v116.236l0,0c-0.002,1.822,1.193,3.645,3.587,5.026
		c4.787,2.764,12.62,2.77,17.407,0.014C448.666,326.525,449.862,324.697,449.857,322.868z"/>
	<path style="fill:#D8D8DA;" d="M95.833,367.342v-13.293c0-0.014,0-0.027,0-0.041v-0.009h-0.001
		c-0.009-3.069-2.024-6.139-6.048-8.475c-8.075-4.686-21.305-4.697-29.401-0.023c-4.049,2.337-6.075,5.419-6.078,8.498v13.337
		c-0.005,3.079,2.015,6.159,6.058,8.493c8.085,4.668,21.316,4.678,29.401,0.023C93.82,373.517,95.841,370.429,95.833,367.342
		L95.833,367.342z"/>
</g>
<path style="fill:#E0E0E2;" d="M60.363,362.487c-8.085-4.669-8.077-12.312,0.02-16.986c8.097-4.674,21.326-4.664,29.401,0.023
	c8.075,4.686,8.065,12.331-0.02,16.986S68.448,367.156,60.363,362.487z"/>
<g>
	<path style="fill:#D8D8DA;" d="M87.362,353.999L87.362,353.999l0.001-116.236H62.776v116.236l0,0
		c-0.002,1.822,1.193,3.645,3.587,5.026c4.787,2.764,12.62,2.77,17.407,0.014C86.171,357.655,87.368,355.827,87.362,353.999z"/>
	<path style="fill:#D8D8DA;" d="M151.638,341.872V328.58c0-0.014,0-0.027,0-0.041v-0.009h-0.001
		c-0.009-3.069-2.024-6.139-6.048-8.475c-8.075-4.686-21.305-4.697-29.401-0.023c-4.049,2.337-6.075,5.419-6.078,8.498v13.337
		c-0.005,3.079,2.015,6.159,6.058,8.493c8.085,4.668,21.316,4.678,29.401,0.023C149.625,348.047,151.646,344.96,151.638,341.872
		L151.638,341.872z"/>
</g>
<path style="fill:#E0E0E2;" d="M116.168,337.017c-8.085-4.669-8.077-12.312,0.02-16.986c8.097-4.674,21.326-4.664,29.401,0.023
	c8.075,4.686,8.065,12.331-0.02,16.986S124.254,341.686,116.168,337.017z"/>
<path style="fill:#D8D8DA;" d="M143.167,328.528L143.167,328.528l0.001-116.236h-24.587v116.236l0,0
	c-0.002,1.822,1.193,3.645,3.587,5.026c4.787,2.764,12.62,2.77,17.407,0.014C141.976,332.186,143.172,330.357,143.167,328.528z"/>
<polygon style="fill:#C6C5CB;" points="125.53,354.676 125.53,238.3 230.092,298.669 230.092,413.975 "/>
<path style="fill:#D8D8DA;" d="M147.413,397.395v-13.292c0-0.014,0-0.027,0-0.041v-0.009h-0.001
	c-0.009-3.069-2.024-6.139-6.048-8.475c-8.075-4.686-21.305-4.697-29.401-0.023c-4.049,2.337-6.075,5.419-6.078,8.498v13.337
	c-0.005,3.079,2.015,6.159,6.058,8.493c8.085,4.669,21.316,4.678,29.401,0.023C145.401,403.571,147.422,400.483,147.413,397.395
	L147.413,397.395z"/>
<path style="fill:#E0E0E2;" d="M111.944,392.541c-8.085-4.669-8.077-12.312,0.02-16.986c8.096-4.674,21.326-4.664,29.401,0.023
	c8.075,4.687,8.065,12.331-0.02,16.986C133.26,397.219,120.029,397.209,111.944,392.541z"/>
<g>
	<path style="fill:#D8D8DA;" d="M138.943,384.052L138.943,384.052l0.001-116.236h-24.587v116.236l0,0
		c-0.002,1.822,1.193,3.645,3.587,5.026c4.787,2.764,12.62,2.77,17.407,0.014C137.752,387.709,138.949,385.881,138.943,384.052z"/>
	<path style="fill:#D8D8DA;" d="M250.575,457.503v-13.292c0-0.014,0-0.027,0-0.041v-0.009h-0.001
		c-0.009-3.069-2.024-6.139-6.048-8.475c-8.075-4.686-21.305-4.697-29.401-0.023c-4.049,2.337-6.075,5.419-6.078,8.498v13.337
		c-0.005,3.079,2.015,6.159,6.058,8.493c8.085,4.669,21.316,4.678,29.401,0.023C248.562,463.678,250.583,460.591,250.575,457.503
		L250.575,457.503z"/>
</g>
<path style="fill:#E0E0E2;" d="M215.106,452.648c-8.085-4.669-8.077-12.312,0.02-16.986c8.096-4.674,21.326-4.664,29.401,0.023
	c8.075,4.687,8.065,12.331-0.02,16.986C236.422,457.326,223.191,457.317,215.106,452.648z"/>
<path style="fill:#D8D8DA;" d="M242.105,444.159L242.105,444.159l0.001-116.236h-24.587v116.236l0,0
	c-0.002,1.822,1.193,3.645,3.587,5.026c4.787,2.764,12.62,2.77,17.407,0.014C240.914,447.815,242.11,445.988,242.105,444.159z"/>
<polygon style="fill:#77767E;" points="161.001,374.792 161.001,294.306 195.546,314.251 195.238,394.208 "/>
<path style="fill:#D8D8DA;" d="M198.994,427.449v-13.293c0-0.014,0-0.027,0-0.041v-0.009h-0.001
	c-0.009-3.069-2.024-6.139-6.048-8.475c-8.075-4.686-21.305-4.697-29.401-0.023c-4.049,2.337-6.075,5.419-6.078,8.498v13.337
	c-0.005,3.079,2.015,6.159,6.058,8.493c8.085,4.668,21.316,4.678,29.401,0.023C196.982,433.624,199.002,430.537,198.994,427.449
	L198.994,427.449z"/>
<path style="fill:#E0E0E2;" d="M163.526,422.594c-8.085-4.669-8.077-12.312,0.02-16.986c8.097-4.674,21.326-4.664,29.401,0.023
	c8.075,4.686,8.065,12.331-0.02,16.986C184.841,427.273,171.61,427.263,163.526,422.594z"/>
<path style="fill:#D8D8DA;" d="M190.523,414.105L190.523,414.105l0.001-116.236h-24.587v116.236l0,0
	c-0.002,1.822,1.193,3.645,3.587,5.026c4.787,2.764,12.62,2.77,17.407,0.014C189.333,417.763,190.529,415.934,190.523,414.105z"/>
<polygon style="fill:#E0E0E2;" points="40.093,207.848 40.093,227.792 247.364,347.461 247.364,327.516 "/>
<polygon style="fill:#C6C5CB;" points="264.637,317.544 264.637,337.488 247.364,347.461 247.364,327.516 "/>
<polygon style="fill:#E0E0E2;" points="22.822,197.876 264.637,337.488 143.729,167.959 "/>
<polygon style="fill:#C6C5CB;" points="45.698,201.112 140.105,177.753 234.512,310.124 "/>
<polygon style="fill:#E0E0E2;" points="45.698,201.112 57.79,198.12 222.421,293.171 234.512,310.124 "/>
<polygon style="fill:#57565C;" points="143.729,167.959 350.999,48.291 471.907,217.82 264.637,337.488 "/>
<polygon style="fill:#77767E;" points="22.822,197.876 230.092,78.208 350.999,48.291 143.729,167.959 "/>
<path style="fill:#D8D8DA;" d="M345.192,94.803v-0.054h-0.002c0.112-13.347-8.576-26.686-26.103-36.806
	c-35.113-20.273-92.96-20.273-128.548,0c-17.807,10.144-26.791,23.523-26.919,36.903v41.412
	c-0.134,13.364,8.568,26.729,26.138,36.873c35.157,20.298,93.004,20.298,128.548,0c17.763-10.145,26.736-23.51,26.886-36.873h0.001
	v-0.012C345.192,136.239,345.192,94.81,345.192,94.803z"/>
<path style="fill:#77767E;" d="M226.875,171.866c-2.77-0.492-5.504-1.061-8.195-1.707v-20.57c2.691,0.647,5.425,1.215,8.195,1.707
	V171.866z M205.79,145.751c-2.815-1.011-5.552-2.117-8.195-3.323v20.57c2.643,1.206,5.38,2.311,8.195,3.323V145.751z
	 M247.961,153.52c-2.743-0.101-5.476-0.272-8.195-0.514v20.57c2.719,0.242,5.452,0.413,8.195,0.514V153.52z M184.704,135.225
	c-3.066-2.093-5.799-4.291-8.195-6.579v20.57c2.396,2.287,5.129,4.487,8.195,6.579V135.225z M332.303,128.136
	c-2.395,2.304-5.133,4.52-8.195,6.632v20.57c3.062-2.112,5.8-4.328,8.195-6.632V128.136z M311.218,142.064
	c-2.641,1.224-5.382,2.342-8.195,3.371v20.57c2.812-1.029,5.554-2.147,8.195-3.371V142.064z M290.132,149.351
	c-2.691,0.665-5.425,1.253-8.195,1.763v20.57c2.77-0.51,5.504-1.097,8.195-1.763V149.351z M269.046,152.907
	c-2.719,0.26-5.452,0.451-8.195,0.571v20.57c2.743-0.119,5.476-0.31,8.195-0.571V152.907z"/>
<path style="fill:#E0E0E2;" d="M189.757,131.708c-35.157-20.298-34.806-53.493,0.782-73.766s93.434-20.273,128.548,0
	s34.762,53.468-0.782,73.766S224.916,152.007,189.757,131.708z"/>
<path style="fill:#57565C;" d="M333.809,93.262c-0.044,11.762-7.899,23.539-23.526,32.456c-31.09,17.76-81.698,17.76-112.456,0
	c-15.117-8.728-22.726-20.17-22.857-31.671c-0.015-0.204-0.015-0.406-0.015-0.596c0-43.856,35.564-79.418,79.433-79.418
	c43.652,0,79.085,35.229,79.405,78.795C333.809,92.971,333.809,93.116,333.809,93.262z"/>
<path style="fill:#77767E;" d="M311.905,89.74c-0.036,9.535-6.404,19.082-19.07,26.309c-25.203,14.396-66.227,14.396-91.159,0
	c-12.254-7.075-18.422-16.35-18.528-25.674c-0.011-0.165-0.011-0.329-0.011-0.483c0-35.55,28.828-64.378,64.39-64.378
	c35.385,0,64.108,28.558,64.367,63.873C311.905,89.505,311.905,89.623,311.905,89.74z"/>
<path style="fill:#D8D8DA;" d="M258.235,2.197V2.195l0,0c0.005-0.563-0.362-1.125-1.101-1.553c-1.481-0.855-3.921-0.855-5.422,0
	c-0.751,0.427-1.13,0.993-1.136,1.557v34.289c-0.005,0.563,0.362,1.127,1.102,1.555c1.483,0.856,3.922,0.856,5.422,0
	c0.749-0.427,1.127-0.992,1.134-1.555l0,0l0,0V2.197H258.235z"/>
<path style="fill:#E0E0E2;" d="M251.679,3.753c-1.483-0.856-1.468-2.256,0.033-3.112c1.501-0.855,3.941-0.855,5.422,0
	c1.481,0.855,1.466,2.255-0.033,3.112C255.602,4.61,253.162,4.61,251.679,3.753z"/>
<g>
</g>
<g>
</g>
<g>
</g>
<g>
</g>
<g>
</g>
<g>
</g>
<g>
</g>
<g>
</g>
<g>
</g>
<g>
</g>
<g>
</g>
<g>
</g>
<g>
</g>
<g>
</g>
<g>
</g>
</svg>
