<?xml version="1.0" encoding="iso-8859-1"?>
<!-- Generator: Adobe Illustrator 19.0.0, SVG Export Plug-In . SVG Version: 6.00 Build 0)  -->
<svg version="1.1" id="Layer_1" xmlns="http://www.w3.org/2000/svg" xmlns:xlink="http://www.w3.org/1999/xlink" x="0px" y="0px"
	 viewBox="0 0 512 512" style="enable-background:new 0 0 512 512;" xml:space="preserve">
<polygon style="fill:#898890;" points="30.183,357.325 13.456,386.297 230.638,512 498.544,357.325 481.817,328.87 280.936,212.463 
	"/>
<polygon style="fill:#E0E0E2;" points="30.183,357.325 13.456,386.297 230.638,512 230.909,473.214 "/>
<g>
	<polygon style="fill:#D8D8DA;" points="230.638,512 498.544,357.325 481.817,328.87 230.909,473.214 	"/>
	<path style="fill:#D8D8DA;" d="M100.889,350.794v-12.872c0-0.014,0-0.026,0-0.04v-0.009h-0.001
		c-0.009-2.972-1.959-5.946-5.857-8.207c-7.82-4.539-20.633-4.548-28.473-0.022c-3.922,2.264-5.884,5.248-5.886,8.23v12.916
		c-0.004,2.982,1.951,5.964,5.867,8.226c7.83,4.52,20.642,4.531,28.473,0.022C98.941,356.774,100.898,353.784,100.889,350.794
		L100.889,350.794z"/>
</g>
<path style="fill:#E0E0E2;" d="M66.54,346.093c-7.83-4.52-7.821-11.924,0.019-16.45s20.653-4.517,28.473,0.022
	c7.819,4.539,7.811,11.941-0.019,16.45S74.371,350.613,66.54,346.093z"/>
<g>
	<path style="fill:#D8D8DA;" d="M92.687,337.873L92.687,337.873V183.489h-23.81v154.384l0,0c-0.001,1.765,1.156,3.529,3.473,4.867
		c4.636,2.676,12.221,2.682,16.858,0.013C91.533,341.413,92.692,339.643,92.687,337.873z"/>
	<path style="fill:#D8D8DA;" d="M154.932,326.128v-12.872c0-0.014,0-0.026,0-0.04v-0.009h-0.001
		c-0.009-2.972-1.959-5.946-5.857-8.207c-7.82-4.539-20.633-4.548-28.473-0.022c-3.922,2.264-5.884,5.248-5.886,8.23v12.916
		c-0.004,2.982,1.951,5.964,5.867,8.226c7.83,4.52,20.642,4.531,28.473,0.022C152.984,332.109,154.941,329.119,154.932,326.128
		L154.932,326.128z"/>
</g>
<path style="fill:#E0E0E2;" d="M120.583,321.428c-7.83-4.52-7.821-11.924,0.019-16.45c7.84-4.527,20.653-4.517,28.473,0.022
	c7.819,4.539,7.811,11.941-0.019,16.45C141.226,325.958,128.414,325.948,120.583,321.428z"/>
<polygon style="fill:#ACABB1;" points="230.909,395.954 397.363,299.852 397.363,146.463 230.909,242.471 "/>
<polygon style="fill:#C6C5CB;" points="129.65,338.528 129.65,184.009 230.909,242.471 230.909,395.954 "/>
<polygon style="fill:#02665A;" points="164,358.009 164,293.224 197.455,312.539 197.156,376.812 "/>
<path style="fill:#D8D8DA;" d="M150.842,379.898v-12.872c0-0.014,0-0.026,0-0.04v-0.009h-0.001
	c-0.009-2.972-1.959-5.946-5.857-8.207c-7.82-4.539-20.633-4.549-28.473-0.022c-3.922,2.264-5.884,5.248-5.886,8.23v12.916
	c-0.004,2.982,1.951,5.964,5.867,8.226c7.83,4.52,20.642,4.531,28.473,0.022C148.893,385.879,150.85,382.889,150.842,379.898
	L150.842,379.898z"/>
<path style="fill:#E0E0E2;" d="M116.492,375.198c-7.83-4.52-7.821-11.924,0.019-16.45c7.84-4.527,20.653-4.517,28.473,0.022
	c7.819,4.539,7.811,11.941-0.019,16.45C137.135,379.728,124.323,379.718,116.492,375.198z"/>
<g>
	<path style="fill:#D8D8DA;" d="M142.639,366.977L142.639,366.977l0.001-154.384h-23.81v154.384l0,0
		c-0.001,1.765,1.156,3.529,3.473,4.867c4.636,2.676,12.221,2.682,16.858,0.013C141.485,370.518,142.644,368.748,142.639,366.977z"
		/>
	<path style="fill:#D8D8DA;" d="M200.794,409.003v-12.872c0-0.014,0-0.026,0-0.04v-0.008h-0.001
		c-0.009-2.972-1.959-5.946-5.857-8.207c-7.82-4.539-20.633-4.548-28.473-0.022c-3.922,2.264-5.884,5.248-5.886,8.23V409
		c-0.004,2.982,1.951,5.964,5.867,8.226c7.83,4.52,20.642,4.531,28.473,0.022C198.845,414.984,200.802,411.993,200.794,409.003
		L200.794,409.003z"/>
</g>
<path style="fill:#E0E0E2;" d="M166.444,404.302c-7.83-4.52-7.821-11.923,0.019-16.45c7.84-4.527,20.653-4.517,28.473,0.022
	c7.819,4.539,7.811,11.941-0.019,16.45C187.087,408.833,174.275,408.823,166.444,404.302z"/>
<g>
	<path style="fill:#D8D8DA;" d="M192.591,396.082L192.591,396.082l0.001-154.384h-23.81v154.384l0,0
		c-0.001,1.765,1.156,3.529,3.473,4.867c4.636,2.676,12.221,2.682,16.858,0.013C191.437,399.623,192.596,397.853,192.591,396.082z"
		/>
	<path style="fill:#D8D8DA;" d="M250.746,438.108v-12.872c0-0.014,0-0.026,0-0.04v-0.009h-0.001
		c-0.009-2.972-1.959-5.946-5.857-8.207c-7.82-4.539-20.633-4.548-28.473-0.022c-3.922,2.264-5.884,5.248-5.886,8.23v12.916
		c-0.004,2.982,1.951,5.964,5.867,8.226c7.83,4.52,20.642,4.531,28.473,0.022C248.797,444.088,250.754,441.098,250.746,438.108
		L250.746,438.108z"/>
</g>
<path style="fill:#E0E0E2;" d="M216.396,433.407c-7.83-4.52-7.821-11.924,0.019-16.45c7.84-4.527,20.653-4.517,28.473,0.022
	c7.819,4.539,7.811,11.941-0.019,16.45C237.04,437.938,224.227,437.927,216.396,433.407z"/>
<g>
	<path style="fill:#D8D8DA;" d="M242.543,425.187L242.543,425.187l0.001-154.384h-23.81v154.384l0,0
		c-0.001,1.765,1.156,3.529,3.473,4.867c4.636,2.676,12.221,2.682,16.858,0.013C241.39,428.727,242.548,426.957,242.543,425.187z"/>
	<path style="fill:#D8D8DA;" d="M301.044,408.743V395.87c0-0.014,0-0.026,0-0.04v-0.009h-0.001
		c-0.009-2.972-1.959-5.946-5.857-8.207c-7.819-4.539-20.633-4.548-28.473-0.022c-3.922,2.264-5.884,5.248-5.886,8.23v12.916
		c-0.004,2.982,1.951,5.964,5.867,8.226c7.83,4.52,20.642,4.531,28.473,0.022C299.095,414.723,301.052,411.733,301.044,408.743
		L301.044,408.743z"/>
</g>
<path style="fill:#E0E0E2;" d="M266.695,404.042c-7.83-4.52-7.821-11.924,0.019-16.45c7.84-4.527,20.653-4.517,28.473,0.022
	c7.819,4.539,7.811,11.941-0.019,16.45C287.337,408.572,274.525,408.562,266.695,404.042z"/>
<g>
	<path style="fill:#D8D8DA;" d="M292.841,395.821L292.841,395.821V241.438h-23.81v154.384l0,0c-0.001,1.765,1.156,3.529,3.473,4.867
		c4.636,2.676,12.221,2.682,16.858,0.013C291.687,399.362,292.846,397.591,292.841,395.821z"/>
	<path style="fill:#D8D8DA;" d="M351.341,379.376v-12.872c0-0.014,0-0.026,0-0.04v-0.009h-0.001
		c-0.009-2.972-1.959-5.946-5.857-8.207c-7.819-4.539-20.633-4.548-28.473-0.022c-3.922,2.264-5.883,5.248-5.886,8.23v12.916
		c-0.004,2.982,1.951,5.964,5.867,8.226c7.83,4.52,20.642,4.531,28.473,0.022C349.393,385.358,351.35,382.368,351.341,379.376
		L351.341,379.376z"/>
</g>
<path style="fill:#E0E0E2;" d="M316.993,374.676c-7.83-4.52-7.821-11.924,0.019-16.45c7.84-4.527,20.653-4.517,28.473,0.022
	c7.819,4.539,7.811,11.941-0.019,16.45C337.636,379.207,324.823,379.197,316.993,374.676z"/>
<g>
	<path style="fill:#D8D8DA;" d="M343.139,366.455L343.139,366.455V212.071h-23.81v154.384l0,0c-0.001,1.765,1.156,3.529,3.473,4.867
		c4.636,2.676,12.221,2.682,16.858,0.013C341.985,369.996,343.144,368.226,343.139,366.455z"/>
	<path style="fill:#D8D8DA;" d="M401.64,350.011v-12.872c0-0.014,0-0.026,0-0.04v-0.008h-0.001
		c-0.009-2.972-1.959-5.946-5.857-8.207c-7.82-4.539-20.633-4.549-28.473-0.022c-3.922,2.264-5.883,5.248-5.886,8.23v12.916
		c-0.004,2.982,1.951,5.964,5.867,8.226c7.83,4.52,20.642,4.531,28.473,0.022C399.692,355.992,401.649,353.003,401.64,350.011
		L401.64,350.011z"/>
</g>
<path style="fill:#E0E0E2;" d="M367.291,345.311c-7.83-4.52-7.821-11.923,0.019-16.45c7.84-4.527,20.653-4.517,28.473,0.022
	s7.811,11.941-0.019,16.45C387.934,349.842,375.121,349.832,367.291,345.311z"/>
<g>
	<path style="fill:#D8D8DA;" d="M393.437,337.09L393.437,337.09V182.706h-23.809V337.09l0,0c-0.001,1.765,1.156,3.529,3.473,4.867
		c4.636,2.676,12.221,2.682,16.858,0.013C392.283,340.631,393.442,338.861,393.437,337.09z"/>
	<path style="fill:#D8D8DA;" d="M451.938,320.646v-12.872c0-0.014,0-0.026,0-0.04v-0.008h-0.001
		c-0.009-2.972-1.959-5.946-5.857-8.207c-7.819-4.539-20.633-4.548-28.473-0.022c-3.922,2.264-5.884,5.248-5.886,8.23v12.916
		c-0.004,2.982,1.951,5.964,5.867,8.226c7.83,4.52,20.642,4.531,28.473,0.022C449.99,326.627,451.947,323.638,451.938,320.646
		L451.938,320.646z"/>
</g>
<path style="fill:#E0E0E2;" d="M417.589,315.946c-7.83-4.52-7.821-11.924,0.019-16.45s20.653-4.517,28.473,0.022
	c7.819,4.539,7.811,11.941-0.019,16.45C438.231,320.476,425.418,320.466,417.589,315.946z"/>
<path style="fill:#D8D8DA;" d="M443.735,307.725L443.735,307.725V153.341h-23.81v154.384l0,0c-0.001,1.765,1.156,3.529,3.473,4.867
	c4.636,2.676,12.221,2.682,16.858,0.013C442.582,311.266,443.741,309.496,443.735,307.725z"/>
<polygon style="fill:#E0E0E2;" points="46.91,154.519 46.91,173.834 247.636,289.723 247.636,270.408 "/>
<polygon style="fill:#C6C5CB;" points="264.363,260.751 264.363,280.065 247.636,289.723 247.636,270.408 "/>
<polygon style="fill:#02665A;" points="147.273,115.889 38.547,140.033 230.909,28.972 347.999,0 465.089,164.176 264.363,280.065 
	"/>
<polygon style="fill:#D8D8DA;" points="30.183,144.861 264.363,280.065 147.273,115.889 "/>
<polygon style="fill:#C6C5CB;" points="52.339,147.995 143.764,125.374 235.19,253.565 "/>
<path style="fill:#008778;" d="M154.375,171.168c-0.467-1.413-1.137-2.771-2.01-4.098c-0.863-1.309-1.929-2.601-3.177-3.875
	c-1.259-1.267-2.656-2.579-4.183-3.939l-1.11-0.948l0.025-8.799c0.854,0.591,1.686,1.269,2.476,2.007
	c0.8,0.757,1.526,1.495,2.197,2.239c0.661,0.738,1.237,1.427,1.717,2.035c0.49,0.627,0.82,1.1,1.001,1.45l2.718-4.146
	c-1.247-1.703-2.675-3.389-4.318-5.087c-1.632-1.692-3.424-3.182-5.378-4.482l0.015-5.142l-1.813-1.047l-0.836-0.483l-0.015,5.191
	c-1.421-0.685-2.746-1.107-3.997-1.287c-1.24-0.176-2.31-0.043-3.21,0.383c-0.91,0.433-1.619,1.167-2.135,2.209
	c-0.527,1.047-0.788,2.409-0.792,4.102c-0.004,1.399,0.174,2.695,0.545,3.916c0.36,1.204,0.913,2.407,1.648,3.594
	c0.745,1.205,1.662,2.398,2.771,3.591c1.098,1.2,2.411,2.473,3.915,3.821c0.266,0.252,0.522,0.498,0.789,0.726
	c0.266,0.24,0.534,0.48,0.8,0.696l-0.025,8.75c-1.068-0.751-2.092-1.589-3.073-2.537c-0.993-0.941-1.888-1.864-2.699-2.75
	c-0.811-0.898-1.504-1.728-2.078-2.504c-0.576-0.774-0.98-1.365-1.214-1.771l-2.719,4.49c1.588,2.219,3.368,4.28,5.331,6.212
	c1.952,1.926,3.969,3.582,6.041,4.95l-0.016,5.646l2.649,1.529l0.016-5.597c1.452,0.765,2.831,1.316,4.146,1.656
	c1.314,0.329,2.47,0.356,3.466,0.084c0.985-0.279,1.768-0.909,2.348-1.902c0.581-0.993,0.874-2.421,0.879-4.286
	C155.073,174.103,154.842,172.568,154.375,171.168z M142.04,156.622c-1.419-1.286-2.474-2.437-3.167-3.427
	c-0.693-1.002-1.031-2.071-1.028-3.225c0.007-2.479,1.41-3.008,4.219-1.583L142.04,156.622z M143.853,173.735l0.023-8.197
	c1.472,1.391,2.624,2.658,3.456,3.777c0.82,1.125,1.234,2.261,1.231,3.415C148.555,175.11,146.983,175.43,143.853,173.735z"/>
<polygon style="fill:#E0E0E2;" points="52.339,147.995 64.048,145.098 223.481,237.147 235.19,253.565 "/>
<polygon style="fill:#008778;" points="30.183,144.861 230.909,28.972 347.999,0 147.273,115.889 "/>
<g>
</g>
<g>
</g>
<g>
</g>
<g>
</g>
<g>
</g>
<g>
</g>
<g>
</g>
<g>
</g>
<g>
</g>
<g>
</g>
<g>
</g>
<g>
</g>
<g>
</g>
<g>
</g>
<g>
</g>
</svg>
