<?xml version="1.0" encoding="iso-8859-1"?>
<!-- Generator: Adobe Illustrator 21.0.0, SVG Export Plug-In . SVG Version: 6.00 Build 0)  -->
<svg xmlns="http://www.w3.org/2000/svg" xmlns:xlink="http://www.w3.org/1999/xlink" version="1.1" id="Capa_1" x="0px" y="0px" viewBox="0 0 512 512" style="enable-background:new 0 0 512 512;" xml:space="preserve" width="512" height="512">
<g>
	<g>
		<polygon style="fill:#3A658C;" points="205.494,146.717 174.788,204.079 174.788,430.675 218.403,452.965 291.017,452.965     337.272,430.675 337.272,204.079 306.507,146.717 285.029,47.193 256,10 226.971,47.193 222,70.23   "/>
	</g>
	<g>
		<polygon style="fill:#D4EFFC;" points="174.79,204.08 174.79,327.97 156.46,364.86 54.8,381.8 54.8,290.03 95.1,261.16     95.1,303.28 126.92,278.45 126.92,238.37   "/>
	</g>
	<g>
		<polygon style="fill:#FACF23;" points="54.794,281.378 41.886,264.582 12.97,264.582 12.97,397.999 54.794,397.999   "/>
	</g>
	<g>
		<polygon style="fill:#D4EFFC;" points="457.21,290.03 457.21,381.8 355.62,364.86 337.28,327.97 337.28,204.08 386.45,239.32     386.45,278.45 418.27,303.28 418.27,262.12   "/>
	</g>
	<g>
		<polygon style="fill:#FACF23;" points="457.206,281.378 470.115,264.582 499.03,264.582 499.03,397.999 457.206,397.999   "/>
	</g>
	<g>
		<polygon style="fill:#D4EFFC;" points="174.788,327.966 102.756,472.921 102.756,502 174.788,430.675   "/>
	</g>
	<g>
		<polygon style="fill:#D4EFFC;" points="337.272,327.966 409.328,472.921 409.328,502 337.272,430.675   "/>
	</g>
	<g>
		<polygon style="fill:#FF7A8C;" points="386.447,278.453 386.447,198.559 418.27,223.48 418.27,303.276   "/>
	</g>
	<g>
		<polygon style="fill:#FF7A8C;" points="126.922,278.453 126.922,198.559 95.099,223.48 95.099,303.276   "/>
	</g>
	<g>
		<polygon style="fill:#B2D5F6;" points="255.88,138.861 255.88,210.949 206.261,269.917 206.261,230.482   "/>
	</g>
	<g>
		<polygon style="fill:#B2D5F6;" points="255.88,138.861 255.88,210.949 305.5,269.917 305.5,230.482   "/>
	</g>
	<g>
		<polygon style="fill:#FF7A8C;" points="226.971,47.193 244.443,64.17 267.557,64.17 285.029,47.193 256,10   "/>
	</g>
	<g>
		<polygon style="fill:#FACF23;" points="218.403,452.965 241.123,414.983 268.666,414.983 291.017,452.965   "/>
	</g>
	<g>
		<path style="fill:#231F20;" d="M499.03,254.582h-28.915c-3.106,0-6.036,1.443-7.929,3.907l-11.301,14.704l-22.614-16.208V223.48    c0-3.074-1.414-5.978-3.835-7.873l-31.823-24.921c-3.013-2.359-7.106-2.792-10.544-1.117c-3.438,1.675-5.621,5.165-5.621,8.99    v21.289l-31.465-22.551l-28.999-54.066l-21.179-98.148c-0.314-1.456-0.977-2.87-1.893-4.043L263.883,3.847    C261.989,1.419,259.08,0,256,0s-5.988,1.419-7.883,3.847L219.088,41.04c-0.915,1.173-1.579,2.588-1.893,4.043l-4.972,23.037    c-1.165,5.398,2.268,10.719,7.666,11.884c5.397,1.163,10.72-2.267,11.885-7.666l1.166-5.403l4.534,4.406    c1.866,1.813,4.366,2.828,6.969,2.828h23.113c2.603,0,5.103-1.015,6.969-2.828l4.534-4.406l17.671,81.89    c0.197,0.913,0.521,1.794,0.963,2.617l29.579,55.148v53.326h-11.773v-29.435c0-1.663-0.415-3.3-1.207-4.762l-49.619-91.622    c-3.727-6.833-13.85-6.849-17.586,0l-49.619,91.622c-0.792,1.462-1.207,3.099-1.207,4.762v29.435H184.79v-53.334l29.52-55.147    c2.606-4.869,0.772-10.929-4.097-13.536c-4.871-2.607-10.931-0.771-13.536,4.097l-29.608,55.312l-30.148,21.596v-20.347    c0-3.825-2.183-7.315-5.621-8.99c-3.438-1.674-7.531-1.241-10.545,1.117l-31.822,24.921c-2.42,1.896-3.834,4.799-3.834,7.873    v32.543L61.121,273.2l-11.306-14.712c-1.893-2.463-4.822-3.907-7.929-3.907H12.971c-5.522,0-10,4.477-10,10v133.417    c0,5.523,4.478,10,10,10h41.823c5.522,0,10-4.477,10-10v-7.727l73.993-12.33l-44.986,90.529c-0.688,1.383-1.045,2.906-1.045,4.45    V502c0,4.036,2.426,7.676,6.15,9.229c1.244,0.519,2.551,0.771,3.848,0.771c2.585,0,5.128-1.003,7.038-2.895l66.89-66.233    l37.17,18.996c0.127,0.065,0.261,0.112,0.39,0.171c0.16,0.073,0.318,0.146,0.482,0.211c0.231,0.092,0.467,0.168,0.704,0.242    c0.161,0.05,0.32,0.105,0.484,0.147c0.264,0.068,0.533,0.116,0.802,0.162c0.143,0.025,0.283,0.058,0.428,0.077    c0.417,0.053,0.838,0.084,1.261,0.084h72.615c0.414,0,0.826-0.031,1.234-0.082c0.137-0.017,0.271-0.047,0.406-0.069    c0.269-0.045,0.537-0.095,0.801-0.162c0.154-0.039,0.305-0.086,0.457-0.132c0.241-0.073,0.479-0.154,0.715-0.245    c0.151-0.059,0.301-0.12,0.449-0.186c0.092-0.041,0.187-0.072,0.278-0.115l39.896-19.225l67.039,66.359    c1.91,1.891,4.452,2.894,7.037,2.894c1.297,0,2.604-0.252,3.849-0.771c3.724-1.554,6.149-5.194,6.149-9.229v-29.079    c0-1.544-0.357-3.068-1.045-4.451l-45-90.527l73.923,12.327v7.729c0,5.523,4.478,10,10,10h41.823c5.522,0,10-4.477,10-10V264.582    C509.03,259.059,504.552,254.582,499.03,254.582z M263.498,54.17h-14.996l-8.128-7.897L256,26.253l15.626,20.02L263.498,54.17z     M408.271,228.35v33.756c0,0.005-0.001,0.009-0.001,0.014v20.672l-11.819-9.223V239.32c0-0.016-0.003-0.032-0.003-0.049v-20.18    L408.271,228.35z M295.499,242.501l-29.619-35.2v-28.978l29.619,54.692V242.501z M216.261,233.017l29.619-54.692v28.978    l-29.619,35.2V233.017z M206.248,279.917c2.92,0,5.784-1.326,7.665-3.562l41.968-49.875l41.968,49.875    c1.881,2.236,4.745,3.562,7.665,3.562h21.76v43.642L291.784,356h-73.243l-33.751-32.302v-43.78H206.248z M116.921,219.092v19.262    c0,0.006-0.001,0.011-0.001,0.016v35.199l-10.739,8.379l-1.082,0.844V261.16c0-0.005-0.001-0.009-0.001-0.014V228.35    L116.921,219.092z M44.794,387.999H22.971V274.582h13.988l7.835,10.195V387.999z M64.8,369.996v-74.829l20.299-14.542v22.651    c0,3.695,2.14,7.283,5.478,8.921c3.438,1.688,7.634,1.34,10.676-1.034l18.755-14.635l13.064-10.19    c2.43-1.895,3.85-4.804,3.85-7.885v-34.946l27.867-19.962v102.073l-15.016,30.217L64.8,369.996z M112.756,475.269l52.032-104.708    v55.942l-52.032,51.521V475.269z M184.788,351.379l22.824,21.845c1.86,1.782,4.338,2.776,6.914,2.776h81.14    c2.497,0,4.904-0.934,6.747-2.619l24.859-22.725v73.737l-32.305,15.567l-17.683-30.049c-1.797-3.054-5.075-4.928-8.618-4.928    h-27.543c-3.518,0-6.776,1.848-8.582,4.866l-17.918,29.953l-29.835-15.247V351.379z M236.037,442.964l10.757-17.981h16.154    l10.581,17.981H236.037z M399.328,478.031l-52.056-51.528v-55.954l52.056,104.721V478.031z M362.302,355.836l-15.021-30.215    V223.55l29.167,20.904v33.999c0,3.081,1.42,5.99,3.85,7.885l15.821,12.34l16,12.485c3.043,2.372,7.236,2.723,10.676,1.034    c3.338-1.64,5.478-5.226,5.478-8.921v-21.684l18.936,13.571v74.831L362.302,355.836z M489.03,387.999h-21.823v-6.128    c0-0.024,0.004-0.047,0.004-0.071v-91.77c0-0.022-0.004-0.043-0.004-0.065v-5.187l7.835-10.195h13.988V387.999z"/>
		<path style="fill:#231F20;" d="M205.29,112.64c1.622,3.894,5.659,6.449,9.887,6.157c4.06-0.28,7.615-3.048,8.863-6.922    c1.281-3.974-0.115-8.452-3.428-10.991c-3.315-2.541-7.985-2.734-11.496-0.472C205.11,102.994,203.451,108.228,205.29,112.64z"/>
	</g>
</g>















</svg>
