<svg height="512" viewBox="0 0 60 60" width="512" xmlns="http://www.w3.org/2000/svg"><g id="Page-1" fill="none" fill-rule="evenodd"><g id="003---VS" fill-rule="nonzero" transform="translate(0 -1)"><g id="Icons" transform="translate(1 2)"><path id="Shape" d="m23.65 45.63-3.92 4.53-3.75-3.24-4.57-3.96-3.78-3.27 3.93-4.53 2.27 1.96z" fill="#ff9801"/><path id="Shape" d="m29 35-7.61 8.66-7.56-6.54 8.51-9.7z" fill="#607d8b"/><path id="Shape" d="m50.54 9.62c-.3287742.9405874-.8345399 1.809554-1.49 2.56l-13.39 15.24-6.66-7.6 12.12-13.82 4.95-5.65c.1723833-.20157624.4177863-.32641189.6822166-.34704121.2644304-.02062932.5262244.06463777.7277834.23704121l.76.66c2.4880259 2.15643155 3.4007848 5.61697847 2.3 8.72z" fill="#607d8b"/><path id="Shape" d="m48.24.9-.76-.66c-.201559-.17240344-.463353-.25767053-.7277834-.23704121-.2644303.02062932-.5098333.14546497-.6822166.34704121l-.646.737c2.3478765 2.16548478 3.1800771 5.52142428 2.116 8.533-.3287742.9405874-.8345399 1.809554-1.49 2.56l-11.888 13.531 1.5 1.709 13.388-15.24c.6554601-.750446 1.1612258-1.6194126 1.49-2.56 1.1007848-3.10302153.1880259-6.56356845-2.3-8.72z" fill="#37474f"/><path id="Shape" d="m9.99 53.82c.0851641 1.7980908-1.04125106 3.4315677-2.75218844 3.9911005-1.71093738.5595327-3.5848656-.0927333-4.57859907-1.5936922-.99373348-1.5009588-.86244162-3.4808124.32078751-4.8374083 1.45172117-1.6583999 3.96875311-1.8369128 5.64-.4.8303164.7160485 1.32640693 1.7444406 1.37 2.84z" fill="#ffdc00"/><path id="Shape" d="m15.98 46.92-5.99 6.9c-.04908714-1.1590185-.60115953-2.2390086-1.51186537-2.9575824-.91070585-.7185738-2.0894907-1.0042812-3.22813463-.7824176l6.16-7.12z" fill="#91562d"/><path id="Shape" d="m11.56 35.16-3.93 4.53c-.46067177.5653024-1.19251238.835064-1.90987249.7039924s-1.30652164-.6421985-1.53752521-1.3338795c-.23100358-.691681-.06722982-1.4542688.4273977-1.9901129l2.28-2.63 1.64-1.9c.38132142-.4425316.93584603-.6979048 1.52-.7.4784423.0001382.9405007.1742986 1.3.49.8376704.7244003.9315764 1.9898958.21 2.83z" fill="#ffdc00"/><rect id="Rectangle-path" fill="#ffdc00" height="10" rx="2" transform="matrix(.756 .655 -.655 .756 37.867 -3.183)" width="4" x="21.203" y="44.205"/><path id="Shape" d="m50.37 39.69-3.78 3.27-4.57 3.96-3.75 3.24-3.92-4.53 9.82-8.51 2.27-1.96z" fill="#ff9801"/><path id="Shape" d="m44.17 37.12-7.56 6.54-7.61-8.66-6.66-7.58-13.39-15.24c-.65546007-.750446-1.16122584-1.6194126-1.49-2.56-1.10078481-3.10302153-.18802588-6.56356845 2.3-8.72l.76-.66c.201559-.17240344.463353-.25767053.7277834-.23704121.2644303.02062932.5098333.14546497.6822166.34704121l4.95 5.65 12.12 13.82 6.66 7.6z" fill="#7f8e94"/><path id="Shape" d="m11.93.35c-.1723833-.20157624-.4177863-.32641189-.6822166-.34704121-.2644304-.02062932-.5262244.06463777-.7277834.23704121l-.76.66c-.067.058-.12.127-.184.187 5 5.707 24.032 27.413 31.594 36.033l-5.856 5.066 1.3 1.474 7.56-6.54c-11.212-12.775-28.431-32.42-32.244-36.77z" fill="#545c60"/><path id="Shape" d="m54.62 57.02c-1.4092726 1.2257396-3.4792225 1.3130346-4.9866927.2103015-1.5074702-1.1027332-2.0511337-3.1019188-1.3097334-4.8162153s2.5704846-2.6873143 4.4064261-2.3440862l.01.01c.8880519.1550074 1.6943016.6147112 2.28 1.3.6961631.8003789 1.0452378 1.8448725.9701939 2.9029925-.075044 1.05812-.5680383 2.0428923-1.3701939 2.7370075z" fill="#ffdc00"/><path id="Shape" d="m55.02 51.38c-.5856984-.6852888-1.3919481-1.1449926-2.28-1.3l-.01-.01c-.7452793-.1332611-1.5131638-.049252-2.212.242.578474.2304443 1.0929691.5967648 1.5 1.068.8585131.9674491 1.1898597 2.29349.887326 3.5510575s-1.2007339 2.2878157-2.405326 2.7589425c1.7106703.7022967 3.6797306.1368029 4.7570673-1.3661805 1.0773366-1.5029835.9804508-3.5493449-.2340673-4.9438195z" fill="#fec108"/><path id="Shape" d="m52.73 50.07c-1.1368458-.2123375-2.3098988.078911-3.2154061.7983288-.9055073.7194179-1.4544173 1.7962545-1.5045939 2.9516712l-5.99-6.9 4.57-3.96z" fill="#91562d"/><path id="Shape" d="m46.59 42.96-1.716 1.487 4.856 5.623c-1.1971095-.2259011-2.4317124.1094686-3.35.91-.1560661.1429273-.300832.2977232-.433.463l2.063 2.377c.0501766-1.1554167.5990866-2.2322533 1.5045939-2.9516712.9055073-.7194178 2.0785603-1.0106663 3.2154061-.7983288z" fill="#6d4122"/><path id="Shape" d="m53.19 39.89c-.3992184.3502607-.9219877.5262219-1.4517482.4886502s-1.0224631-.2855522-1.3682518-.6886502l-3.93-4.53c-.7215764-.8401042-.6276704-2.1055997.21-2.83.3594993-.3157014.8215577-.4898618 1.3-.49.584154.0020952 1.1386786.2574684 1.52.7l1.64 1.9 2.28 2.63c.350519.3991028.5266492.9219343.4890717 1.4517781-.0375776.5298439-.2857343 1.0225841-.6890717 1.3682219z" fill="#ffdc00"/><rect id="Rectangle-path" fill="#ffdc00" height="10" rx="2" transform="matrix(-.756 .655 -.655 -.756 93.311 63.629)" width="4" x="32.798" y="44.204"/><path id="Shape" d="m22.34 27.42-8.51 9.7-2.27-1.96c.7215764-.8401042.6276704-2.1055997-.21-2.83-.3594993-.3157014-.8215577-.4898618-1.3-.49-.58415397.0020952-1.13867858.2574684-1.52.7l-1.64 1.9-.89-4.44-3 1 1-4h-4l2-3-2-2 2-2-2-3h4l-1-4 3 1 1.46-4.38c.32877416.9405874.83453993 1.809554 1.49 2.56z" fill="#f44335"/><path id="Shape" d="m58 22-2 2 2 3h-4l1 4-3-1-.89 4.44-1.64-1.9c-.3813214-.4425316-.935846-.6979048-1.52-.7-.4784423.0001382-.9405007.1742986-1.3.49-.8376704.7244003-.9315764 1.9898958-.21 2.83l-2.27 1.96-8.51-9.7 13.39-15.24c.6554601-.750446 1.1612258-1.6194126 1.49-2.56l1.46 4.38 3-1-1 4h4l-2 3z" fill="#f44335"/><g fill="#c81e1e"><path id="Shape" d="m54 17 1-4-3 1-.143-.429-.857 3.429z"/><path id="Shape" d="m51 27 .889 3.555.111-.555 3 1-1-4z"/><path id="Shape" d="m56 20 2-3h-3l-2 3 2 2-2 2 2 3h3l-2-3 2-2z"/></g><path id="Shape" d="m41.12 6-12.12 13.82-12.12-13.82h4.12l-1-3 4 1v-4l3 2 2-2 2 2 3-2v4l4-1-1 3z" fill="#f44335"/></g><g id="Icons_copy" fill="#000"><path id="Shape" d="m42.442 17.857c.2904631.000398.5667467-.1255172.757-.345l1.963-2.269c.3611942-.4178034.3153034-1.0493058-.1025-1.4105s-1.0493058-.3153034-1.4105.1025l-1.963 2.265c-.2558491.2959455-.3156314.7139063-.1530038 1.0697079s.5177974.5840987.9090038.5842921z"/><path id="Shape" d="m22.009 29.42-7.277 8.3-.9-.782c.5319638-1.3577396.0083695-2.9012555-1.2398911-3.6551041s-2.85807821-.4987411-3.8121089.6041041l-3.93 4.532c-.96795216 1.0985538-.99693855 2.7367779-.06845526 3.8688869.92848328 1.1321089 2.54069509 1.4243273 3.80745526.6901131l2.411 2.085-5.286 6.108c-2.07689955.5503749-3.56997621 2.3660822-3.70877288 4.510181-.13879666 2.1440989 1.1077227 4.1371519 3.09632941 4.9507044 1.98860671.8135524 4.27463277.2656876 5.67844347-1.3608854.7331622-.8537856 1.1529693-1.932231 1.19-3.057l5.11-5.886 2.373 2.055c-.3638268.9205581-.248485 1.9615129.3080447 2.780092.5565297.8185792 1.4821083 1.3086759 2.4719553 1.308908.074 0 .147 0 .221-.008.7939663-.0552187 1.5328541-.4257429 2.052-1.029l3.928-4.535c.9674744-1.1002448.9955536-2.739341.0663321-3.8720779-.9292215-1.1327368-2.54218-1.4256356-3.8103321-.6919221l-.888-.768 6.198-7.054 6.2 7.053-.888.769c-1.2680447-.7261021-2.8750025-.4307974-3.8020526.6986891s-.9033591 2.7631808.0560526 3.8653109l3.927 4.536c.5191459.6032571 1.2580337.9737813 2.052 1.029.074 0 .147.008.221.008.9915577.004183 1.9202927-.4849406 2.4777892-1.3049417s.6707724-1.8635331.3022108-2.7840583l2.373-2.055 5.11 5.886c.0370307 1.124769.4568378 2.2032144 1.19 3.057 1.4037686 1.6303712 3.693083 2.179978 5.6840169 1.3645896 1.990934-.8153885 3.2370591-2.8129371 3.0939377-4.9596072s-1.6433971-3.9611125-3.7249546-4.5049824l-5.272-6.108 2.41-2.086c1.26671.7218059 2.8692934.4251595 3.7937071-.7022346.9244137-1.127394.9013036-2.7570377-.0547071-3.8577654l-3.927-4.535c-.9530257-1.1052262-2.5642208-1.3619835-3.813571-.6077242s-1.7725739 2.2996107-1.238429 3.6577242l-.9.779-7.27-8.297 12.81-14.581c3.2461845-3.7574187 2.8391381-9.43325544-.91-12.689l-.769-.664c-.8357764-.7157617-2.0927635-.62192334-2.813.21l-16.318 18.609-16.313-18.609c-.3463594-.40237913-.8393444-.64941179-1.369-.686-.5293669-.0416955-1.0530889.13251779-1.452.483l-.757.654c-3.75357072 3.25835934-4.15984151 8.9407813-.908 12.7zm1.332 1.515 2.685 3.055-6.755 7.65-3.025-2.618zm-2.715 19.818-2.991-2.588-4.57-3.96-.014-.008-3.01-2.606 2.618-3.025 10.585 9.164zm-13.436-9.374c-.26437613.019059-.52550387-.0676239-.726-.241-.41672114-.3618734-.4614773-.9929353-.1-1.41l3.927-4.537c.1739235-.2003565.4203388-.3233843.685-.342h.073c.2400337-.0004336.4720666.0862678.653.244.4167211.3618734.4614773.9929353.1 1.41l-3.927 4.534c-.17336831.2010714-.42010101.3242576-.685.342zm2.078 16.585c-.88909449 1.0258884-2.35630505 1.3268717-3.57749491.7338866-1.22118987-.592985-1.89198278-1.9321395-1.63559227-3.2652561s1.37606023-2.3279218 2.73008718-2.4256305c.073-.007.147-.007.215-.007.71995542-.0014868 1.41600777.2582448 1.959.731.60257631.5201853.97370173 1.2585348 1.03165727 2.0524694.05795553.7939346-.20201111 1.5783524-.72265727 2.1805306zm2.193-4.213c-.6258449-1.2605626-1.76466045-2.1902005-3.125-2.551l4.174-4.825 3.059 2.647zm14.633-5.812h.073c.3910254.000584.7458379.2290275.9082125.5847461.1623745.3557186.1025188.7734454-.1532125 1.0692539l-3.922 4.534c-.1730253.2011156-.4193346.3246303-.684.343-.2647959.0225095-.5272309-.0646073-.726-.241-.2004252-.1738155-.3235679-.4201501-.3423228-.6847826-.018755-.2646325.068415-.5258722.2423228-.7262174l3.928-4.536c.1708342-.1995787.4140544-.3229878.676-.343zm-3.8-3.684-1.51-1.307 6.572-7.443 1.313 1.495zm15.975 2.165 7.56-6.545 1.51-1.307 2.618 3.025-3.008 2.607-.014.008-4.57 3.96-2.99 2.588-2.619-3.024 1.509-1.307zm.147 7.809c-.4170647.3614773-1.0481266.3167211-1.41-.1l-3.927-4.536c-.2557313-.2958085-.315587-.7135353-.1532125-1.0692539.1623746-.3557186.5171871-.5841621.9082125-.5847461h.073c.2646654.0183697.5109747.1418844.684.343l3.927 4.536c.1739078.2003452.2610778.4615849.2423228.7262174-.0187549.2646325-.1418976.5109671-.3423228.6847826zm17.576 1.986c-.0973114 1.3543459-1.0921641 2.4744726-2.4255525 2.7309833-1.3333884.2565106-2.6728223-.4145577-3.2656766-1.636133s-.2912963-2.6890489.7352291-3.5778503c.6018711-.5203255 1.3853691-.7810121 2.179-.725.7936853.0570896 1.5321749.4271648 2.0529767 1.0287968.5208018.6016321.7812449 1.3855274.7240233 2.1792032zm-4.332-5.015c-1.3589097.3622849-2.4960504 1.2921096-3.121 2.552l-4.108-4.732 3.058-2.647zm-3.36-16.11c.1809334-.1577322.4129663-.2444336.653-.244h.073c.2646612.0186157.5110765.1416435.685.342l3.927 4.537c.3614773.4170647.3167211 1.0481266-.1 1.41-.1990669.1758758-.4612746.2629172-.726.241-.264899-.0177424-.5116317-.1409286-.685-.342l-3.927-4.534c-.3614773-.4170647-.3167211-1.0481266.1-1.41zm-3.147-29.045c.8618273.8083672 1.4187587 1.88903305 1.577 3.06.0654319.63588491-.0984101 1.2742307-.462 1.8-.234009.2700928-.3061494.6445111-.1892466.9822152.1169027.3377041.4050883.5873887.756.655s.7112376-.0571224.9452466-.3272152c.7201715-.9255507 1.0586724-2.0916971.946-3.259-.1916063-1.69849474-.9902763-3.27062117-2.249-4.427l1.348-1.529.761.66c2.914774 2.5281823 3.2341242 6.9382561.714 9.86l-12.634 14.38-1.29-1.47 5.194-5.886c.2365098-.2679492.3121047-.6417209.1983088-.9805191-.1137959-.3387981-.3996943-.591151-.75-.662-.3503057-.0708489-.711799.0505699-.9483088.3185191l-5.023 5.693-2.714-3.1zm-33.735-2.39.761-.65 1.342 1.531c-1.2578495 1.15596614-2.0558116 2.72738698-2.247 4.425-.1126724 1.1673029.2258285 2.3334493.946 3.259.234009.2700928.5943349.3948265.9452466.3272152s.6390973-.3172959.7560001-.655c.1169027-.3377041.0447623-.7121224-.1892467-.9822152-.3635899-.5257693-.5274319-1.16411509-.462-1.8.1578754-1.17057812.7144793-2.25094069 1.576-3.059l28.913 32.97-3.027 2.621-19.807-22.423c-.3656125-.4142136-.9977864-.4536125-1.412-.088s-.4536125.9977864-.088 1.412l19.795 22.408-1.51 1.307-27-30.729c-2.52653438-2.9236628-2.20981637-7.34071601.708-9.874z"/><path id="Shape" d="m16.8 17.512c.3622988.4180795.9949204.4632988 1.413.101.4180795-.3622988.4632988-.9949204.101-1.413l-1.963-2.268c-.3611942-.4178034-.9926966-.4636942-1.4105-.1025s-.4636942.9926966-.1025 1.4105z"/><path id="Shape" d="m.293 24.707 1.42 1.42-1.545 2.318c-.20473221.3068587-.22390189.7015085-.04987397 1.026765.17402792.3252566.51298712.5282902.88187397.528235h2.719l-.689 2.757c-.08880635.354112.0224192.7284778.29016823.9766557.26774904.248178.64946532.3307225.99583177.2153443l3-1c.52467049-.174522.80852195-.7413295.63399997-1.266s-.74132946-.808522-1.26599997-.634l-1.272.424.558-2.232c.07412329-.2984999.0067625-.6145044-.18264511-.856829-.1894076-.2423245-.47978959-.3840095-.78735489-.384171h-2.131l.963-1.445c.26450742-.3966765.21218529-.9249206-.125-1.262l-1.293-1.293 1.293-1.293c.33718529-.3370794.38950742-.8653235.125-1.262l-.963-1.445h2.131c.30801473-.0000081.59883979-.1419601.78833451-.3847868.18949472-.2428268.25651307-.5594308.18166549-.8582132l-.558-2.232 1.272.424c.52467051.174522 1.09147802-.1093295 1.266-.634s-.10932949-1.091478-.634-1.266l-3-1c-.34678076-.1157397-.72908143-.0330176-.99699475.2157293s-.37873326.6238678-.28900525.9782707l.689 2.757h-2.719c-.36888685-.0000552-.70784605.2029784-.88187397.528235-.17402792.3252565-.15485824.7199063.04987397 1.026765l1.545 2.318-1.42 1.42c-.39038194.3904999-.39038194 1.0235001 0 1.414z"/><path id="Shape" d="m58.287 21.873 1.545-2.318c.2047322-.3068587.2239019-.7015085.049874-1.026765-.174028-.3252566-.5129871-.5282902-.881874-.528235h-2.719l.689-2.757c.0888064-.354112-.0224192-.7284778-.2901682-.9766557-.2677491-.248178-.6494653-.3307225-.9958318-.2153443l-3 1c-.3394023.1128959-.5927937.398285-.6647241.748664s.0485281.712517.316.95c.2674719.2374831.6413218.3142319.9807241.201336l1.272-.424-.558 2.232c-.0741233.2984999-.0067625.6145044.1826451.856829.1894076.2423245.4797896.3840095.7873549.384171h2.131l-.963 1.445c-.2645074.3966765-.2121853.9249206.125 1.262l1.293 1.293-1.293 1.293c-.3371853.3370794-.3895074.8653235-.125 1.262l.963 1.445h-2.131c-.3080147.0000081-.5988398.1419601-.7883345.3847868-.1894947.2428268-.2565131.5594308-.1816655.8582132l.558 2.232-1.272-.424c-.3394023-.1128959-.7132523-.0361471-.9807242.201336-.2674719.237483-.3879304.599621-.316.95.0719305.350379.3253219.6357681.6647242.748664l3 1c.3463665.1153782.7280827.0328337.9958318-.2153443.267749-.2481779.3789746-.6225437.2901682-.9766557l-.689-2.759h2.719c.3688869.0000552.707846-.2029784.881874-.528235.1740279-.3252565.1548582-.7199063-.049874-1.026765l-1.545-2.318 1.42-1.42c.3903819-.3904999.3903819-1.0235001 0-1.414z"/><path id="Shape" d="m21.051 8.316c.1128959.33940232.398285.59279374.748664.66472416s.712517-.0485281.95-.316c.2374831-.26747191.3142319-.64132185.201336-.98072416l-.424-1.272 2.232.558c.2984999.07412329.6145044.0067625.856829-.18264511.2423245-.1894076.3840095-.47978959.384171-.78735489v-2.131l1.445.963c.3966765.26450742.9249206.21218529 1.262-.125l1.293-1.293 1.293 1.293c.3370794.33718529.8653235.38950742 1.262.125l1.445-.963v2.131c.0000081.30801473.1419601.59883979.3847868.78833451.2428268.18949472.5594308.25651307.8582132.18166549l2.232-.558-.424 1.272c-.174522.52467051.1093295 1.09147799.634 1.26599997s1.091478-.10932948 1.266-.63399997l1-3c.1157397-.34678076.0330176-.72908143-.2157293-.99699475s-.6238678-.37873326-.9782707-.28900525l-2.757.689v-2.719c.0000552-.36888685-.2029784-.70784605-.528235-.88187397-.3252565-.17402792-.7199063-.15485824-1.026765.04987397l-2.318 1.545-1.42-1.42c-.3904999-.39038194-1.0235001-.39038194-1.414 0l-1.42 1.42-2.318-1.545c-.3068587-.20473221-.7015085-.22390189-1.026765-.04987397-.3252566.17402792-.5282902.51298712-.528235.88187397v2.719l-2.757-.689c-.354112-.08880635-.7284778.0224192-.9766557.29016823-.248178.26774904-.3307225.64946532-.2153443.99583177z"/></g></g></g></svg>