<svg id="FilledOutline" height="512" viewBox="0 0 512 512" width="512" xmlns="http://www.w3.org/2000/svg"><path d="m369.068 380.52 51.873-51.874a54.679 54.679 0 0 0 16.009-38.636 54.682 54.682 0 0 0 -38.636 16.009l-51.873 51.873z" fill="#8d8d54"/><path d="m398.314 306.019a54.682 54.682 0 0 1 38.636-16.009 54.681 54.681 0 0 1 -16.009 38.636l-6.618 6.619-22.623-22.627z" fill="#ded9af"/><path d="m131.48 142.932 51.874-51.873a54.679 54.679 0 0 1 38.636-16.009 54.682 54.682 0 0 1 -16.009 38.636l-51.873 51.873z" fill="#8d8d54"/><path d="m205.981 113.686a54.682 54.682 0 0 0 16.009-38.636 54.681 54.681 0 0 0 -38.636 16.009l-6.619 6.618 22.627 22.623z" fill="#ded9af"/><path d="m261.588 397.49 56.569 45.255h33.943l33.939-33.945-11.314-135.761 28.284-50.911-5.657-50.912 39.894-53.192a230.985 230.985 0 0 0 39.3-82.572 230.985 230.985 0 0 0 -82.572 39.3l-53.192 39.894-50.912-5.657-50.911 28.284-135.759-11.312-33.945 33.939v33.941l45.255 56.569z" fill="#ded9af"/><path d="m397.352 171.216 6.291-37.744a21.824 21.824 0 0 0 -25.115-25.115l-37.744 6.291 53.192-39.894a230.985 230.985 0 0 1 82.572-39.3 230.985 230.985 0 0 1 -39.3 82.572z" fill="#8d8d54"/><path d="m131.48 346.579a96.005 96.005 0 0 0 -27.153 54.305l-1.127 7.916 7.92-1.131a96.005 96.005 0 0 0 54.3-27.153l39.6-39.6 56.569 56.568 56.568 45.255h33.943l-11.316-181.013 22.627-33.941v-29.416l-49.78-49.78h-29.416l-33.941 22.627-181.019-11.316v33.942l45.255 56.568 56.568 56.569z" fill="#8d8d54"/><path d="m397.352 171.216 6.291-37.744a21.824 21.824 0 0 0 -25.115-25.115l-37.744 6.291-25.142 31.427 50.283 50.283z" fill="#ccdce5"/><path d="m315.642 146.075-8.467 10.583a34.27 34.27 0 0 0 -5.751 32.244 34.27 34.27 0 0 0 21.676 21.674 34.27 34.27 0 0 0 32.244-5.751l10.583-8.467z" fill="#57646f"/><path d="m154.108 256.069-101.824-11.314-28.284 28.285 16.971 39.598h56.568l5.657 5.656 56.569-56.568z" fill="#ded9af"/><path d="m131.48 346.579-28.284 16.97-22.627-22.627 16.97-28.284 56.569-56.569 33.941 33.941z" fill="#ded9af"/><path d="m102.794 277.324h80v48h-80z" fill="#4f4f26" transform="matrix(.707 -.707 .707 .707 -171.245 189.226)"/><path d="m255.931 357.892 11.314 101.824-28.285 28.284-39.598-16.971v-56.568l-5.656-5.657 56.568-56.569z" fill="#ded9af"/><path d="m165.421 380.52-16.97 28.284 22.627 22.627 28.284-16.97 56.569-56.569-33.941-33.941z" fill="#ded9af"/><path d="m170.676 345.206h80v48h-80z" fill="#4f4f26" transform="matrix(.707 -.707 .707 .707 -199.362 257.109)"/><path d="m484.309 37.392a8 8 0 0 0 -9.7-9.7 237.743 237.743 0 0 0 -85.431 40.664l-50.657 37.993-47.763-5.307a7.988 7.988 0 0 0 -4.769.958l-48.789 27.1-32.6-2.717 7.041-7.041a63.084 63.084 0 0 0 18.349-44.292 8 8 0 0 0 -8-8 63.083 63.083 0 0 0 -44.29 18.35l-35.76 35.76-38.076-3.173a8 8 0 0 0 -6.321 2.316l-33.943 33.943a8 8 0 0 0 -2.343 5.656v33.942a8 8 0 0 0 1.753 5l34.29 42.864-44.133-4.9a7.994 7.994 0 0 0 -6.541 2.295l-28.283 28.28a8 8 0 0 0 -1.7 8.808l16.971 39.6a8 8 0 0 0 7.354 4.849h42.441l-9.7 16.168a8 8 0 0 0 1.2 9.773l22.628 22.627a7.833 7.833 0 0 0 7.212 2.173 103.946 103.946 0 0 0 -8.344 28.374l-1.131 7.92a8 8 0 0 0 9.052 9.051l7.918-1.132a103.913 103.913 0 0 0 28.361-8.336 8 8 0 0 0 2.187 7.205l22.627 22.627a8 8 0 0 0 9.773 1.2l16.168-9.7v42.438a8 8 0 0 0 4.849 7.353l39.6 16.971a8 8 0 0 0 8.808-1.7l28.283-28.279a8 8 0 0 0 2.294-6.54l-4.9-44.135 42.867 34.294a8 8 0 0 0 5 1.753h33.939a8 8 0 0 0 5.657-2.343l33.943-33.941a8 8 0 0 0 2.316-6.321l-3.173-38.077 35.757-35.763a63.078 63.078 0 0 0 18.35-44.29 8 8 0 0 0 -8-8 63.077 63.077 0 0 0 -44.293 18.352l-7.04 7.041-2.717-32.603 27.1-48.787a7.989 7.989 0 0 0 .958-4.768l-5.307-47.763 37.993-50.657a237.741 237.741 0 0 0 40.665-85.433zm-88.557 94.764-5.788 34.726-23.444 18.756-40.158-40.157 18.757-23.446 34.725-5.787a13.823 13.823 0 0 1 15.908 15.908zm-86.738 54.216a26.167 26.167 0 0 1 4.408-24.716l2.883-3.6 37.643 37.644-3.6 2.883a26.269 26.269 0 0 1 -41.331-12.206zm-95.889-102.457a47 47 0 0 1 -12.8 24.114l-.961.962-11.315-11.314.961-.961a47.007 47.007 0 0 1 24.115-12.801zm-36.39 25.076 11.314 11.314-4.339 4.338-20.887-1.74zm-70.506 25.251 132.071 11.005a7.983 7.983 0 0 0 4.549-.979l48.679-27.044 33.936 3.77-15.675 19.6h-25.574a8 8 0 0 0 -4.438 1.344l-31.7 21.13-160.63-10.044zm-72.743 140.625 21.737-21.736 81.458 9.051-42.456 42.456h-47.979zm143.249 15.143-45.254 45.255-22.628-22.627 45.254-45.255zm-86.093 49.672 8.485-14.142 19.451 19.451-14.141 8.485zm153.975 18.211-45.255 45.254-22.627-22.627 45.255-45.255zm-72.3 63.465-13.794-13.794 8.485-14.142 19.451 19.451zm64.816 57.155-29.772-12.759v-47.979l42.456-42.456 9.051 81.459zm30.659-86.3-3.911-35.2a7.963 7.963 0 0 0 -2.29-4.774l-11.314-11.314 11.314-11.314-11.315-11.314-11.312 11.314-11.314-11.314a8 8 0 0 0 -11.314 0l-56.569 56.569a88.6 88.6 0 0 1 -47.086 24.459 88.6 88.6 0 0 1 24.463-47.09l56.568-56.568a8 8 0 0 0 0-11.313l-11.32-11.314 11.314-11.314-11.314-11.314-11.314 11.314-11.313-11.314a8 8 0 0 0 -4.774-2.29l-35.2-3.911-42.536-53.173v-22.62l172.52 10.782c.167.01.333.015.5.015a8 8 0 0 0 4.438-1.343l31.925-21.284h10.9a42.061 42.061 0 0 0 1.412 45.146l-37.362 37.366 11.312 11.312 37.363-37.363a42.074 42.074 0 0 0 45.146 1.419v10.894l-21.283 31.926a7.993 7.993 0 0 0 -1.328 4.937l10.782 172.52h-22.617zm119.565-63.923 4.339-4.338 11.313 11.313-13.909 13.911zm40.728-29.415a47 47 0 0 1 -12.8 24.115l-.961.961-11.314-11.313.962-.962a47 47 0 0 1 24.113-12.801zm-60.354-29.721a8 8 0 0 0 -.979 4.55l11.007 132.067-18.783 18.782-10.039-160.634 21.13-31.7a8 8 0 0 0 1.344-4.437v-25.568l19.594-15.675 3.77 33.935zm42.907-128.986.9-5.381a29.824 29.824 0 0 0 -34.322-34.321l-5.383.9 26.945-20.209a221.665 221.665 0 0 1 66.177-34.107 221.656 221.656 0 0 1 -34.106 66.178z"/><path d="m242.274 253.726h16v16h-16z" transform="matrix(.707 -.707 .707 .707 -111.765 253.644)"/></svg>