<?xml version="1.0" encoding="iso-8859-1"?>
<!-- Generator: Adobe Illustrator 19.0.0, SVG Export Plug-In . SVG Version: 6.00 Build 0)  -->
<svg version="1.1" id="Capa_1" xmlns="http://www.w3.org/2000/svg" xmlns:xlink="http://www.w3.org/1999/xlink" x="0px" y="0px"
	 viewBox="0 0 512 512" style="enable-background:new 0 0 512 512;" xml:space="preserve">
<path style="fill:#FFCE00;" d="M430.255,275.314L269.13,436.454c-2.5,2.5-5.9,3.913-9.44,3.913H87.124
	c-11.893,0-17.854-14.377-9.44-22.776c49.278-49.325,161.513-161.606,161.513-161.606S126.947,143.734,77.684,94.409
	c-8.415-8.399-2.453-22.776,9.44-22.776h172.567c3.54,0,6.94,1.413,9.44,3.912l73.126,73.126l87.999,87.984
	C440.921,247.337,440.921,264.632,430.255,275.314z"/>
<path style="fill:#FFA81E;" d="M329.339,275.314l-161.125,161.14c-2.5,2.5-5.9,3.913-9.44,3.913h-71.65
	c-11.893,0-17.854-14.377-9.44-22.776c49.278-49.325,161.513-161.606,161.513-161.606S126.947,143.734,77.684,94.409
	c-8.415-8.399-2.453-22.776,9.44-22.776h71.651c3.54,0,6.94,1.413,9.44,3.912L329.34,236.654
	C340.005,247.337,340.005,264.632,329.339,275.314z"/>
<path style="fill:#FF9900;" d="M329.339,275.314l-161.125,161.14c-2.5,2.5-5.9,3.913-9.44,3.913h-41.981
	c3.54,0,6.94-1.413,9.44-3.913l165.783-165.798c10.666-10.682,10.666-18.662,0-29.343L126.233,75.546c-2.5-2.5-5.9-3.912-9.44-3.912
	h41.981c3.54,0,6.94,1.413,9.44,3.912l161.125,161.109C340.005,247.337,340.005,264.632,329.339,275.314z"/>
<path d="M494.01,488.583c-4.142,0-7.5,3.358-7.5,7.5v8.417c0,4.142,3.358,7.5,7.5,7.5s7.5-3.358,7.5-7.5v-8.417
	C501.51,491.941,498.152,488.583,494.01,488.583z"/>
<path d="M449.738,488.583c-4.142,0-7.5,3.358-7.5,7.5v8.417c0,4.142,3.358,7.5,7.5,7.5s7.5-3.358,7.5-7.5v-8.417
	C457.238,491.941,453.88,488.583,449.738,488.583z"/>
<path d="M405.465,488.583c-4.142,0-7.5,3.358-7.5,7.5v8.417c0,4.142,3.358,7.5,7.5,7.5s7.5-3.358,7.5-7.5v-8.417
	C412.965,491.941,409.607,488.583,405.465,488.583z"/>
<path d="M106.535,23.417c4.142,0,7.5-3.358,7.5-7.5V7.5c0-4.142-3.358-7.5-7.5-7.5s-7.5,3.358-7.5,7.5v8.417
	C99.035,20.059,102.393,23.417,106.535,23.417z"/>
<path d="M69.762,15.917V7.5c0-4.142-3.358-7.5-7.5-7.5s-7.5,3.358-7.5,7.5v8.417c0,4.142,3.358,7.5,7.5,7.5
	S69.762,20.059,69.762,15.917z"/>
<path d="M17.99,0c-4.142,0-7.5,3.358-7.5,7.5v8.417c0,4.142,3.358,7.5,7.5,7.5s7.5-3.358,7.5-7.5V7.5C25.49,3.358,22.132,0,17.99,0z
	"/>
<path d="M435.558,231.352l-87.999-87.983l-73.125-73.125c-3.882-3.883-9.256-6.11-14.743-6.11H87.124
	c-8.599,0-15.983,4.936-19.27,12.881c-3.283,7.937-1.547,16.636,4.523,22.695c42.589,42.644,133.354,133.416,156.214,156.276
	C205.788,278.8,115.254,369.373,72.386,412.283c-6.079,6.067-7.815,14.767-4.532,22.703c3.287,7.945,10.67,12.881,19.27,12.881
	h172.567c5.487,0,10.861-2.227,14.743-6.109l161.125-161.14c0.001-0.001,0.002-0.002,0.003-0.004
	C449.123,267.033,449.123,244.936,435.558,231.352z M424.948,270.015l0.003-0.004l-161.124,161.14
	c-1.09,1.09-2.598,1.715-4.136,1.715h-76.924c48.665-46.937,97.766-96.692,153.615-155.642
	c11.307-11.398,11.418-31.614,0.224-44.208c-0.098-0.11-0.198-0.216-0.302-0.32c-30.349-30.349-59.015-59.015-88.063-87.738
	c-2.946-2.914-7.695-2.886-10.606,0.06c-2.913,2.945-2.886,7.694,0.06,10.606c28.963,28.639,57.56,57.235,87.83,87.505
	c5.118,5.925,6.316,17.423,0.173,23.566c-0.048,0.048-0.095,0.096-0.142,0.145c-59.289,62.583-110.934,114.758-162.53,164.197
	c-0.572,0.549-1.037,1.167-1.397,1.828H87.124c-3.631,0-5.058-2.767-5.409-3.615c-0.349-0.845-1.291-3.799,1.275-6.36
	c49.278-49.325,161.512-161.605,161.512-161.605c2.928-2.929,2.928-7.677-0.001-10.605c-1.123-1.123-112.812-112.813-161.518-161.58
	c-2.558-2.554-1.617-5.508-1.268-6.353c0.351-0.848,1.777-3.615,5.409-3.615h74.509c0.383,0.703,0.879,1.358,1.501,1.93
	c7.913,7.285,15.612,15.349,23.057,23.148c8.146,8.533,16.57,17.356,25.369,25.267c1.433,1.289,3.226,1.923,5.012,1.923
	c2.054,0,4.099-0.838,5.58-2.486c2.77-3.08,2.518-7.822-0.563-10.591c-8.373-7.528-16.229-15.757-24.547-24.47
	c-4.654-4.874-9.405-9.849-14.285-14.72h76.935c1.538,0,3.046,0.625,4.136,1.716l73.126,73.126l87.995,87.979
	C432.673,249.691,432.673,262.278,424.948,270.015z"/>
<g>
</g>
<g>
</g>
<g>
</g>
<g>
</g>
<g>
</g>
<g>
</g>
<g>
</g>
<g>
</g>
<g>
</g>
<g>
</g>
<g>
</g>
<g>
</g>
<g>
</g>
<g>
</g>
<g>
</g>
</svg>
