<svg id="Capa_1" enable-background="new 0 0 512 512" height="512" viewBox="0 0 512 512" width="512" xmlns="http://www.w3.org/2000/svg"><path d="m215.919 400.29s10.857 48.393 32.572 90.648c3.119 6.069 11.898 6.069 15.017 0 21.715-42.254 32.572-90.648 32.572-90.648z" fill="#ffe07d"/><path d="m232.947 400.29s4.666 20.795 13.997 42.131c3.479 7.954 14.633 7.954 18.112 0 9.331-21.336 13.997-42.131 13.997-42.131z" fill="#fff"/><path d="m86.579 155.771c-3.128-5.317-10.739-5.317-13.867 0-7.104 12.076-17.115 32.764-17.115 53.453v175.035c0 13.282 10.767 24.048 24.048 24.048 13.282 0 24.048-10.767 24.048-24.048v-175.036c.001-20.688-10.011-41.376-17.114-53.452z" fill="#c8c5c9"/><path d="m72.711 155.771c-7.103 12.076-17.115 32.764-17.115 53.453v175.035c0 13.282 10.767 24.048 24.048 24.048v-256.524c-2.684 0-5.368 1.329-6.933 3.988z" fill="#b6b1b7"/><path d="m95.677 352.194h320.645v32.064h-320.645z" fill="#c8c5c9"/><path d="m262.725 11.194c-3.149-4.925-10.302-4.925-13.451 0-13.232 20.693-38.503 68.317-38.503 123.501v270.744c0 8.854 4.31 18.901 13.164 18.901h64.129c8.854 0 16.032-7.178 16.032-16.032v-270.745c.001-55.184-28.139-105.677-41.371-126.369z" fill="#c8c5c9"/><path d="m207.903 239.968h24.722v-197.535c-12.024 25.05-24.722 59.057-24.722 95.13z" fill="#b6b1b7"/><path d="m207.903 239.968v168.339c0 8.854 7.178 16.032 16.032 16.032h64.129c8.854 0 16.032-7.178 16.032-16.032v-168.339z" fill="#9b959d"/><path d="m207.903 239.968v168.339c0 8.854 7.178 16.032 16.032 16.032h64.129c8.854 0 16.032-7.178 16.032-16.032v-8.016h-48.096c-13.282 0-24.048-10.767-24.048-24.048v-136.275z" fill="#857e87"/><path d="m256 143.774c-8.854 0-16.032 7.178-16.032 16.032v80.161h32.065v-80.161c-.001-8.854-7.179-16.032-16.033-16.032z" fill="#dbeaff"/><path d="m249.275 11.194c-6.827 10.677-17.606 29.324-26.458 52.419h66.366c-8.852-23.095-19.631-41.743-26.458-52.419-3.148-4.925-10.302-4.925-13.45 0z" fill="#ccf49f"/><path d="m72.712 155.771c-6.03 10.252-14.096 26.721-16.414 44.117h46.695c-2.318-17.396-10.384-33.865-16.414-44.117-3.128-5.317-10.739-5.317-13.867 0z" fill="#ccf49f"/><path d="m79.645 408.306c-13.282 0-24.048-10.767-24.048-24.048v-32.065h48.097v32.065c0 13.282-10.767 24.048-24.049 24.048z" fill="#9b959d"/><path d="m55.597 352.194v32.064c0 13.282 10.767 24.048 24.048 24.048v-56.113h-24.048z" fill="#857e87"/><path d="m439.288 155.771c-3.128-5.317-10.739-5.317-13.867 0-7.104 12.076-17.115 32.764-17.115 53.453v175.035c0 13.282 10.767 24.048 24.048 24.048 13.282 0 24.048-10.767 24.048-24.048v-175.036c.001-20.688-10.01-41.376-17.114-53.452z" fill="#c8c5c9"/><path d="m425.421 155.771c-7.103 12.076-17.115 32.764-17.115 53.453v175.035c0 13.282 10.767 24.048 24.048 24.048v-256.524c-2.684 0-5.368 1.329-6.933 3.988z" fill="#b6b1b7"/><path d="m425.421 155.771c-6.03 10.252-14.096 26.721-16.414 44.117h46.694c-2.318-17.396-10.384-33.865-16.414-44.117-3.127-5.317-10.738-5.317-13.866 0z" fill="#ccf49f"/><path d="m432.355 408.306c-13.282 0-24.048-10.767-24.048-24.048v-32.065h48.097v32.065c-.001 13.282-10.768 24.048-24.049 24.048z" fill="#9b959d"/><path d="m408.306 352.194v32.064c0 13.282 10.767 24.048 24.048 24.048v-56.113h-24.048z" fill="#857e87"/><path d="m445.752 151.968c-2.83-4.812-7.838-7.685-13.397-7.685-5.559 0-10.567 2.873-13.398 7.685-8.28 14.076-18.15 35.435-18.15 57.255v55.309h-89.21v-126.969c0-57.639-29.758-110.401-42.553-130.41-2.864-4.479-7.74-7.153-13.044-7.153s-10.18 2.674-13.044 7.153c-12.794 20.009-42.552 72.771-42.552 130.41v54.312c0 4.142 3.358 7.5 7.5 7.5s7.5-3.358 7.5-7.5v-54.312c0-23.688 5.476-46.606 12.63-66.45h55.934c7.154 19.844 12.63 42.762 12.63 66.45v94.905h-17.064v-72.661c0-12.976-10.557-23.532-23.532-23.532s-23.532 10.557-23.532 23.532v72.661h-17.064v-8.531c0-4.142-3.358-7.5-7.5-7.5s-7.5 3.358-7.5 7.5v40.595h-89.21v-55.309c0-21.82-9.87-43.18-18.15-57.255-2.831-4.813-7.84-7.685-13.398-7.685-5.559 0-10.567 2.873-13.397 7.685-8.28 14.075-18.151 35.434-18.151 57.255v175.035c0 17.396 14.152 31.548 31.548 31.548 14.812 0 27.265-10.262 30.64-24.048h90.118v16.548c0 10.887 7.434 20.068 17.491 22.743 3.445 13.037 13.897 48.741 31.738 77.413 1.369 2.2 3.776 3.538 6.368 3.538s4.999-1.337 6.368-3.538c17.84-28.672 28.293-64.376 31.738-77.413 10.057-2.674 17.491-11.855 17.491-22.743v-16.548h90.118c3.375 13.786 15.829 24.048 30.64 24.048 17.396 0 31.548-14.152 31.548-31.548v-175.035c-.003-21.821-9.873-43.18-18.154-57.255zm-211.784-95.855c7.797-18.109 16.279-32.518 21.625-40.879.056-.088.149-.234.407-.234s.351.146.407.233c5.347 8.362 13.828 22.77 21.625 40.879h-44.064zm181.839 153.11c0-.611.01-1.224.03-1.836h33.037c.02.612.03 1.224.03 1.836v135.47h-33.097zm16.079-49.65c.064-.108.171-.291.469-.291s.405.182.469.291c4.259 7.24 10.561 19.418 13.868 32.814h-28.673c3.306-13.396 9.608-25.574 13.867-32.814zm-184.418.234c0-4.705 3.828-8.532 8.532-8.532s8.532 3.828 8.532 8.532v72.661h-17.064zm-47.065 119.725v65.161h-89.21v-65.161zm-137.306-70.309c0-.612.01-1.224.03-1.836h33.037c.02.612.03 1.224.03 1.836v135.47h-33.097zm16.08-49.65c.063-.109.17-.291.468-.291s.405.182.469.291c4.259 7.24 10.56 19.418 13.867 32.814h-28.673c3.307-13.396 9.609-25.574 13.869-32.814zm.468 241.234c-9.125 0-16.548-7.423-16.548-16.548v-24.565h33.097v24.565c-.001 9.124-7.424 16.548-16.549 16.548zm31.548-24.049v-17.065h89.21v17.065zm144.807 112.623c-11.254-21.406-18.738-44.931-22.316-57.542h44.631c-3.577 12.611-11.061 36.136-22.315 57.542zm40.597-81.074c0 4.705-3.828 8.532-8.532 8.532h-24.565v-128.775c0-4.142-3.358-7.5-7.5-7.5s-7.5 3.358-7.5 7.5v128.774h-24.564c-4.705 0-8.532-3.828-8.532-8.532v-160.838h81.193zm15-48.614h48.609c4.142 0 7.5-3.358 7.5-7.5s-3.358-7.5-7.5-7.5h-48.609v-65.161h89.21v65.161h-8.533c-4.142 0-7.5 3.358-7.5 7.5s3.358 7.5 7.5 7.5h8.533v17.065h-89.21zm120.758 41.114c-9.125 0-16.548-7.423-16.548-16.548v-24.565h33.097v24.565c-.001 9.124-7.424 16.548-16.549 16.548z"/></svg>