<svg viewBox="0 0 64 64" xmlns="http://www.w3.org/2000/svg"><path d="m22.2 49.8v-29.22c0-8.49 9.8-16.58 9.8-16.58s9.8 8.09 9.8 16.58v29.22z" fill="#e6e5e1"/><path d="m18.38 27.66c0-4.8-5.55-9.38-5.55-9.38s-5.54 4.58-5.54 9.38v26.45h11.09z" fill="#e6e5e1"/><path d="m9.25 54.11h7.9v4.17h-7.9z" fill="#e6e5e1"/><path d="m12.83 31a1.91 1.91 0 0 1 1.92 1.91v9.77a1.92 1.92 0 0 1 -3.84 0v-9.78a1.91 1.91 0 0 1 1.92-1.9z" fill="#767689"/><path d="m45.62 54.11v-26.45c0-4.8 5.55-9.38 5.55-9.38s5.54 4.58 5.54 9.38v26.45z" fill="#e6e5e1"/><path d="m54.75 54.11h-7.9v4.17h7.9z" fill="#e6e5e1"/><path d="m51.17 31a1.91 1.91 0 0 0 -1.92 1.91v9.77a1.92 1.92 0 0 0 3.84 0v-9.78a1.91 1.91 0 0 0 -1.92-1.9z" fill="#767689"/><circle cx="32" cy="19.18" fill="#767689" r="3.43"/><g fill="#cac7c1"><path d="m13.58 54.11h3.57v4.17h-3.57z"/><path d="m54.75 54.11h-3.56v4.17h3.56z"/><path d="m32 4s-1 .87-2.35 2.23c2.59 2.45 8.59 8.81 8.59 15.48v28.09h3.56v-29.22c0-8.49-9.8-16.58-9.8-16.58z"/><path d="m51.17 18.28a24.51 24.51 0 0 0 -2 2c1.6 1.58 4.54 4.94 4.54 8.44v25.39h3v-26.45c0-4.8-5.54-9.38-5.54-9.38z"/><path d="m12.83 18.28a23.59 23.59 0 0 0 -2 2c1.59 1.58 4.53 4.94 4.53 8.44v25.39h3v-26.45c.02-4.8-5.53-9.38-5.53-9.38z"/></g><path d="m37.9 58.28h9v-5.43a2.6 2.6 0 0 0 -2.6-2.61 7.06 7.06 0 0 1 -5.43-2.54l-.92-1.1h-11.85l-.92 1.1a7.06 7.06 0 0 1 -5.43 2.54 2.6 2.6 0 0 0 -2.6 2.61v5.43z" fill="#767689"/><path d="m18.38 34.81h3.82v9.32h-3.82z" fill="#767689"/><path d="m41.8 34.81h3.82v9.32h-3.82z" fill="#767689"/><path d="m29.83 58.28h-3.73v-17.23c0-5.11 5.9-11.18 5.9-11.18s5.9 6.07 5.9 11.18v17.23z" fill="#767689"/><path d="m32 29.87s-.95 1-2.09 2.5c1.72 2.06 4.71 6.17 4.71 9.81v16.1h3.28v-17.23c0-5.05-5.9-11.18-5.9-11.18z" fill="#5f5f70"/><path d="m29.83 52.92h4.33v7.08h-4.33z" fill="#e6e5e1"/><path d="m26.1 46.6-.92 1.1a7.25 7.25 0 0 1 -2.35 1.84v8.74h3.27z" fill="#5f5f70"/><path d="m43 50.12a2.61 2.61 0 0 1 1.12 2.13v6h2.74v-5.4a2.6 2.6 0 0 0 -2.6-2.61 7.47 7.47 0 0 1 -1.26-.12z" fill="#5f5f70"/><path d="m35.16 38.79a3.3 3.3 0 0 0 -6.32 0 1 1 0 0 0 .71 1.2 1 1 0 0 0 1.22-.7 1.19 1.19 0 0 1 1.23-.84 1.17 1.17 0 0 1 1.22.83 1 1 0 0 0 1 .75h.25a1 1 0 0 0 .69-1.24z" fill="#16244d"/><path d="m12.19 17.51c-.24.2-5.9 4.94-5.9 10.15v26.45a1 1 0 0 0 1 1h1v3.17a1 1 0 0 0 1 1h19.54v.72a1 1 0 0 0 1 1h4.33a1 1 0 0 0 1-1v-.72h19.59a1 1 0 0 0 1-1v-3.17h1a1 1 0 0 0 1-1v-26.45c0-5.21-5.66-9.95-5.91-10.15a1 1 0 0 0 -1.27 0c-.24.2-5.91 4.94-5.91 10.15v6.15h-1.86v-13.23c0-8.86-9.75-17-10.16-17.35a1 1 0 0 0 -1.28 0c-.36.34-10.16 8.49-10.16 17.35v13.23h-1.82v-6.15c0-5.21-5.67-9.95-5.91-10.15a1 1 0 0 0 -1.28 0zm-1.94 37.6h5.9v2.17h-5.9zm9.13-10h1.82v3.93a6.33 6.33 0 0 1 -1.45.18 2.21 2.21 0 0 0 -.37 0zm5.72 9.19h-7v-1.45a1.61 1.61 0 0 1 1.6-1.61 8.1 8.1 0 0 0 5.35-2zm-7 2h7v1h-7zm15 2.68h-2.27v-5.06h2.33zm1-7.08h-4.27a1 1 0 0 0 -1 1v4.36h-1.73v-16.21c0-3.62 3.39-7.93 4.9-9.68 1.51 1.75 4.9 6.06 4.9 9.68v16.23h-1.74v-4.36a1 1 0 0 0 -1-1zm10.09-.68a1.61 1.61 0 0 1 1.6 1.61v1.47h-7v-5.1a8.09 8.09 0 0 0 5.46 2.04zm-5.29 5.1h7v1h-7zm14.85 1h-5.9v-2.21h5.9zm-7.13-29.66c0-3.35 3.16-6.72 4.55-8 1.38 1.31 4.54 4.68 4.54 8v25.45h-7.86v-.26a3.6 3.6 0 0 0 -1.23-2.7zm-3.82 8.15h1.82v7.32h-1.82zm1.82 9.32v4.15c-.12 0-.25 0-.37 0a5.82 5.82 0 0 1 -1.45-.18v-3.97zm-21.42-24.55c0-6.69 6.68-13.31 8.8-15.25 2.12 1.93 8.8 8.55 8.8 15.25v27.58a5.74 5.74 0 0 1 -1.21-1.1l-.69-.83v-5.18c0-5.45-5.93-11.61-6.18-11.87a1 1 0 0 0 -1.44 0c-.25.26-6.18 6.42-6.18 11.87v5.18l-.69.83a6 6 0 0 1 -1.21 1.1zm-2 15.23v7.32h-1.82v-7.32zm-3.82-8.15v22.49a3.6 3.6 0 0 0 -1.23 2.7v.26h-7.86v-25.45c0-3.35 3.16-6.72 4.54-8 1.39 1.28 4.55 4.65 4.55 8z" fill="#16244d"/><path d="m9.91 32.9v9.77a2.92 2.92 0 0 0 5.84 0v-9.77a2.92 2.92 0 0 0 -5.84 0zm2 0a.92.92 0 0 1 1.84 0v9.77a.92.92 0 0 1 -1.84 0z" fill="#16244d"/><path d="m51.17 45.59a2.92 2.92 0 0 0 2.92-2.92v-9.77a2.92 2.92 0 0 0 -5.84 0v9.77a2.92 2.92 0 0 0 2.92 2.92zm-.92-12.69a.92.92 0 0 1 1.84 0v9.77a.92.92 0 0 1 -1.84 0z" fill="#16244d"/><path d="m32 23.61a4.43 4.43 0 1 0 -4.43-4.43 4.43 4.43 0 0 0 4.43 4.43zm0-6.86a2.43 2.43 0 1 1 -2.43 2.43 2.43 2.43 0 0 1 2.43-2.43z" fill="#16244d"/></svg>