<?xml version="1.0" encoding="iso-8859-1"?>
<!-- Generator: Adobe Illustrator 21.0.0, SVG Export Plug-In . SVG Version: 6.00 Build 0)  -->
<svg xmlns="http://www.w3.org/2000/svg" xmlns:xlink="http://www.w3.org/1999/xlink" version="1.1" id="Capa_1" x="0px" y="0px" viewBox="0 0 512 512" style="enable-background:new 0 0 512 512;" xml:space="preserve" width="512" height="512">
<g>
	<g>
		<path style="fill:#3A658C;" d="M337.929,213.026v-92.661C337.929,76.678,301.474,10,301.474,10h-90.948    c0,0-36.454,66.678-36.454,110.365v92.661L10.864,327.404v43.958h163.207l31.382,22.093h101.093l31.382-22.093h163.207v-43.958    L337.929,213.026z"/>
	</g>
	<g>
		<path style="fill:#FACF23;" d="M308.456,344.454c0-53.68-28.318-72.581-28.318-72.581V108.861H231.74v163.012    c0,0-28.318,18.901-28.318,72.581H308.456z"/>
	</g>
	<g>
		<path style="fill:#FACF23;" d="M235.587,449.546c3.804,17.004,10.418,35.394,21.846,50.726c0,0,12.415-15.675,19.44-51.191    c2.573-13.008-7.43-25.119-20.69-25.119h0C242.725,423.962,232.649,436.413,235.587,449.546z"/>
	</g>
	<g>
		<path style="fill:#D4EFFC;" d="M185.349,67.027c-6.288,17.917-11.28,37.219-11.28,53.382v33.711H79.253v-20.378L185.349,67.027z"/>
	</g>
	<g>
		<path style="fill:#D4EFFC;" d="M432.727,133.742v20.378h-94.796v-33.711c0-16.153-4.992-35.465-11.28-53.372L432.727,133.742z"/>
	</g>
	<g>
		<path style="fill:#B2D5F6;" d="M221.549,66.205h67.503c12.466,0,19.302,14.514,11.363,24.125l-10.887,13.179    c-2.8,3.389-6.967,5.352-11.363,5.352H231.74c-4.563,0-8.868-2.113-11.659-5.723l-10.19-13.179    C202.4,80.272,209.304,66.205,221.549,66.205z"/>
	</g>
	<g>
		<polygon style="fill:#D4EFFC;" points="45.43,371.361 65.304,402.677 115.072,402.677 134.212,371.361   "/>
	</g>
	<g>
		<polygon style="fill:#D4EFFC;" points="377.788,371.361 397.662,402.677 447.43,402.677 466.57,371.361   "/>
	</g>
	<g>
		<path style="fill:#231F20;" d="M256.183,413.962c-9.499,0-18.354,4.253-24.294,11.669c-5.911,7.378-8.12,16.891-6.061,26.097    v0.001c4.853,21.688,12.788,40.03,23.587,54.518c1.856,2.491,4.765,3.977,7.871,4.023c0.049,0,0.098,0.001,0.146,0.001    c3.052,0,5.94-1.395,7.839-3.791c0.568-0.718,14.002-18.001,21.411-55.459c1.807-9.13-0.551-18.497-6.467-25.698    C274.283,418.103,265.523,413.962,256.183,413.962z M267.063,447.141c-2.903,14.675-6.774,25.701-10.136,33.365    c-4.919-9.609-8.798-20.699-11.582-33.144v0.001c-0.727-3.25,0.058-6.613,2.152-9.229c2.124-2.652,5.29-4.173,8.685-4.173    c3.334,0,6.461,1.479,8.579,4.058C266.864,440.579,267.703,443.903,267.063,447.141z"/>
		<path style="fill:#231F20;" d="M506.875,319.215L347.929,207.823V164.12h84.799c5.522,0,10-4.477,10-10v-20.378    c0-3.438-1.767-6.635-4.677-8.465L334.945,60.44c-10.531-29.137-23.778-53.558-24.696-55.237C308.495,1.995,305.131,0,301.475,0    h-90.949c-3.656,0-7.021,1.995-8.774,5.203c-0.918,1.679-14.161,26.093-24.691,55.223l-103.13,64.85    c-2.91,1.83-4.677,5.027-4.677,8.465v20.378c0,5.523,4.478,10,10,10h84.818v43.703L5.125,319.215    c-2.671,1.872-4.261,4.928-4.261,8.189v43.958c0,5.523,4.478,10,10,10h21.867c0.003,0,0.006,0,0.009,0c0.004,0,0.008,0,0.012,0    h7.18l16.928,26.674c1.835,2.891,5.02,4.642,8.443,4.642h49.768c3.483,0,6.716-1.813,8.532-4.785l16.216-26.531h31.085    l28.793,20.27c1.686,1.187,3.696,1.823,5.757,1.823h101.093c2.061,0,4.071-0.637,5.757-1.823l28.792-20.27h31.195l16.928,26.674    c1.835,2.891,5.02,4.642,8.443,4.642h49.768c3.483,0,6.716-1.813,8.532-4.785l16.216-26.531h28.958c5.522,0,10-4.477,10-10    v-43.958C511.136,324.143,509.546,321.086,506.875,319.215z M343.814,89.643l78.913,49.623v4.854h-74.797    c0-4.909,0-9.818,0-14.727c0-6.373,0.09-12.725-0.531-19.078C346.72,103.358,345.461,96.434,343.814,89.643z M216.579,20h78.842    c4.578,8.96,14.049,28.396,21.594,49.701c0.06,0.217,0.124,0.434,0.2,0.65c5.651,16.092,9.08,30.024,10.252,41.579    c0.281,2.801,0.461,5.619,0.461,8.436v89.821v2.84v54.602c0,2.872,1.235,5.606,3.391,7.504l36.469,32.12v54.109h-25.969    l-23.433-21.482c-1.234-42.746-19.568-64.666-28.249-72.69v-80.287c0-5.523-4.478-10-10-10s-10,4.477-10,10v84.969    c0,3.342,1.669,6.462,4.448,8.317c0.221,0.147,20.463,14.814,23.482,54.264h-84.267c2.9-38.795,22.104-53.27,23.53-54.29    c2.861-1.837,4.408-4.886,4.408-8.292V118.861h36.426c7.405,0,14.356-3.274,19.073-8.983l10.887-13.179    c6.165-7.463,7.433-17.539,3.308-26.296s-12.7-14.197-22.38-14.197h-67.504c-9.509,0-18.018,5.302-22.207,13.838    c-4.189,8.535-3.18,18.51,2.637,26.032l10.19,13.18c2.529,3.27,5.848,5.816,9.57,7.466V267.19    c-8.688,8.03-27.049,29.981-28.252,72.805l-23.306,21.366h-25.969v-54.006l36.34-30.917c2.232-1.9,3.52-4.684,3.52-7.616v-55.796    v-2.84v-89.821c0-2.808,0.179-5.617,0.459-8.409c1.17-11.558,4.6-25.503,10.254-41.618c0.062-0.177,0.113-0.357,0.165-0.536    C202.5,48.456,211.995,28.974,216.579,20z M387.788,338.231h30.703l30.843,23.13h-61.546V338.231z M231.739,98.861    c-1.456,0-2.857-0.688-3.748-1.839l-10.19-13.179c-1.63-2.108-0.896-4.189-0.505-4.986c0.391-0.797,1.588-2.65,4.253-2.65h67.504    c2.713,0,3.901,1.901,4.286,2.719c0.386,0.817,1.095,2.945-0.634,5.037l-10.887,13.179c-0.902,1.093-2.234,1.72-3.653,1.72    H231.739z M62.291,361.361l30.272-23.13h31.649v23.13H62.291z M164.069,144.12H89.253v-4.854l78.937-49.636    c-2.384,10.068-4.12,20.406-4.12,30.779V144.12z M20.864,332.607l143.207-100.362V264.2l-36.34,30.917    c-2.232,1.9-3.52,4.684-3.52,7.616v15.498H89.18c-2.194,0-4.328,0.722-6.071,2.054L29.35,361.361h-8.485V332.607z     M109.464,392.677H70.801l-7.181-11.315h52.76L109.464,392.677z M303.38,383.455h-94.759l-18.634-13.118l17.324-15.882h97.377    l17.324,15.883L303.38,383.455z M441.822,392.677h-38.663l-7.181-11.315h52.76L441.822,392.677z M491.136,361.361h-8.616    c-0.303-0.295-0.621-0.58-0.969-0.84l-53.727-40.29c-1.731-1.298-3.837-2-6-2h-34.036v-15.498c0-2.873-1.235-5.606-3.391-7.504    l-36.469-32.12v-30.865l143.207,100.362V361.361z"/>
		<path style="fill:#231F20;" d="M289.37,144.09c-1.632-3.917-5.625-6.403-9.855-6.109c-3.655,0.254-7.009,2.502-8.508,5.864    c-1.54,3.454-0.892,7.602,1.513,10.499c2.751,3.314,7.462,4.456,11.44,2.807C289.008,155.056,291.439,149.136,289.37,144.09z"/>
		<path style="fill:#231F20;" d="M196.389,431.331c-5.522,0-10,4.477-10,10V481.4c0,5.523,4.478,10,10,10s10-4.477,10-10v-40.069    C206.389,435.808,201.911,431.331,196.389,431.331z"/>
		<path style="fill:#231F20;" d="M357.858,409.916c-5.522,0-10,4.477-10,10v17.421c0,5.523,4.478,10,10,10s10-4.477,10-10v-17.421    C367.858,414.393,363.381,409.916,357.858,409.916z"/>
		<path style="fill:#231F20;" d="M154.142,406.923c-5.522,0-10,4.477-10,10v21.408c0,5.523,4.478,10,10,10s10-4.477,10-10v-21.408    C164.142,411.4,159.664,406.923,154.142,406.923z"/>
		<path style="fill:#231F20;" d="M323.65,450.8c-5.522,0-10,4.477-10,10V502c0,5.523,4.478,10,10,10s10-4.477,10-10v-41.2    C333.65,455.277,329.173,450.8,323.65,450.8z"/>
	</g>
</g>















</svg>
